<svg width="94" height="158" fill="none" xmlns="http://www.w3.org/2000/svg"><path opacity=".15" d="M52 145.562L72.946 158 94 145.46l-20.945-12.437L52 145.562z" fill="#7B4196"/><path d="M72.98 116.843v32.523l-7.696-4.571v-32.523l7.695 4.571z" fill="#74462E"/><path d="M72.979 116.838v32.523l7.737-4.608V112.23l-7.737 4.608z" fill="#8A553A"/><path d="M72.946 24.977v104.725L52 117.263V12.54l20.946 12.437z" fill="#5EB258"/><path d="M52 12.54l20.946 12.437L94 12.437 73.055 0 52 12.54z" fill="#76C059"/><path d="M72.946 24.965v104.723L94 117.148V12.424L72.946 24.965z" fill="#4FA050"/><path opacity=".15" d="M0 145.562L20.946 158 42 145.46l-20.945-12.437L0 145.562z" fill="#7B4196"/><path d="M20.979 116.843v32.523l-7.695-4.571v-32.523l7.695 4.571z" fill="#74462E"/><path d="M20.98 116.838v32.523l7.736-4.608V112.23l-7.737 4.608z" fill="#8A553A"/><path d="M20.946 24.977v104.725L0 117.263V12.54l20.946 12.437z" fill="#5EB258"/><path d="M0 12.54l20.946 12.437L42 12.437 21.055 0 0 12.54z" fill="#76C059"/><path d="M20.946 24.965v104.723L42 117.148V12.424L20.946 24.965z" fill="#4FA050"/></svg>
