<svg width="109" height="98" fill="none" xmlns="http://www.w3.org/2000/svg"><g clip-path="url(#clip0)"><path d="M85.408 63.052V75.7L40.583 51.078v-12.66l44.825 24.634z" fill="#567E8B"/><path d="M85.408 63.052V75.7l23.481-12.92V50.12L85.408 63.051z" fill="#749EA5"/><path d="M105.792 55.33l.809-.45v9.155l-.809.45V55.33zm-1.243.687l.808-.45v9.154l-.808.45v-9.154zm-1.244.687l.796-.45v9.154l-.796.439v-9.143zm-1.256.686l.808-.438v9.155l-.808.438v-9.154zm-1.244.688l.796-.439v9.143l-.796.45v-9.154zm-1.256.686l.808-.438v9.143l-.808.45v-9.154zm-1.244.687l.796-.438v9.143l-.796.45V59.45zm-1.255.687l.808-.438v9.155l-.809.438v-9.155zm-1.245.699l.796-.45v9.154l-.796.439v-9.143zm-1.255.675l.808-.438v9.154l-.809.439v-9.155zM40.584 38.418l44.824 24.634 23.481-12.933-44.824-24.621-23.481 12.92zM54.6 58.8l.808.438v-9.143l-.808-.45V58.8zm-1.243-.687l.796.438v-9.154l-.796-.438v9.154zm-1.257-.687l.809.45v-9.154l-.808-.45v9.154zm-1.244-.699l.796.45v-9.154l-.796-.438v9.142zm-1.256-.675l.809.439v-9.155l-.808-.438v9.154zm-1.243-.687l.808.439v-9.155l-.808-.438v9.154zm-1.257-.686l.809.438v-9.155l-.808-.438v9.155zm-1.243-.687l.808.438v-9.155l-.808-.438v9.155zm-1.257-.699l.809.45V44.59l-.808-.45v9.154zm-1.243-.675l.809.438v-9.154l-.809-.439v9.155zM80.022 72.74l.796.45v-9.156l-.796-.45v9.155zm-1.256-.688l.808.45v-9.154l-.808-.45v9.154zm-1.244-.687l.796.45v-9.154l-.796-.438v9.142zm-1.256-.687l.808.439v-9.155l-.808-.438v9.154zm-1.244-.686l.809.438v-9.143l-.809-.45v9.154zm-1.255-.687l.808.438V60.6l-.808-.45v9.155zm-1.245-.687l.809.438v-9.143l-.809-.45v9.155zm-1.256-.688l.808.44v-9.156l-.808-.438v9.155zm-1.243-.698l.808.45v-9.154l-.808-.439v9.143zm-1.256-.675l.808.438v-9.154l-.808-.438v9.154z" fill="#7A6577"/><path d="M85.408 48.082V60.73L40.583 36.11V23.461l44.825 24.621z" fill="#567E8B"/><path d="M85.408 48.082V60.73l23.481-12.92V35.162l-23.481 12.92z" fill="#749EA5"/><path d="M105.792 40.36l.809-.438v9.143l-.809.45v-9.154zm-1.243.687l.808-.438v9.143l-.808.45v-9.154zm-1.244.687l.796-.45v9.155l-.796.45v-9.155zm-1.256.699l.808-.45v9.155l-.808.438v-9.143zm-1.244.675l.796-.438v9.154l-.796.439v-9.155zm-1.256.687l.808-.438v9.154l-.808.439v-9.155zm-1.244.687l.796-.438v9.154l-.796.438v-9.154zm-1.255.687l.808-.438v9.154l-.809.438V45.17zm-1.245.698l.796-.45v9.155l-.796.45v-9.154zm-1.255.676l.808-.439v9.155l-.809.438v-9.154z" fill="#7A6577"/><path d="M40.584 23.46l44.824 24.622 23.481-12.92-44.824-24.634-23.481 12.933z" fill="#8AAFB2"/><path d="M54.6 43.83l.808.45v-9.154l-.808-.45v9.155zm-1.243-.686l.796.438v-9.143l-.796-.45v9.155zm-1.257-.687l.809.45v-9.155l-.808-.438v9.143zm-1.244-.687l.796.438v-9.154l-.796-.439v9.155zm-1.256-.687l.809.438V32.38l-.808-.45v9.154zm-1.243-.687l.808.438V31.68l-.808-.438v9.154zM47.1 39.71l.809.437v-9.154l-.808-.438v9.154zm-1.243-.688l.808.439v-9.155l-.808-.438v9.154zm-1.257-.698l.809.45v-9.155l-.808-.438v9.143zm-1.243-.675l.809.438v-9.155l-.809-.438v9.155zM80.022 57.77l.796.45v-9.155l-.796-.438v9.143zm-1.256-.687l.808.45v-9.155l-.808-.438v9.143zm-1.244-.675l.796.438V47.69l-.796-.438v9.155zm-1.256-.699l.808.438v-9.154l-.808-.439v9.155zm-1.244-.687l.809.45v-9.154l-.809-.45v9.154zm-1.255-.687l.808.45v-9.154l-.808-.45v9.154zm-1.245-.687l.809.45v-9.154l-.809-.45v9.154zm-1.256-.687l.808.439v-9.143l-.808-.45v9.154zm-1.243-.686l.808.438v-9.155l-.808-.438v9.155zm-1.256-.687l.808.438v-9.143l-.808-.45v9.155z" fill="#7A6577"/><path d="M64.04 3.423l-2.686-1.48V15.87l2.686 1.468V3.423z" fill="#567E8B"/><path d="M64.886 0l-3.532 1.942 2.686 1.48 3.545-1.942L64.886 0z" fill="#8AAFB2"/><path d="M67.585 1.48l-3.544 1.943v13.915l3.544-1.942V1.48z" fill="#749EA5"/><path d="M55.533 12.246l-2.686-1.48v9.746l2.686 1.48v-9.746z" fill="#E8453D"/><path d="M56.379 8.823l-3.532 1.942 2.686 1.48 3.532-1.942-2.686-1.48z" fill="#FF7069"/><path d="M59.065 10.303l-3.532 1.943v9.746l3.532-1.954v-9.735z" fill="#F95E4E"/><path d="M67.585 3.98l-3.544 1.94v1.576l3.544-1.943V3.98z" fill="#E0E4E4"/><path d="M64.04 5.921l-2.686-1.48v1.575l2.686 1.48V5.922z" fill="#D3D3D3"/><path d="M67.585 8.337l-3.544 1.943v1.587l3.544-1.954V8.337z" fill="#E0E4E4"/><path d="M64.04 10.28L61.354 8.8v1.586l2.686 1.469V10.28z" fill="#D3D3D3"/><path d="M85.395 42.303l5.659-3.15v3.778l-5.659 3.138v-3.766z" fill="#E0E4E4"/><path d="M67.162 26.019l23.892 13.134-5.659 3.15-23.917-13.146 5.684-3.138z" fill="#E6E6E8"/><path d="M61.478 29.157l23.917 13.146v3.766L61.478 32.935v-3.778zm24.7 7.959l-4.415 2.451 3.42 1.895 4.428-2.452-3.433-1.894zm-4.588-2.535l-4.416 2.452 3.42 1.907 4.428-2.464-3.432-1.895zm-4.578-2.522l-4.427 2.451 3.42 1.907 4.427-2.463-3.42-1.895zm-4.589-2.523l-4.428 2.452 3.42 1.895 4.44-2.452-3.432-1.895z" fill="#D3D3D3"/><path d="M44.837 85.352V98L0 73.379v-12.66l44.837 24.633z" fill="#567E8B"/><path d="M44.837 85.352V98l23.482-12.92V72.42L44.837 85.351z" fill="#749EA5"/><path d="M65.222 77.63l.808-.438v9.143l-.808.45V77.63zm-1.257.687l.809-.438v9.143l-.809.45v-9.155zm-1.244.687l.809-.45v9.154l-.809.439v-9.143zm-1.256.686l.809-.437v9.154l-.809.438v-9.154zm-1.243.688l.808-.438v9.142l-.808.45v-9.154zm-1.257.687l.809-.439v9.155l-.809.438v-9.154zm-1.243.686l.808-.438v9.155l-.808.438v-9.155zm-1.244.687l.796-.438v9.155l-.796.438v-9.155zm-1.256.699l.808-.45v9.155l-.808.45v-9.155zm-1.244.675l.796-.438v9.155l-.796.438v-9.155zM0 60.718l44.837 24.634 23.481-12.933-44.836-24.621L0 60.718zM14.017 81.1l.808.438v-9.142l-.808-.45V81.1zm-1.244-.687l.809.439v-9.143l-.809-.45v9.154zm-1.243-.687l.795.45v-9.154l-.796-.45v9.154zm-1.257-.698l.808.45v-9.155l-.808-.438v9.143zm-1.243-.675l.796.438v-9.155l-.796-.438v9.155zm-1.257-.687l.809.438v-9.155l-.809-.438v9.155zm-1.243-.687l.796.438v-9.154l-.796-.439v9.155zm-1.257-.687l.809.438v-9.154l-.809-.439v9.155zm-1.243-.699l.795.45V66.89l-.796-.45v9.154zm-1.257-.675l.809.438v-9.154l-.809-.438v9.154zM39.439 95.04l.808.45v-9.155l-.808-.45v9.154zm-1.244-.688l.796.45v-9.154l-.796-.45v9.154zm-1.256-.675l.808.438v-9.154l-.808-.438v9.154zm-1.244-.698l.796.438v-9.155l-.796-.438v9.155zm-1.256-.687l.808.45v-9.155l-.808-.45v9.155zm-1.244-.687l.796.438V82.9l-.796-.45v9.155zm-1.256-.687l.808.438v-9.143l-.808-.45v9.155zm-1.243-.687l.796.438v-9.154l-.796-.439v9.155zm-1.256-.687l.808.438v-9.154l-.809-.438v9.154zm-1.245-.687l.809.438v-9.142l-.809-.45v9.154z" fill="#7A6577"/><path d="M44.837 70.382v12.649L0 58.409V45.761l44.837 24.621z" fill="#567E8B"/><path d="M44.837 70.382v12.649L68.319 70.11V57.462l-23.482 12.92z" fill="#749EA5"/><path d="M65.222 62.66l.808-.437v9.154l-.808.438v-9.154zm-1.257.688l.809-.438v9.154l-.809.438v-9.154zm-1.244.687l.809-.45v9.154l-.809.45v-9.154zm-1.256.698l.809-.45v9.155l-.809.45v-9.155zm-1.243.675l.808-.438v9.155l-.808.438v-9.155zm-1.257.687l.809-.438v9.155l-.809.438v-9.155zm-1.243.687l.808-.438v9.155l-.808.438v-9.155zm-1.244.687l.796-.438v9.154l-.796.439v-9.155zm-1.256.699l.808-.45v9.154l-.808.45v-9.154zm-1.244.675l.796-.438v9.154l-.796.438v-9.154z" fill="#7A6577"/><path d="M0 45.761l44.837 24.621 23.481-12.92-44.836-24.634L0 45.761z" fill="#8AAFB2"/><path d="M14.017 66.13l.808.45v-9.154l-.808-.45v9.155zm-1.244-.686l.809.45v-9.155l-.809-.45v9.155zm-1.243-.687l.795.45v-9.155l-.796-.438v9.143zm-1.257-.687l.808.438v-9.154l-.808-.438v9.154zm-1.243-.687l.796.438V54.68l-.796-.45v9.154zm-1.257-.687l.809.439v-9.143l-.809-.45v9.154zM6.53 62.01l.796.438v-9.143l-.796-.45v9.154zm-1.257-.688l.809.439v-9.155l-.809-.438v9.154zm-1.243-.698l.795.45v-9.155l-.796-.438v9.143zm-1.257-.675l.809.438v-9.155l-.809-.438v9.155zM39.439 80.07l.808.45v-9.155l-.808-.438v9.143zm-1.244-.687l.796.45v-9.155l-.796-.438v9.143zm-1.256-.675l.808.438v-9.154l-.808-.439v9.155zm-1.244-.698l.796.437v-9.154l-.796-.438v9.154zm-1.256-.688l.808.45v-9.154l-.808-.45v9.154zm-1.244-.687l.796.45v-9.154l-.796-.45v9.154zm-1.256-.687l.808.45v-9.154l-.808-.45v9.154zm-1.243-.686l.796.438v-9.143l-.796-.45v9.155zm-1.256-.687l.808.438v-9.155l-.809-.438v9.155zm-1.245-.687l.809.45v-9.155l-.809-.45v9.155z" fill="#7A6577"/><path d="M23.457 25.723l-2.687-1.48V38.17l2.687 1.468V25.723z" fill="#567E8B"/><path d="M24.303 22.3l-3.533 1.942 2.687 1.48 3.545-1.942-2.7-1.48z" fill="#8AAFB2"/><path d="M27.002 23.78l-3.545 1.943v13.915l3.545-1.942V23.78z" fill="#749EA5"/><path d="M14.95 34.546l-2.687-1.48v9.746l2.687 1.48v-9.746z" fill="#E8453D"/><path d="M15.795 31.123l-3.532 1.942 2.687 1.48 3.544-1.942-2.699-1.48z" fill="#FF7069"/><path d="M18.494 32.603l-3.544 1.943v9.746l3.544-1.954v-9.735z" fill="#F95E4E"/><path d="M27.002 26.28l-3.545 1.942v1.587l3.545-1.954v-1.576z" fill="#E0E4E4"/><path d="M23.457 28.222l-2.687-1.48v1.586l2.687 1.469v-1.575z" fill="#D3D3D3"/><path d="M27.002 30.638l-3.545 1.942v1.587l3.545-1.954v-1.575z" fill="#E0E4E4"/><path d="M23.457 32.58L20.77 31.1v1.586l2.687 1.469V32.58z" fill="#D3D3D3"/><path d="M44.812 64.603l5.671-3.15v3.778l-5.671 3.138v-3.766z" fill="#E0E4E4"/><path d="M26.579 48.319l23.904 13.134-5.671 3.15-23.905-13.146 5.672-3.138z" fill="#E6E6E8"/><path d="M20.907 51.457l23.905 13.146v3.766L20.907 55.235v-3.778zm24.701 7.959l-4.428 2.451 3.42 1.895 4.428-2.451-3.42-1.895zm-4.589-2.523l-4.428 2.452 3.42 1.895 4.44-2.452-3.432-1.895zm-4.589-2.534l-4.428 2.451 3.42 1.907 4.44-2.463-3.433-1.895zm-4.59-2.523l-4.428 2.452 3.42 1.895 4.44-2.452-3.432-1.895z" fill="#D3D3D3"/></g><defs><clipPath id="clip0"><path fill="#fff" d="M0 0h108.889v98H0z"/></clipPath></defs></svg>
