<svg width="163" height="103" fill="none" xmlns="http://www.w3.org/2000/svg"><path d="M144.417 33.815l.293 13.855 16.391-9.169-.293-13.847-16.391 9.161z" fill="#5BA0B2"/><path d="M144.418 33.815l.293 13.855-45.237-22.837-.293-13.847 45.237 22.83z" fill="#418899"/><path d="M160.809 24.654l-16.392 9.161-45.237-22.83 16.4-9.168 45.229 22.837z" fill="#2F747F"/><path d="M115.58 1.817l-16.4 9.169 45.229 22.83 16.4-9.162L115.58 1.817zm-14.094 9.12l14.12-7.895 42.905 21.66-14.119 7.896-42.906-21.66z" fill="#73B8C9"/><path d="M115.606 3.042l.251 11.876-3.072 1.725-11.299-5.706 14.12-7.895z" fill="#5BA0B2"/><path d="M115.605 3.042l.251 11.876 31.607 15.956 11.048-6.171-42.906-21.661z" fill="#418899"/><path d="M156.051 26.072l-11.66 6.518L103.7 12.055s.631-1.018 3.098-2.433c1.013-.585 1.506-1.516 1.923-2.507.465-1.113.934-1.999 2.035-2.7 1.077-.692 3.512-2.045 4.849-1.366 1.245.629 2.398 1.183 5.813 1.18 3.414-.005 4.277 1.302 5.888 2.813 1.611 1.51 5.985 3.07 9.335 3.159 3.35.089 5.852 1.11 7.34 3.019 1.487 1.902 2.602 3.027 5.106 3.766 2.505.739 6.34 4.22 8.517 8.23l-1.553.856z" fill="#DBB981"/><path d="M110.682 8.725l1.559 4.534 3.224-1.194-1.808-3.403-2.975.063z" fill="#F2D580"/><path d="M131.507 12.532l-6.68 2.76 1.575 2.501 6.58-3.572-1.475-1.689zm-15.088-2.741l-6.68 2.76 1.574 2.502 6.58-3.565-1.474-1.697z" fill="#F2977C"/><path d="M106.041 10.529l3.039.248-.59 1.42-3.447-.787.998-.881z" fill="#F2D5AA"/><path d="M129.145 9.522l-2.474 2.633-2.252-1.703 3.383-1.89 1.343.96z" fill="#F2D580"/><path d="M153.46 23.18l.486 3.408-2.325.316-.927-4.357 2.766.634z" fill="#F2977C"/><path d="M120.086 13.946l3.882 7.994 3.62-.838-1.64-4.022-3.462-3.801-2.4.667z" fill="#CC986A"/><path d="M121.013 9.694l7.979 8.988-4.052 1.959-4.913-9.51.986-1.437z" fill="#F2D5AA"/><path d="M141.931 21.78l2.708-3.322 3.684 1.033-3.116 5.12-3.276-2.83z" fill="#CC986A"/><path d="M136.676 21.2l8.252.015-2.875 4.026-6.201-1.208.824-2.834z" fill="#F2D580"/><path d="M137.139 17.665l-2.007 4.396 3.296 1.012 1.013-3.683-2.302-1.725z" fill="#F2D5AA"/><path d="M115.32 5.172l-5.284 1.147-.2 1.473 6.73-.394-1.246-2.226z" fill="#CC986A"/><path d="M117.772 5.774l-4.078.323 1.053 2.086 4.266.366.911-2.25-2.152-.525zm11.427 6.327l3.655-1.561 1.486 1.453-4.042 2.422-1.099-2.314z" fill="#F2D5AA"/><path d="M114.579 14.748l2.889 2.511-1.4.623-2.525-2.1 1.036-1.034z" fill="#CC986A"/><path d="M123.581 5.248l-1.306 1.565 1.362 1.052 1.503-1.645-1.559-.972zm19.576 21.789l1.632 3.65-2.595.055-2.298-3.11 3.261-.595z" fill="#F2D5AA"/><path d="M133.682 19.542l-2.645.056.819 4.33 2.174-.047-.348-4.339z" fill="#CC986A"/><path d="M144.803 15.334l-2.096 1.391.629.809 2.21-.275-.743-1.925z" fill="#F2D5AA"/><path d="M136.229 11.024l-.757 2.505 1.67.391 1.566-2.18-2.479-.716z" fill="#CC986A"/><path d="M137.425 12.407l1.058 3.494 3.326.128-1.426-3.685-2.958.063zm-.773 13.086l2.375 2.85-1.149.42-3.434-2.523 2.208-.747z" fill="#F2977C"/><path d="M147.832 45.922l.94-.522-.247-11.702-.94.53.247 11.694zm2.46-1.377l.94-.53-.248-11.693-.94.522.248 11.701zm2.467-1.376l.931-.53-.247-11.694-.932.522.248 11.702zm2.46-1.384l.94-.523-.248-11.694-.939.523.247 11.694zm2.212-13.071l.248 11.694.939-.522-.247-11.702-.94.53z" fill="#418899"/><path d="M124.419 44.815l.294 13.855 16.391-9.169-.293-13.847-16.392 9.161z" fill="#5BA0B2"/><path d="M124.42 44.815l.293 13.855-45.237-22.837-.293-13.847 45.237 22.83z" fill="#418899"/><path d="M140.811 35.654l-16.391 9.161-45.237-22.83 16.4-9.168 45.228 22.837z" fill="#2F747F"/><path d="M95.582 12.817l-16.4 9.169 45.23 22.83 16.399-9.162-45.229-22.837zm-14.094 9.12l14.12-7.895 42.906 21.66-14.12 7.896-42.906-21.66z" fill="#73B8C9"/><path d="M95.608 14.042l.251 11.876-3.072 1.725-11.299-5.706 14.12-7.895z" fill="#5BA0B2"/><path d="M95.607 14.042l.252 11.876 31.606 15.956 11.048-6.171-42.906-21.661z" fill="#418899"/><path d="M136.053 37.072l-11.66 6.518-40.69-20.535s.63-1.018 3.098-2.433c1.013-.585 1.505-1.516 1.923-2.507.464-1.113.933-1.999 2.034-2.7 1.077-.692 3.512-2.045 4.85-1.365 1.245.628 2.397 1.182 5.812 1.178 3.415-.004 4.277 1.303 5.888 2.814 1.612 1.51 5.985 3.07 9.336 3.159 3.35.089 5.852 1.11 7.339 3.019 1.487 1.902 2.602 3.027 5.107 3.766 2.504.739 6.34 4.22 8.516 8.23l-1.553.856z" fill="#DBB981"/><path d="M90.685 19.725l1.559 4.534 3.224-1.194-1.808-3.402-2.975.062z" fill="#F2D580"/><path d="M111.51 23.532l-6.68 2.76 1.574 2.501 6.58-3.572-1.474-1.689zm-15.089-2.741l-6.68 2.76 1.575 2.502 6.58-3.565-1.475-1.697z" fill="#F2977C"/><path d="M86.043 21.529l3.04.247-.59 1.421-3.448-.787.998-.881z" fill="#F2D5AA"/><path d="M109.148 20.522l-2.474 2.633-2.252-1.703 3.383-1.89 1.343.96z" fill="#F2D580"/><path d="M133.463 34.18l.485 3.408-2.324.316-.928-4.357 2.767.634z" fill="#F2977C"/><path d="M100.089 24.946l3.881 7.994 3.62-.838-1.639-4.022-3.462-3.801-2.4.667z" fill="#CC986A"/><path d="M101.016 20.694l7.978 8.988-4.051 1.959-4.914-9.51.987-1.437z" fill="#F2D5AA"/><path d="M121.933 32.78l2.708-3.322 3.685 1.033-3.117 5.12-3.276-2.83z" fill="#CC986A"/><path d="M116.679 32.2l8.251.015-2.874 4.026-6.202-1.208.825-2.834z" fill="#F2D580"/><path d="M117.142 28.665l-2.007 4.396 3.295 1.011 1.013-3.682-2.301-1.725z" fill="#F2D5AA"/><path d="M95.322 16.172l-5.284 1.146-.2 1.474 6.73-.394-1.246-2.226z" fill="#CC986A"/><path d="M97.774 16.774l-4.077.322 1.053 2.087 4.265.366.912-2.25-2.153-.525zm11.428 6.327l3.654-1.561 1.486 1.453-4.041 2.422-1.099-2.314z" fill="#F2D5AA"/><path d="M94.582 25.747l2.889 2.512-1.4.623-2.526-2.1 1.037-1.035z" fill="#CC986A"/><path d="M103.584 16.248l-1.306 1.565 1.361 1.052 1.503-1.645-1.558-.972zm19.576 21.789l1.631 3.65-2.595.055-2.298-3.11 3.262-.595z" fill="#F2D5AA"/><path d="M113.684 30.542l-2.644.056.819 4.33 2.173-.047-.348-4.339z" fill="#CC986A"/><path d="M124.805 26.334l-2.095 1.391.629.809 2.21-.275-.744-1.925z" fill="#F2D5AA"/><path d="M116.232 22.024l-.757 2.505 1.67.391 1.566-2.18-2.479-.716z" fill="#CC986A"/><path d="M117.427 23.407l1.058 3.494 3.326.128-1.425-3.685-2.959.063zm-.773 13.086l2.376 2.85-1.149.42-3.435-2.523 2.208-.747z" fill="#F2977C"/><path d="M127.835 56.922l.94-.522-.248-11.702-.94.53.248 11.694zm2.459-1.377l.94-.53-.247-11.693-.94.522.247 11.701zm2.467-1.376l.932-.53-.248-11.694-.931.522.247 11.702zm2.46-1.384l.94-.523-.247-11.694-.94.523.247 11.694zm2.213-13.071l.247 11.694.94-.522-.248-11.702-.939.53z" fill="#418899"/><path d="M104.878 54.945l.293 13.847 16.4-9.161-.293-13.855-16.4 9.17z" fill="#5BA0B2"/><path d="M104.878 54.945l.293 13.847-45.23-22.83-.292-13.847 45.229 22.83z" fill="#418899"/><path d="M121.277 45.776l-16.4 9.17-45.228-22.83 16.39-9.17 45.238 22.83z" fill="#2F747F"/><path d="M76.04 22.947l-16.392 9.168 45.229 22.83 16.4-9.169-45.237-22.83zm-14.094 9.12l14.12-7.895 42.905 21.653-14.12 7.895-42.905-21.653z" fill="#73B8C9"/><path d="M76.066 24.172l.251 11.876-3.072 1.717-11.299-5.698 14.12-7.895z" fill="#5BA0B2"/><path d="M76.066 24.172l.251 11.876 31.607 15.955 11.047-6.178-42.905-21.653z" fill="#418899"/><path d="M116.512 47.201l-11.66 6.52-40.691-20.536s.631-1.019 3.098-2.433c1.013-.585 1.506-1.516 1.923-2.507.465-1.114.933-1.999 2.035-2.7 1.077-.692 3.512-2.046 4.849-1.366 1.245.628 2.398 1.183 5.813 1.179 3.414-.004 4.277 1.302 5.888 2.813 1.611 1.511 5.985 3.07 9.335 3.16 3.35.088 5.852 1.109 7.34 3.018 1.487 1.902 2.602 3.028 5.106 3.767 2.504.738 6.34 4.22 8.517 8.23l-1.553.855z" fill="#DBB981"/><path d="M71.15 29.855l1.56 4.534 3.224-1.202-1.816-3.395-2.967.063z" fill="#F2D580"/><path d="M91.976 33.662l-6.68 2.76 1.566 2.501 6.588-3.572-1.474-1.69zm-15.089-2.741l-6.68 2.76 1.574 2.501 6.58-3.572-1.474-1.689z" fill="#F2977C"/><path d="M66.5 31.65l3.04.256-.59 1.42-3.44-.794.99-.881z" fill="#F2D5AA"/><path d="M89.614 30.652l-2.475 2.625-2.26-1.696 3.391-1.89 1.344.96z" fill="#F2D580"/><path d="M113.929 44.31l.486 3.408-2.334.308-.918-4.35 2.766.634z" fill="#F2977C"/><path d="M80.555 35.076l3.882 7.993 3.611-.845-1.63-4.022-3.463-3.801-2.4.675z" fill="#CC986A"/><path d="M81.474 30.824l7.978 8.98-4.043 1.966-4.914-9.517.979-1.429z" fill="#F2D5AA"/><path d="M102.398 42.902l2.708-3.315 3.677 1.034-3.108 5.12-3.277-2.839z" fill="#CC986A"/><path d="M97.136 42.321l8.26.016-2.875 4.026-6.201-1.2.816-2.842z" fill="#F2D580"/><path d="M97.6 38.795l-2 4.396 3.296 1.003L99.9 40.52l-2.302-1.724z" fill="#F2D5AA"/><path d="M75.789 26.294l-5.284 1.154-.208 1.474 6.73-.394-1.238-2.234z" fill="#CC986A"/><path d="M78.24 26.904l-4.086.322 1.06 2.079 4.267.374.911-2.25-2.152-.525zm11.427 6.319l3.646-1.553 1.486 1.445-4.033 2.43-1.099-2.322z" fill="#F2D5AA"/><path d="M75.04 35.877l2.897 2.504-1.409.624-2.516-2.094 1.028-1.034z" fill="#CC986A"/><path d="M84.041 26.37l-1.306 1.573 1.362 1.044 1.511-1.645-1.567-.972zm19.586 21.797l1.631 3.642-2.595.055-2.298-3.103 3.262-.594z" fill="#F2D5AA"/><path d="M94.141 40.664l-2.644.056.819 4.337 2.182-.046-.357-4.347z" fill="#CC986A"/><path d="M105.272 36.463l-2.104 1.384.629.817 2.218-.283-.743-1.918z" fill="#F2D5AA"/><path d="M96.69 32.154l-.75 2.497 1.67.39 1.559-2.179-2.48-.708z" fill="#CC986A"/><path d="M97.885 33.537l1.066 3.486 3.326.128-1.434-3.677-2.958.063zm-.774 13.085l2.376 2.85-1.149.42-3.427-2.53 2.2-.74z" fill="#F2977C"/><path d="M108.112 67.154l.94-.522-.248-11.702-.94.53.248 11.694zm2.46-1.376l.939-.522-.247-11.702-.94.53.248 11.694zm2.467-1.377l.931-.53-.247-11.694-.932.523.248 11.701zm2.46-1.384l.94-.522-.248-11.694-.94.522.248 11.694zm2.212-13.07l.247 11.694.94-.523-.247-11.701-.94.53z" fill="#418899"/><g style="mix-blend-mode:exclusion"><path d="M104.878 54.945l.293 13.847 16.4-9.161-.293-13.855-16.4 9.17z" fill="#5BA0B2"/><path d="M104.878 54.945l.293 13.847-45.23-22.83-.292-13.847 45.229 22.83z" fill="#418899"/><path d="M121.277 45.776l-16.4 9.17-45.228-22.83 16.39-9.17 45.238 22.83z" fill="#2F747F"/><path d="M76.04 22.947l-16.392 9.168 45.229 22.83 16.4-9.169-45.237-22.83zm-14.094 9.12l14.12-7.895 42.905 21.653-14.12 7.895-42.905-21.653z" fill="#73B8C9"/><path d="M76.066 24.172l.251 11.876-3.072 1.717-11.299-5.698 14.12-7.895z" fill="#5BA0B2"/><path d="M76.066 24.172l.251 11.876 31.607 15.955 11.047-6.178-42.905-21.653z" fill="#418899"/><path d="M116.512 47.201l-11.66 6.52-40.691-20.536s.631-1.019 3.098-2.433c1.013-.585 1.506-1.516 1.923-2.507.465-1.114.933-1.999 2.035-2.7 1.077-.692 3.512-2.046 4.849-1.366 1.245.628 2.398 1.183 5.813 1.179 3.414-.004 4.277 1.302 5.888 2.813 1.611 1.511 5.985 3.07 9.335 3.16 3.35.088 5.852 1.109 7.34 3.018 1.487 1.902 2.602 3.028 5.106 3.767 2.504.738 6.34 4.22 8.517 8.23l-1.553.855z" fill="#DBB981"/><path d="M71.15 29.855l1.56 4.534 3.224-1.202-1.816-3.395-2.967.063z" fill="#F2D580"/><path d="M91.976 33.662l-6.68 2.76 1.566 2.501 6.588-3.572-1.474-1.69zm-15.089-2.741l-6.68 2.76 1.574 2.501 6.58-3.572-1.474-1.689z" fill="#F2977C"/><path d="M66.5 31.65l3.04.256-.59 1.42-3.44-.794.99-.881z" fill="#F2D5AA"/><path d="M89.614 30.652l-2.475 2.625-2.26-1.696 3.391-1.89 1.344.96z" fill="#F2D580"/><path d="M113.929 44.31l.486 3.408-2.334.308-.918-4.35 2.766.634z" fill="#F2977C"/><path d="M80.555 35.076l3.882 7.993 3.611-.845-1.63-4.022-3.463-3.801-2.4.675z" fill="#CC986A"/><path d="M81.474 30.824l7.978 8.98-4.043 1.966-4.914-9.517.979-1.429z" fill="#F2D5AA"/><path d="M102.398 42.902l2.708-3.315 3.677 1.034-3.108 5.12-3.277-2.839z" fill="#CC986A"/><path d="M97.136 42.321l8.26.016-2.875 4.026-6.201-1.2.816-2.842z" fill="#F2D580"/><path d="M97.6 38.795l-2 4.396 3.296 1.003L99.9 40.52l-2.302-1.724z" fill="#F2D5AA"/><path d="M75.789 26.294l-5.284 1.154-.208 1.474 6.73-.394-1.238-2.234z" fill="#CC986A"/><path d="M78.24 26.904l-4.086.322 1.06 2.079 4.267.374.911-2.25-2.152-.525zm11.427 6.319l3.646-1.553 1.486 1.445-4.033 2.43-1.099-2.322z" fill="#F2D5AA"/><path d="M75.04 35.877l2.897 2.504-1.409.624-2.516-2.094 1.028-1.034z" fill="#CC986A"/><path d="M84.041 26.37l-1.306 1.573 1.362 1.044 1.511-1.645-1.567-.972zm19.586 21.797l1.631 3.642-2.595.055-2.298-3.103 3.262-.594z" fill="#F2D5AA"/><path d="M94.141 40.664l-2.644.056.819 4.337 2.182-.046-.357-4.347z" fill="#CC986A"/><path d="M105.272 36.463l-2.104 1.384.629.817 2.218-.283-.743-1.918z" fill="#F2D5AA"/><path d="M96.69 32.154l-.75 2.497 1.67.39 1.559-2.179-2.48-.708z" fill="#CC986A"/><path d="M97.885 33.537l1.066 3.486 3.326.128-1.434-3.677-2.958.063zm-.774 13.085l2.376 2.85-1.149.42-3.427-2.53 2.2-.74z" fill="#F2977C"/><path d="M108.112 67.154l.94-.522-.248-11.702-.94.53.248 11.694zm2.46-1.376l.939-.522-.247-11.702-.94.53.248 11.694zm2.467-1.377l.931-.53-.247-11.694-.932.523.248 11.701zm2.46-1.384l.94-.522-.248-11.694-.94.522.248 11.694zm2.212-13.07l.247 11.694.94-.523-.247-11.701-.94.53z" fill="#418899"/></g><path d="M85.42 65.815l.294 13.855 16.391-9.169-.293-13.847-16.391 9.161z" fill="#5BA0B2"/><path d="M85.422 65.815l.293 13.855-45.237-22.837-.293-13.847 45.237 22.83z" fill="#418899"/><path d="M101.813 56.654l-16.392 9.161-45.237-22.83 16.4-9.168 45.229 22.837z" fill="#2F747F"/><path d="M56.584 33.817l-16.4 9.169 45.229 22.83 16.4-9.162-45.23-22.837zm-14.094 9.12l14.12-7.895 42.905 21.66-14.12 7.896-42.905-21.66z" fill="#73B8C9"/><path d="M56.61 35.042l.25 11.876-3.071 1.725-11.3-5.706 14.12-7.895z" fill="#5BA0B2"/><path d="M56.609 35.042l.251 11.876 31.607 15.956 11.047-6.171L56.61 35.042z" fill="#418899"/><path d="M97.055 58.072l-11.66 6.519-40.691-20.536s.631-1.018 3.098-2.433c1.013-.585 1.506-1.516 1.923-2.507.464-1.113.933-1.999 2.035-2.7 1.077-.692 3.512-2.045 4.849-1.365 1.245.628 2.398 1.182 5.812 1.178 3.415-.004 4.278 1.303 5.889 2.814 1.611 1.51 5.985 3.07 9.335 3.159 3.35.089 5.852 1.11 7.34 3.019 1.487 1.902 2.602 3.027 5.106 3.766 2.504.739 6.34 4.22 8.517 8.23l-1.553.856z" fill="#DBB981"/><path d="M51.686 40.725l1.56 4.535 3.223-1.195-1.808-3.402-2.975.062z" fill="#F2D580"/><path d="M72.511 44.532l-6.68 2.76 1.575 2.501 6.58-3.572-1.475-1.689zm-15.088-2.741l-6.68 2.76 1.574 2.502 6.58-3.565-1.474-1.697z" fill="#F2977C"/><path d="M47.045 42.529l3.04.247-.59 1.421-3.448-.787.998-.881z" fill="#F2D5AA"/><path d="M70.15 41.522l-2.475 2.633-2.252-1.703 3.383-1.89 1.343.96z" fill="#F2D580"/><path d="M94.464 55.18l.486 3.408-2.325.316-.927-4.357 2.766.634z" fill="#F2977C"/><path d="M61.09 45.946l3.882 7.994 3.62-.838-1.64-4.022-3.462-3.801-2.4.667z" fill="#CC986A"/><path d="M62.017 41.694l7.979 8.988-4.052 1.959-4.914-9.51.987-1.437z" fill="#F2D5AA"/><path d="M82.935 53.78l2.707-3.322 3.685 1.033-3.116 5.12-3.276-2.83z" fill="#CC986A"/><path d="M77.68 53.2l8.252.015-2.875 4.026-6.201-1.208.824-2.834z" fill="#F2D580"/><path d="M78.143 49.665l-2.007 4.396 3.296 1.011 1.013-3.682-2.302-1.725z" fill="#F2D5AA"/><path d="M56.324 37.172l-5.284 1.147-.2 1.473 6.73-.394-1.246-2.227z" fill="#CC986A"/><path d="M58.776 37.774l-4.078.322 1.053 2.087 4.266.366.911-2.25-2.152-.525zm11.427 6.327l3.655-1.561 1.486 1.453-4.042 2.422-1.099-2.314z" fill="#F2D5AA"/><path d="M55.583 46.748l2.89 2.511-1.401.623-2.525-2.1 1.036-1.034z" fill="#CC986A"/><path d="M64.585 37.248l-1.306 1.565 1.362 1.052 1.503-1.645-1.559-.972zm19.576 21.789l1.632 3.65-2.595.055-2.298-3.11 3.261-.595z" fill="#F2D5AA"/><path d="M74.686 51.542l-2.645.056.82 4.33 2.173-.047-.349-4.339z" fill="#CC986A"/><path d="M85.806 47.334l-2.095 1.391.629.809 2.21-.275-.743-1.925z" fill="#F2D5AA"/><path d="M77.233 43.024l-.757 2.505 1.67.391 1.566-2.18-2.479-.716z" fill="#CC986A"/><path d="M78.429 44.407l1.058 3.494 3.326.128-1.426-3.685-2.958.063zm-.773 13.086l2.375 2.85-1.149.42-3.435-2.523 2.209-.747z" fill="#F2977C"/><path d="M88.836 77.922l.94-.522-.248-11.702-.94.53.248 11.694zm2.46-1.376l.94-.53-.248-11.694-.94.522.248 11.702zm2.467-1.377l.931-.53-.248-11.694-.931.522.248 11.702zm2.46-1.384l.94-.523-.248-11.694-.94.523.248 11.694zm2.212-13.071l.248 11.694.94-.522-.248-11.702-.94.53z" fill="#418899"/><g style="mix-blend-mode:exclusion"><path d="M85.42 65.815l.294 13.855 16.391-9.169-.293-13.847-16.391 9.161z" fill="#5BA0B2"/><path d="M85.422 65.815l.293 13.855-45.237-22.837-.293-13.847 45.237 22.83z" fill="#418899"/><path d="M101.813 56.654l-16.392 9.161-45.237-22.83 16.4-9.168 45.229 22.837z" fill="#2F747F"/><path d="M56.584 33.817l-16.4 9.169 45.229 22.83 16.4-9.162-45.23-22.837zm-14.094 9.12l14.12-7.895 42.905 21.66-14.12 7.896-42.905-21.66z" fill="#73B8C9"/><path d="M56.61 35.042l.25 11.876-3.071 1.725-11.3-5.706 14.12-7.895z" fill="#5BA0B2"/><path d="M56.609 35.042l.251 11.876 31.607 15.956 11.047-6.171L56.61 35.042z" fill="#418899"/><path d="M97.055 58.072l-11.66 6.519-40.691-20.536s.631-1.018 3.098-2.433c1.013-.585 1.506-1.516 1.923-2.507.464-1.113.933-1.999 2.035-2.7 1.077-.692 3.512-2.045 4.849-1.365 1.245.628 2.398 1.182 5.812 1.178 3.415-.004 4.278 1.303 5.889 2.814 1.611 1.51 5.985 3.07 9.335 3.159 3.35.089 5.852 1.11 7.34 3.019 1.487 1.902 2.602 3.027 5.106 3.766 2.504.739 6.34 4.22 8.517 8.23l-1.553.856z" fill="#DBB981"/><path d="M51.686 40.725l1.56 4.535 3.223-1.195-1.808-3.402-2.975.062z" fill="#F2D580"/><path d="M72.511 44.532l-6.68 2.76 1.575 2.501 6.58-3.572-1.475-1.689zm-15.088-2.741l-6.68 2.76 1.574 2.502 6.58-3.565-1.474-1.697z" fill="#F2977C"/><path d="M47.045 42.529l3.04.247-.59 1.421-3.448-.787.998-.881z" fill="#F2D5AA"/><path d="M70.15 41.522l-2.475 2.633-2.252-1.703 3.383-1.89 1.343.96z" fill="#F2D580"/><path d="M94.464 55.18l.486 3.408-2.325.316-.927-4.357 2.766.634z" fill="#F2977C"/><path d="M61.09 45.946l3.882 7.994 3.62-.838-1.64-4.022-3.462-3.801-2.4.667z" fill="#CC986A"/><path d="M62.017 41.694l7.979 8.988-4.052 1.959-4.914-9.51.987-1.437z" fill="#F2D5AA"/><path d="M82.935 53.78l2.707-3.322 3.685 1.033-3.116 5.12-3.276-2.83z" fill="#CC986A"/><path d="M77.68 53.2l8.252.015-2.875 4.026-6.201-1.208.824-2.834z" fill="#F2D580"/><path d="M78.143 49.665l-2.007 4.396 3.296 1.011 1.013-3.682-2.302-1.725z" fill="#F2D5AA"/><path d="M56.324 37.172l-5.284 1.147-.2 1.473 6.73-.394-1.246-2.227z" fill="#CC986A"/><path d="M58.776 37.774l-4.078.322 1.053 2.087 4.266.366.911-2.25-2.152-.525zm11.427 6.327l3.655-1.561 1.486 1.453-4.042 2.422-1.099-2.314z" fill="#F2D5AA"/><path d="M55.583 46.748l2.89 2.511-1.401.623-2.525-2.1 1.036-1.034z" fill="#CC986A"/><path d="M64.585 37.248l-1.306 1.565 1.362 1.052 1.503-1.645-1.559-.972zm19.576 21.789l1.632 3.65-2.595.055-2.298-3.11 3.261-.595z" fill="#F2D5AA"/><path d="M74.686 51.542l-2.645.056.82 4.33 2.173-.047-.349-4.339z" fill="#CC986A"/><path d="M85.806 47.334l-2.095 1.391.629.809 2.21-.275-.743-1.925z" fill="#F2D5AA"/><path d="M77.233 43.024l-.757 2.505 1.67.391 1.566-2.18-2.479-.716z" fill="#CC986A"/><path d="M78.429 44.407l1.058 3.494 3.326.128-1.426-3.685-2.958.063zm-.773 13.086l2.375 2.85-1.149.42-3.435-2.523 2.209-.747z" fill="#F2977C"/><path d="M88.836 77.922l.94-.522-.248-11.702-.94.53.248 11.694zm2.46-1.376l.94-.53-.248-11.694-.94.522.248 11.702zm2.467-1.377l.931-.53-.248-11.694-.931.522.248 11.702zm2.46-1.384l.94-.523-.248-11.694-.94.523.248 11.694zm2.212-13.071l.248 11.694.94-.522-.248-11.702-.94.53z" fill="#418899"/></g><path d="M65.754 77.842l.294 13.855 16.4-9.169-.294-13.855-16.4 9.17z" fill="#5BA0B2"/><path d="M65.754 77.842l.293 13.855L20.818 68.86l-.293-13.847 45.23 22.83z" fill="#418899"/><path d="M82.153 68.673l-16.4 9.17-45.228-22.83 16.39-9.17 45.238 22.83z" fill="#2F747F"/><path d="M36.916 45.844l-16.391 9.169 45.228 22.83 16.4-9.17-45.237-22.83zm-14.094 9.12l14.12-7.895 42.905 21.653-14.12 7.895-42.905-21.653z" fill="#73B8C9"/><path d="M36.942 47.069l.251 11.876-3.072 1.725-11.299-5.706 14.12-7.895z" fill="#5BA0B2"/><path d="M36.941 47.069l.252 11.876 31.606 15.956 11.048-6.179L36.94 47.07z" fill="#418899"/><path d="M77.537 70.065l-11.79 6.513-41.129-20.503s.639-1.017 3.133-2.43c1.025-.585 1.523-1.515 1.945-2.505.47-1.112.944-1.996 2.058-2.696 1.089-.692 3.551-2.044 4.903-1.365 1.258.627 2.424 1.18 5.875 1.176 3.452-.005 4.324 1.3 5.952 2.809 1.628 1.509 6.05 3.065 9.436 3.154 3.387.088 5.916 1.106 7.42 3.013 1.502 1.9 2.629 3.024 5.16 3.761 2.532.737 6.408 4.214 8.607 8.22l-1.57.853z" fill="#DBB981"/><path d="M31.678 52.748l1.575 4.529 3.26-1.194-1.827-3.398-3.008.063z" fill="#F2D580"/><path d="M52.73 56.547l-6.755 2.757 1.591 2.498 6.653-3.569-1.49-1.686zm-15.253-2.735l-6.753 2.758 1.59 2.498 6.654-3.562-1.49-1.694z" fill="#F2977C"/><path d="M26.985 54.55l3.072.247-.597 1.42-3.485-.786 1.01-.88z" fill="#F2D5AA"/><path d="M50.343 53.541l-2.502 2.63-2.276-1.7 3.42-1.89 1.358.96z" fill="#F2D580"/><path d="M74.92 67.178l.489 3.403-2.35.316-.936-4.352 2.796.633z" fill="#F2977C"/><path d="M41.184 57.96l3.921 7.984 3.66-.837-1.656-4.017-3.499-3.796-2.426.667z" fill="#CC986A"/><path d="M42.122 53.714l8.063 8.976-4.097 1.956-4.964-9.497.998-1.435z" fill="#F2D5AA"/><path d="M63.264 65.782l2.738-3.32 3.724 1.032-3.151 5.115-3.312-2.827z" fill="#CC986A"/><path d="M57.953 65.202l8.342.014-2.908 4.022-6.269-1.206.835-2.83z" fill="#F2D580"/><path d="M58.421 61.672l-2.03 4.392 3.331 1.009 1.026-3.678-2.327-1.723z" fill="#F2D5AA"/><path d="M36.368 49.198l-5.342 1.147-.203 1.471 6.803-.394-1.258-2.224z" fill="#CC986A"/><path d="M38.846 49.8l-4.122.322 1.063 2.084 4.313.365.922-2.247-2.176-.524zm11.551 6.317l3.694-1.56 1.502 1.45-4.086 2.42-1.11-2.31z" fill="#F2D5AA"/><path d="M35.615 58.762l2.92 2.508-1.416.623-2.552-2.098 1.048-1.033z" fill="#CC986A"/><path d="M44.72 49.273l-1.32 1.563 1.376 1.051 1.52-1.644-1.575-.97zm19.782 21.759l1.648 3.644-2.623.056-2.322-3.106 3.297-.594z" fill="#F2D5AA"/><path d="M54.925 63.548l-2.673.056.827 4.323 2.197-.046-.35-4.333z" fill="#CC986A"/><path d="M66.17 59.342l-2.12 1.39.636.808 2.235-.275-.751-1.923z" fill="#F2D5AA"/><path d="M57.503 55.04l-.766 2.502 1.688.39 1.584-2.177-2.506-.715z" fill="#CC986A"/><path d="M58.711 56.42l1.069 3.49 3.362.127-1.44-3.68-2.99.064zm-.785 13.07l2.4 2.846-1.161.42-3.472-2.52 2.233-.746z" fill="#F2977C"/><path d="M69.078 89.996l.94-.522-.247-11.694-.94.522.247 11.694zm2.459-1.376l.94-.522-.247-11.702-.94.53.247 11.694zm2.468-1.377l.94-.522-.248-11.702-.94.523.248 11.701zm2.46-1.376l.94-.53-.248-11.694-.94.522.248 11.702zm2.22-13.079l.247 11.695.94-.523-.247-11.694-.94.522z" fill="#418899"/><g style="mix-blend-mode:difference"><path d="M65.754 77.842l.294 13.855 16.4-9.169-.294-13.855-16.4 9.17z" fill="#5BA0B2"/><path d="M65.754 77.842l.293 13.855L20.818 68.86l-.293-13.847 45.23 22.83z" fill="#418899"/><path d="M82.153 68.673l-16.4 9.17-45.228-22.83 16.39-9.17 45.238 22.83z" fill="#2F747F"/><path d="M36.916 45.844l-16.391 9.169 45.228 22.83 16.4-9.17-45.237-22.83zm-14.094 9.12l14.12-7.895 42.905 21.653-14.12 7.895-42.905-21.653z" fill="#73B8C9"/><path d="M36.942 47.069l.251 11.876-3.072 1.725-11.299-5.706 14.12-7.895z" fill="#5BA0B2"/><path d="M36.941 47.069l.252 11.876 31.606 15.956 11.048-6.179L36.94 47.07z" fill="#418899"/><path d="M77.537 70.065l-11.79 6.513-41.129-20.503s.639-1.017 3.133-2.43c1.025-.585 1.523-1.515 1.945-2.505.47-1.112.944-1.996 2.058-2.696 1.089-.692 3.551-2.044 4.903-1.365 1.258.627 2.424 1.18 5.875 1.176 3.452-.005 4.324 1.3 5.952 2.809 1.628 1.509 6.05 3.065 9.436 3.154 3.387.088 5.916 1.106 7.42 3.013 1.502 1.9 2.629 3.024 5.16 3.761 2.532.737 6.408 4.214 8.607 8.22l-1.57.853z" fill="#DBB981"/><path d="M31.678 52.748l1.575 4.529 3.26-1.194-1.827-3.398-3.008.063z" fill="#F2D580"/><path d="M52.73 56.547l-6.755 2.757 1.591 2.498 6.653-3.569-1.49-1.686zm-15.253-2.735l-6.753 2.758 1.59 2.498 6.654-3.562-1.49-1.694z" fill="#F2977C"/><path d="M26.985 54.55l3.072.247-.597 1.42-3.485-.786 1.01-.88z" fill="#F2D5AA"/><path d="M50.343 53.541l-2.502 2.63-2.276-1.7 3.42-1.89 1.358.96z" fill="#F2D580"/><path d="M74.92 67.178l.489 3.403-2.35.316-.936-4.352 2.796.633z" fill="#F2977C"/><path d="M41.184 57.96l3.921 7.984 3.66-.837-1.656-4.017-3.499-3.796-2.426.667z" fill="#CC986A"/><path d="M42.122 53.714l8.063 8.976-4.097 1.956-4.964-9.497.998-1.435z" fill="#F2D5AA"/><path d="M63.264 65.782l2.738-3.32 3.724 1.032-3.151 5.115-3.312-2.827z" fill="#CC986A"/><path d="M57.953 65.202l8.342.014-2.908 4.022-6.269-1.206.835-2.83z" fill="#F2D580"/><path d="M58.421 61.672l-2.03 4.392 3.331 1.009 1.026-3.678-2.327-1.723z" fill="#F2D5AA"/><path d="M36.368 49.198l-5.342 1.147-.203 1.471 6.803-.394-1.258-2.224z" fill="#CC986A"/><path d="M38.846 49.8l-4.122.322 1.063 2.084 4.313.365.922-2.247-2.176-.524zm11.551 6.317l3.694-1.56 1.502 1.45-4.086 2.42-1.11-2.31z" fill="#F2D5AA"/><path d="M35.615 58.762l2.92 2.508-1.416.623-2.552-2.098 1.048-1.033z" fill="#CC986A"/><path d="M44.72 49.273l-1.32 1.563 1.376 1.051 1.52-1.644-1.575-.97zm19.782 21.759l1.648 3.644-2.623.056-2.322-3.106 3.297-.594z" fill="#F2D5AA"/><path d="M54.925 63.548l-2.673.056.827 4.323 2.197-.046-.35-4.333z" fill="#CC986A"/><path d="M66.17 59.342l-2.12 1.39.636.808 2.235-.275-.751-1.923z" fill="#F2D5AA"/><path d="M57.503 55.04l-.766 2.502 1.688.39 1.584-2.177-2.506-.715z" fill="#CC986A"/><path d="M58.711 56.42l1.069 3.49 3.362.127-1.44-3.68-2.99.064zm-.785 13.07l2.4 2.846-1.161.42-3.472-2.52 2.233-.746z" fill="#F2977C"/><path d="M69.078 89.996l.94-.522-.247-11.694-.94.522.247 11.694zm2.459-1.376l.94-.522-.247-11.702-.94.53.247 11.694zm2.468-1.377l.94-.522-.248-11.702-.94.523.248 11.701zm2.46-1.376l.94-.53-.248-11.694-.94.522.248 11.702zm2.22-13.079l.247 11.695.94-.523-.247-11.694-.94.522z" fill="#418899"/></g><path d="M46.506 87.442l.293 13.855 16.4-9.17-.293-13.854-16.4 9.169z" fill="#5BA0B2"/><path d="M46.506 87.442l.293 13.855-45.23-22.838-.292-13.847 45.229 22.83z" fill="#418899"/><path d="M62.906 78.273l-16.4 9.169-45.228-22.83 16.391-9.169 45.237 22.83z" fill="#2F747F"/><path d="M17.67 55.443l-16.392 9.17 45.229 22.829 16.4-9.17-45.238-22.829zm-14.086 9.12l14.12-7.895L60.6 78.329l-14.12 7.888L3.584 64.563z" fill="#73B8C9"/><path d="M17.703 56.668l.252 11.877-3.08 1.724-11.291-5.706 14.12-7.895z" fill="#5BA0B2"/><path d="M17.703 56.668l.251 11.877L49.553 84.5 60.6 78.33 17.703 56.667z" fill="#418899"/><path d="M58.249 79.453l-11.774 6.542-41.18-20.4s.637-1.019 3.127-2.438c1.023-.587 1.52-1.519 1.94-2.51.466-1.113.938-1.998 2.05-2.701 1.087-.695 3.546-2.053 4.9-1.377 1.26.624 2.426 1.174 5.878 1.161 3.452-.013 4.327 1.29 5.959 2.794 1.632 1.505 6.056 3.05 9.444 3.13 3.387.08 5.918 1.093 7.426 2.996 1.507 1.895 2.637 3.017 5.17 3.748 2.534.73 6.419 4.197 8.628 8.197l-1.568.858z" fill="#DBB981"/><path d="M12.347 62.25l1.586 4.525 3.256-1.202-1.835-3.393-3.007.07z" fill="#F2D580"/><path d="M33.407 65.997L26.66 68.77l1.597 2.494 6.644-3.585-1.494-1.683zM18.149 63.3l-6.747 2.774 1.597 2.494 6.644-3.578-1.494-1.69z" fill="#F2977C"/><path d="M7.658 64.064l3.073.24-.593 1.42-3.487-.777 1.007-.883z" fill="#F2D5AA"/><path d="M31.014 62.997l-2.496 2.636-2.28-1.695 3.416-1.898 1.36.957z" fill="#F2D580"/><path d="M55.624 76.573l.498 3.402-2.35.321-.946-4.35 2.798.627z" fill="#F2977C"/><path d="M21.866 67.44l3.94 7.973 3.659-.847-1.666-4.013-3.508-3.787-2.425.673z" fill="#CC986A"/><path d="M22.793 63.19l8.085 8.956-4.091 1.966-4.988-9.484.994-1.438z" fill="#F2D5AA"/><path d="M43.965 75.205l2.73-3.326 3.727 1.023-3.139 5.122-3.318-2.819z" fill="#CC986A"/><path d="M38.653 74.639l8.342-.007-2.898 4.03-6.272-1.19.828-2.833z" fill="#F2D580"/><path d="M39.112 71.108l-2.02 4.396 3.334 1.001 1.017-3.68-2.33-1.717z" fill="#F2D5AA"/><path d="M17.028 58.689l-5.34 1.16-.198 1.472 6.802-.412-1.264-2.22z" fill="#CC986A"/><path d="M19.507 59.284l-4.121.333 1.069 2.08 4.313.355.916-2.249-2.177-.519zm11.566 6.289l3.691-1.57 1.506 1.447-4.08 2.43-1.116-2.307z" fill="#F2D5AA"/><path d="M16.3 68.255l2.925 2.5-1.414.627-2.557-2.092 1.045-1.035z" fill="#CC986A"/><path d="M25.38 58.743l-1.316 1.566 1.378 1.048 1.516-1.648-1.577-.966zm19.836 21.709l1.658 3.64-2.623.063-2.33-3.1 3.295-.603z" fill="#F2D5AA"/><path d="M35.621 72.992l-2.673.063.837 4.321 2.197-.051-.36-4.333z" fill="#CC986A"/><path d="M46.855 68.759l-2.116 1.395.638.806 2.233-.28-.755-1.921z" fill="#F2D5AA"/><path d="M38.178 64.478l-.76 2.504 1.689.386 1.578-2.182-2.507-.708z" fill="#CC986A"/><path d="M39.39 65.856l1.076 3.487 3.363.118-1.45-3.676-2.99.07zm-.754 13.071l2.407 2.84-1.16.422-3.478-2.51 2.23-.752z" fill="#F2977C"/><path d="M49.83 99.596l.94-.522-.247-11.694-.94.522.247 11.694zm2.468-1.376l.931-.523-.247-11.701-.932.53.248 11.693zm2.46-1.377l.94-.523-.248-11.701-.94.53.248 11.694zm2.459-1.377l.94-.53-.248-11.694-.94.523.248 11.701zm2.22-13.078l.247 11.694.94-.522-.247-11.694-.94.522z" fill="#418899"/><g style="mix-blend-mode:difference"><path d="M46.506 87.442l.293 13.855 16.4-9.17-.293-13.854-16.4 9.169z" fill="#5BA0B2"/><path d="M46.506 87.442l.293 13.855-45.23-22.838-.292-13.847 45.229 22.83z" fill="#418899"/><path d="M62.906 78.273l-16.4 9.169-45.228-22.83 16.391-9.169 45.237 22.83z" fill="#2F747F"/><path d="M17.67 55.443l-16.392 9.17 45.229 22.829 16.4-9.17-45.238-22.829zm-14.086 9.12l14.12-7.895L60.6 78.329l-14.12 7.888L3.584 64.563z" fill="#73B8C9"/><path d="M17.703 56.668l.252 11.877-3.08 1.724-11.291-5.706 14.12-7.895z" fill="#5BA0B2"/><path d="M17.703 56.668l.251 11.877L49.553 84.5 60.6 78.33 17.703 56.667z" fill="#418899"/><path d="M58.249 79.453l-11.774 6.542-41.18-20.4s.637-1.019 3.127-2.438c1.023-.587 1.52-1.519 1.94-2.51.466-1.113.938-1.998 2.05-2.701 1.087-.695 3.546-2.053 4.9-1.377 1.26.624 2.426 1.174 5.878 1.161 3.452-.013 4.327 1.29 5.959 2.794 1.632 1.505 6.056 3.05 9.444 3.13 3.387.08 5.918 1.093 7.426 2.996 1.507 1.895 2.637 3.017 5.17 3.748 2.534.73 6.419 4.197 8.628 8.197l-1.568.858z" fill="#DBB981"/><path d="M12.347 62.25l1.586 4.525 3.256-1.202-1.835-3.393-3.007.07z" fill="#F2D580"/><path d="M33.407 65.997L26.66 68.77l1.597 2.494 6.644-3.585-1.494-1.683zM18.149 63.3l-6.747 2.774 1.597 2.494 6.644-3.578-1.494-1.69z" fill="#F2977C"/><path d="M7.658 64.064l3.073.24-.593 1.42-3.487-.777 1.007-.883z" fill="#F2D5AA"/><path d="M31.014 62.997l-2.496 2.636-2.28-1.695 3.416-1.898 1.36.957z" fill="#F2D580"/><path d="M55.624 76.573l.498 3.402-2.35.321-.946-4.35 2.798.627z" fill="#F2977C"/><path d="M21.866 67.44l3.94 7.973 3.659-.847-1.666-4.013-3.508-3.787-2.425.673z" fill="#CC986A"/><path d="M22.793 63.19l8.085 8.956-4.091 1.966-4.988-9.484.994-1.438z" fill="#F2D5AA"/><path d="M43.965 75.205l2.73-3.326 3.727 1.023-3.139 5.122-3.318-2.819z" fill="#CC986A"/><path d="M38.653 74.639l8.342-.007-2.898 4.03-6.272-1.19.828-2.833z" fill="#F2D580"/><path d="M39.112 71.108l-2.02 4.396 3.334 1.001 1.017-3.68-2.33-1.717z" fill="#F2D5AA"/><path d="M17.028 58.689l-5.34 1.16-.198 1.472 6.802-.412-1.264-2.22z" fill="#CC986A"/><path d="M19.507 59.284l-4.121.333 1.069 2.08 4.313.355.916-2.249-2.177-.519zm11.566 6.289l3.691-1.57 1.506 1.447-4.08 2.43-1.116-2.307z" fill="#F2D5AA"/><path d="M16.3 68.255l2.925 2.5-1.414.627-2.557-2.092 1.045-1.035z" fill="#CC986A"/><path d="M25.38 58.743l-1.316 1.566 1.378 1.048 1.516-1.648-1.577-.966zm19.836 21.709l1.658 3.64-2.623.063-2.33-3.1 3.295-.603z" fill="#F2D5AA"/><path d="M35.621 72.992l-2.673.063.837 4.321 2.197-.051-.36-4.333z" fill="#CC986A"/><path d="M46.855 68.759l-2.116 1.395.638.806 2.233-.28-.755-1.921z" fill="#F2D5AA"/><path d="M38.178 64.478l-.76 2.504 1.689.386 1.578-2.182-2.507-.708z" fill="#CC986A"/><path d="M39.39 65.856l1.076 3.487 3.363.118-1.45-3.676-2.99.07zm-.754 13.071l2.407 2.84-1.16.422-3.478-2.51 2.23-.752z" fill="#F2977C"/><path d="M49.83 99.596l.94-.522-.247-11.694-.94.522.247 11.694zm2.468-1.376l.931-.523-.247-11.701-.932.53.248 11.693zm2.46-1.377l.94-.523-.248-11.701-.94.53.248 11.694zm2.459-1.377l.94-.53-.248-11.694-.94.523.248 11.701zm2.22-13.078l.247 11.694.94-.522-.247-11.694-.94.522z" fill="#418899"/></g></svg>
