<svg width="76" height="77" viewBox="0 0 76 77" fill="none" xmlns="http://www.w3.org/2000/svg">
<path d="M33.0859 4.33552C35.2601 -0.216563 41.7399 -0.216562 43.9141 4.33552L73.8033 66.9141C75.7053 70.8962 72.8022 75.5 68.3892 75.5H8.61085C4.19778 75.5 1.29473 70.8962 3.19671 66.9141L33.0859 4.33552Z" fill="#A90533"/>
<g filter="url(#filter0_i)">
<path d="M6.09017 76.5H69.9098C73.9984 76.5 76.6577 72.1973 74.8292 68.5403L42.9194 4.72068C40.8925 0.666911 35.1075 0.666896 33.0807 4.72066L1.17082 68.5403C-0.657653 72.1973 2.00157 76.5 6.09017 76.5ZM34.8636 59.7321V58.5837C34.8636 56.8516 36.2678 55.4474 38 55.4474C39.7322 55.4474 41.1364 56.8516 41.1364 58.5837V59.7321C41.1364 61.4642 39.7322 62.8684 38 62.8684C36.2678 62.8684 34.8636 61.4642 34.8636 59.7321ZM34.8636 42.89V33.3206C34.8636 31.5884 36.2678 30.1842 38 30.1842C39.7322 30.1842 41.1364 31.5884 41.1364 33.3206V42.89C41.1364 44.6221 39.7322 46.0263 38 46.0263C36.2678 46.0263 34.8636 44.6221 34.8636 42.89Z" stroke="#004785" stroke-linejoin="round"/>
</g>
<path d="M41.6363 59.732C41.6363 61.7404 40.0082 63.3684 37.9999 63.3684C35.9916 63.3684 34.3635 61.7404 34.3635 59.732V58.5837C34.3635 56.5754 35.9916 54.9474 37.9999 54.9474C40.0082 54.9474 41.6363 56.5754 41.6363 58.5837V59.732ZM41.6363 42.8899C41.6363 44.8983 40.0082 46.5263 37.9999 46.5263C35.9916 46.5263 34.3635 44.8983 34.3635 42.8899V33.3206C34.3635 31.3123 35.9916 29.6842 37.9999 29.6842C40.0082 29.6842 41.6363 31.3123 41.6363 33.3206V42.8899Z" fill="white"/>
<defs>
<filter id="filter0_i" x="0.0825195" y="1.1803" width="75.8351" height="79.8197" filterUnits="userSpaceOnUse" color-interpolation-filters="sRGB">
<feFlood flood-opacity="0" result="BackgroundImageFix"/>
<feBlend mode="normal" in="SourceGraphic" in2="BackgroundImageFix" result="shape"/>
<feColorMatrix in="SourceAlpha" type="matrix" values="0 0 0 0 0 0 0 0 0 0 0 0 0 0 0 0 0 0 127 0" result="hardAlpha"/>
<feOffset dy="4"/>
<feGaussianBlur stdDeviation="2"/>
<feComposite in2="hardAlpha" operator="arithmetic" k2="-1" k3="1"/>
<feColorMatrix type="matrix" values="0 0 0 0 0 0 0 0 0 0 0 0 0 0 0 0 0 0 0.25 0"/>
<feBlend mode="normal" in2="shape" result="effect1_innerShadow"/>
</filter>
</defs>
</svg>
