<svg width="114" height="67" fill="none" xmlns="http://www.w3.org/2000/svg">
<path d="M34.807 57.72v.86l.826.36v-1.58l-.826.36zm2.074-.903v2.668l.826.36v-3.39l-.826.362zm2.073-.904v4.477l.828.36v-5.198l-.828.36zm2.074-.905v6.285l.826.361v-7.006l-.826.36zm2.074-.205V62.2l.826.36v-7.395l-.826-.36zm2.073.906v7.395l.827.36v-7.396l-.827-.36zm2.074.904v7.395l.826.36v-7.395l-.826-.36zm2.074.905v7.394l.826.361v-7.395l-.826-.36zm2.072.905v6.852l.828-.36v-6.133l-.828-.36zm2.075.904v5.044l.826-.36v-4.324l-.827-.36zm2.074 4.14l.826-.36v-2.514l-.826-.361v3.235zm2.9-1.264v-.707l-.828-.36v1.427l.828-.36z" fill="#F1CB18"/>
<path d="M42.3 53.619l-10.393 4.53 18.867 8.231 10.393-4.53L42.3 53.62zm8.474 12.23l-17.65-7.699 9.176-4 17.65 7.701-9.176 3.998z" fill="#F1CB18"/>
<path opacity=".2" d="M99.956 55.04l-4.778-2.1 1.69-.743-9.749-4.326-1.735.762-10.558-4.641 1.493-.657-9.75-4.327-1.538.677-10.748-4.725-17.296 7.676 10.666 4.689-6.827 3.002 9.75 4.326 6.872-3.021 10.559 4.642-6.63 2.915 9.748 4.327 6.677-2.935 4.857 2.136 17.297-7.677z" fill="#404091"/>
<path d="M23.128 30.02L.01 19.76v23.537l23.118 10.166V30.019z" fill="#D3D3D3"/>
<path d="M44.955 0L0 19.766l23.118 10.26L68.183 10.21 44.955 0z" fill="#73B8C9"/>
<path d="M68.184 10.21L23.118 30.026l.007 23.437 45.06-19.715V10.211zm41.107 30.975v11.94l1.483-.646v-11.94l-1.483.646z" fill="#E0E4E4"/>
<path d="M109.291 41.185v11.94l-44.423-19.44v-11.94l44.423 19.44z" fill="#D3D3D3"/>
<path d="M110.774 40.538l-1.483.647-44.423-19.44 1.483-.648 44.423 19.441z" fill="#F5F6F7"/>
<path d="M84.865 42.822v5.224l-.275-.12v-5.225l.275.121z" fill="#568BC8"/>
<path d="M84.865 42.822v5.224l.251-.108v-5.226l-.25.11z" fill="#D3D3D3"/>
<path d="M84.59 42.701l.275.121.25-.11-.276-.12-.25.11z" fill="#86B7E2"/>
<path d="M76.755 46.36v5.223l-.276-.12v-5.225l.276.121z" fill="#568BC8"/>
<path d="M76.755 46.36v5.223l.25-.108v-5.226l-.25.11z" fill="#D3D3D3"/>
<path d="M76.48 46.238l.275.121.25-.11-.276-.12-.25.11z" fill="#86B7E2"/>
<path d="M72.946 48.023v5.225l-.276-.12v-5.225l.276.12z" fill="#568BC8"/>
<path d="M72.946 48.023v5.225l.25-.11v-5.225l-.25.11z" fill="#D3D3D3"/>
<path d="M72.67 47.903l.276.12.25-.11-.276-.12-.25.11z" fill="#86B7E2"/>
<path d="M69.137 49.68v5.225l-.275-.12V49.56l.275.12z" fill="#568BC8"/>
<path d="M69.137 49.68v5.225l.25-.11V49.57l-.25.11z" fill="#D3D3D3"/>
<path d="M68.862 49.56l.275.12.25-.11-.276-.12-.25.11z" fill="#86B7E2"/>
<path d="M90.642 52.954l-1.018-.586 1.018-.442v1.028zm-14.836 5.831l11.502-4.947-.62-.375-10.882 4.901v.422z" fill="#250920"/>
<path d="M87.902 55.465c-.004-.003-.01-.005-.014-.009l-.036-.024a.515.515 0 01-.045-.036l-.01-.01a.167.167 0 01-.028-.025c-.004-.004-.008-.007-.01-.011a.304.304 0 01-.028-.03l-.007-.008-.034-.042a.55.55 0 01-.03-.045l-.004-.007-.021-.038a.045.045 0 01-.006-.011l-.01-.024-.017-.038c-.002-.008-.007-.016-.01-.026l-.01-.032-.008-.03-.008-.028-.009-.033c0-.008-.004-.017-.005-.026-.003-.013-.004-.025-.005-.036l-.004-.025-.005-.044v-.018a.998.998 0 01-.004-.066c0-.021 0-.043.002-.064l.001-.022.004-.046.003-.024c.001-.016.004-.031.007-.048l.002-.02a15.983 15.983 0 01.015-.076l.014-.06a.174.174 0 01.007-.024l.013-.046.008-.027a.572.572 0 01.025-.07l.017-.049.008-.022a1.49 1.49 0 01.03-.07l.003-.005.03-.064.01-.02.025-.048.012-.023.028-.05.009-.018c.014-.022.026-.045.04-.066.005-.005.008-.011.012-.017l.032-.05.024-.037a2.05 2.05 0 01.094-.127l.025-.03.03-.038.027-.032.03-.037.021-.024.091-.097.001-.001.067-.067.053-.05.01-.01c.022-.02.044-.04.066-.058l.019-.016c.016-.013.03-.027.047-.039l.027-.022a.587.587 0 01.042-.031l.03-.023.04-.03.033-.022.041-.028.033-.021c.013-.01.027-.018.042-.027a.556.556 0 01.032-.02l.045-.026.03-.018.049-.026c.008-.004.016-.01.026-.014l.074-.037.005-.002.078-.036.069-.029.026-.01.051-.02.023-.008.074-.023.072-.021.023-.006a.764.764 0 01.048-.011l.029-.007a.877.877 0 01.043-.008l.029-.005.04-.006.033-.004.038-.003.034-.003.032-.001.041-.001h.061l.053.004h.015l.057.008.015.003a.69.69 0 01.045.008l.021.005.036.01a.47.47 0 01.042.013l.02.006.06.024-1.518-.667a.948.948 0 00-.06-.023l-.02-.006c-.223-.073-.484-.058-.71-.001a2.347 2.347 0 00-.63.264l-.017.01-.032.02c-.683.426-1.174 1.098-1.237 1.769-.022.23.01.495.179.694l.002.002c.003.003.006.005.007.008l.027.03.011.011c.01.008.018.017.027.026l.011.009.04.032.005.004.037.024.013.008.033.019.013.007.048.023 1.516.666a1.022 1.022 0 01-.047-.023l-.014-.007c-.013-.004-.024-.011-.035-.017z" fill="#40363B"/>
<path d="M89.118 52.668c-.88.383-1.589 1.312-1.586 2.074.003.763.718 1.07 1.595.687.88-.384 1.589-1.312 1.586-2.075-.003-.761-.718-1.069-1.595-.686z" fill="#4E444A"/>
<path d="M89.172 53.204c-.543.236-.986.79-1.034 1.27a.957.957 0 00-.004.088c.001.499.47.7 1.044.45.576-.251 1.04-.86 1.038-1.36a.546.546 0 00-.005-.082c-.05-.437-.498-.602-1.04-.366z" fill="#BBBDBF"/>
<path d="M89.172 53.45c-.395.173-.718.576-.752.925-.002.022-.002.042-.002.064.001.363.342.51.76.327.417-.183.756-.625.755-.988a.442.442 0 00-.004-.06c-.037-.319-.362-.44-.757-.267z" fill="#929497"/>
<path d="M89.929 53.717c-.031-.263-.26-.391-.562-.33.235-.004.402.121.429.346.002.02.004.04.004.06.001.363-.337.806-.756.988a1.03 1.03 0 01-.196.064.855.855 0 00.328-.08c.418-.182.757-.624.755-.987a.3.3 0 00-.002-.06z" fill="#D0D2D3"/>
<path d="M89.46 54.178a.084.084 0 01.06-.004c.033.015.033.062 0 .105a.155.155 0 01-.06.048c-.022.01-.044.012-.06.005-.034-.014-.034-.061 0-.104a.14.14 0 01.06-.05zm-.334-.238c.107-.045.194-.009.194.085 0 .092-.085.206-.193.252-.107.046-.194.009-.194-.084s.086-.206.193-.252zm.003.503c.047-.02.085-.004.085.037 0 .04-.038.09-.085.11-.048.021-.086.005-.086-.036 0-.041.038-.09.086-.111zm-.334.025c.022-.01.043-.013.06-.006.033.015.033.062 0 .105a.162.162 0 01-.06.048.075.075 0 01-.06.004c-.034-.014-.034-.061 0-.104a.172.172 0 01.06-.047zm.663-.867c.022-.009.044-.012.06-.005.034.015.034.062 0 .105a.154.154 0 01-.06.048.083.083 0 01-.06.005c-.033-.014-.033-.061 0-.104a.129.129 0 01.06-.049zm-.332.173c-.048.02-.086.004-.086-.037 0-.041.038-.09.086-.11.047-.021.085-.005.085.036-.001.04-.04.09-.085.11zm-.333.265a.075.075 0 01-.06.004c-.033-.014-.033-.061 0-.104a.164.164 0 01.06-.049c.022-.009.044-.012.06-.005.034.015.034.062 0 .105a.148.148 0 01-.06.049zm.718-.099c0-.04.038-.09.086-.11.047-.02.085-.004.085.037 0 .04-.038.09-.085.11-.046.021-.086.005-.086-.036zm-.854.3c.047-.02.085-.004.085.037 0 .04-.038.09-.084.11-.047.021-.085.005-.085-.036 0-.041.038-.09.084-.111z" fill="#3A3D3F"/>
<path d="M84.548 56.927l-.014-.008a11.686 11.686 0 01-.037-.024c0-.002-.004-.004-.005-.005a.513.513 0 01-.04-.031l-.01-.01a.163.163 0 01-.027-.025l-.011-.011a.304.304 0 01-.027-.03c-.003-.003-.006-.005-.007-.008-.01-.014-.023-.028-.034-.042a.596.596 0 01-.03-.045l-.004-.008-.022-.038a.042.042 0 01-.005-.01l-.01-.024-.017-.038-.01-.026c-.004-.011-.008-.021-.01-.033l-.008-.029-.009-.028-.007-.033c0-.008-.003-.017-.005-.027-.003-.012-.004-.024-.005-.035l-.004-.025-.004-.044-.002-.019a1.03 1.03 0 01-.002-.065v-.065l.002-.021.004-.046.003-.024a.397.397 0 01.007-.048c.001-.006.001-.014.003-.02a15.983 15.983 0 01.014-.076l.014-.06.007-.025a.618.618 0 01.013-.046l.008-.026a.544.544 0 01.025-.071l.017-.048.009-.023.028-.07.003-.005c.01-.021.019-.043.03-.063a.075.075 0 01.01-.02l.025-.049.012-.022.027-.05.01-.018c.013-.023.025-.045.04-.067.005-.005.007-.01.011-.016l.033-.051.024-.036.025-.035c.021-.03.044-.061.069-.092l.024-.031.03-.037c.01-.011.02-.021.027-.033l.031-.037.02-.023c.03-.033.06-.066.092-.098h.001l.067-.067.052-.05.011-.01.065-.058.02-.017c.016-.013.03-.026.047-.038l.027-.022.042-.033.03-.022.04-.03.033-.023.04-.027.033-.022.042-.026a.29.29 0 01.033-.02c.015-.01.03-.017.045-.026l.03-.018.048-.027.026-.013.075-.038.005-.002a2.8 2.8 0 01.078-.036l.069-.029.026-.01.051-.02.023-.007.073-.024.072-.02.023-.007c.017-.004.033-.008.05-.01l.028-.007a.792.792 0 01.043-.008l.028-.005.041-.007c.011 0 .022-.003.033-.004l.038-.003.034-.003h.032l.04-.002.056.001h.006a.945.945 0 01.053.004l.015.001a.558.558 0 01.057.008l.015.003.044.008.022.005.035.01a.451.451 0 01.043.013l.02.006.06.023-1.518-.666a.951.951 0 00-.06-.024l-.02-.006a1.327 1.327 0 00-.71 0 2.348 2.348 0 00-.63.264l-.017.01-.032.02c-.683.426-1.174 1.097-1.238 1.768-.021.231.011.495.18.694 0 .001 0 .002.002.002.003.003.006.005.007.009l.027.03.011.01.027.026.01.01.04.031.006.004.036.025.014.008.032.019.014.007.047.022 1.517.666a1.018 1.018 0 01-.047-.022l-.014-.007a.237.237 0 01-.035-.018z" fill="#40363B"/>
<path d="M85.763 54.13c-.879.383-1.589 1.312-1.586 2.075.003.762.718 1.07 1.595.686.88-.383 1.589-1.311 1.586-2.074-.002-.762-.717-1.07-1.595-.687z" fill="#4E444A"/>
<path d="M85.817 54.667c-.542.237-.986.79-1.033 1.271a.926.926 0 00-.004.087c.001.5.47.701 1.044.45.575-.25 1.04-.859 1.038-1.358a.562.562 0 00-.005-.083c-.05-.438-.498-.603-1.04-.367z" fill="#BBBDBF"/>
<path d="M85.817 54.913c-.394.173-.717.575-.751.925-.003.021-.003.042-.003.063.001.363.342.51.76.327.417-.182.757-.625.755-.988a.442.442 0 00-.004-.06c-.037-.318-.362-.439-.757-.267z" fill="#929497"/>
<path d="M86.574 55.18c-.031-.264-.259-.392-.56-.33.235-.004.401.12.428.345.003.02.005.04.005.06.001.363-.337.806-.756.989a.974.974 0 01-.197.063.873.873 0 00.329-.078c.417-.182.757-.625.755-.988a.436.436 0 00-.004-.061z" fill="#D0D2D3"/>
<path d="M86.105 55.641c.022-.01.043-.012.06-.005.033.014.033.061 0 .104a.164.164 0 01-.06.049c-.022.009-.044.011-.06.004-.034-.015-.034-.062 0-.105a.15.15 0 01.06-.047zm-.334-.238c.107-.046.194-.009.194.084s-.085.206-.192.252c-.108.047-.194.01-.194-.084 0-.092.085-.206.192-.252zm.003.502c.047-.02.085-.004.085.037 0 .041-.038.09-.085.111-.047.02-.085.004-.085-.037 0-.04.038-.09.085-.11zm-.334.025a.083.083 0 01.06-.005c.034.014.034.061 0 .104a.161.161 0 01-.06.049.082.082 0 01-.06.005c-.033-.015-.033-.062 0-.105a.163.163 0 01.06-.048zm.663-.866c.022-.01.044-.012.06-.005.034.014.034.061 0 .104a.163.163 0 01-.06.049c-.021.009-.043.012-.06.005-.033-.015-.033-.062 0-.105a.137.137 0 01.06-.048zm-.332.172c-.047.021-.085.005-.085-.036 0-.041.037-.09.085-.111.047-.02.085-.004.085.037 0 .04-.039.09-.085.11zm-.332.266a.085.085 0 01-.06.004c-.034-.015-.034-.062 0-.105a.153.153 0 01.06-.048c.022-.01.043-.012.06-.004.034.014.034.061 0 .104a.154.154 0 01-.06.049zm.717-.099c0-.04.038-.09.086-.11.047-.02.085-.005.085.037 0 .04-.038.09-.084.11-.047.02-.087.004-.087-.037zm-.854.299c.047-.02.085-.004.085.037 0 .041-.038.09-.084.111-.047.02-.085.004-.085-.037 0-.04.038-.09.084-.11z" fill="#3A3D3F"/>
<path d="M75.035 58l-5.752-2.462 16.349-7.119 5.751 2.462-16.348 7.12z" fill="#3C3E4A"/>
<path d="M75.893 58.026l.004-.002.008-.002.006-.001.008-.002.005-.002.006-.001.007-.002.005-.001.007-.001.004-.001.008-.001.004-.001.011-.002h.003l.01-.001h.002l.01-.002h.081c.002 0 .004 0 .006.002h.007c.003 0 .004 0 .007.002h.008l.007.002h.008l.005.002c.003 0 .007 0 .01.002h.004l.013.004h.003a.023.023 0 00.011.003l.004.001.01.002.005.001a.03.03 0 00.01.002l.004.001.012.003.002.001.014.004.004.001.011.003.005.002c.003.002.007.002.01.005.001 0 .003 0 .004.002l.015.005.015.006h.002l.016.007 3.13-1.375-.015-.007h-.002c-.002 0-.002-.002-.003-.002l-.012-.005-.013-.005-.005-.003-.01-.004-.005-.002-.004-.001-.007-.002-.004-.001-.013-.004-.003-.001-.012-.003-.004-.001c-.002-.001-.005-.001-.006-.003h-.004l-.005-.002a.032.032 0 00-.01-.002h-.005c-.003-.002-.007-.002-.01-.003a.005.005 0 01-.002 0l-.014-.004h-.005c-.003-.002-.007-.002-.01-.003h-.005l-.006-.002h-.01l-.008-.002h-.015c-.003 0-.004 0-.007-.002l-.007-.001h-.058l-.015.001-.011.001h-.003l-.01.001h-.002l-.01.001-.005.001-.008.001-.004.001-.007.001-.005.001-.007.002-.006.001-.002.001-.003.001-.008.002-.005.001a.025.025 0 01-.007.003c-.002 0-.003 0-.004.002a.199.199 0 01-.008.003h-.005l-.01.006-3.131 1.376.01-.005h.005c.005 0 .007-.003.01-.003z" fill="#838383"/>
<path d="M76.311 58.067l3.13-1.376.38.166-3.129 1.376-.381-.166z" fill="#A4A7A9"/>
<path d="M80.44 57.653v-.018l-.001-.01v-.003l-.002-.013v-.003l-.001-.007v-.008l-.001-.009v-.006l-.002-.008v-.003l-.002-.012v-.002s0-.003-.002-.004l-.002-.01-.002-.005-.001-.004-.002-.004v-.005l-.004-.01-.001-.004a.028.028 0 01-.003-.012v-.001l-.004-.012v-.001l-.001-.004-.003-.01-.001-.005-.002-.005v-.004l-.002-.005-.004-.01c-.002-.001-.002-.002-.002-.005l-.001-.002a.057.057 0 00-.004-.008l-.002-.003c0-.004-.004-.008-.005-.012v-.001l-.001-.003-.004-.01-.003-.006-.003-.005-.002-.004c-.002 0-.002-.003-.003-.004l-.006-.01-.001-.003v-.001l-.007-.013-.001-.003-.004-.008-.001-.002c-.005-.006-.007-.013-.011-.02h-.002l-.001-.002-.011-.019-.001-.002h-.002l-.002-.006-.006-.01-.004-.004-.003-.006v-.003l-.005-.007-.005-.007-.006-.007-.003-.004v-.002l-.014-.019s-.002 0-.002-.002l-.012-.016-.001-.002-.003-.003-.006-.008c0-.002-.004-.004-.005-.006-.003-.002-.004-.005-.005-.007l-.006-.006-.007-.007-.005-.006-.007-.008-.004-.005h-.001l-.016-.02c-.002 0-.003-.002-.005-.003l-.017-.019c-.002 0-.003-.002-.003-.003l-.01-.009c0-.002-.002-.003-.005-.005l-.008-.008-.001-.001a.023.023 0 00-.006-.005l-.005-.006-.008-.007c-.002 0-.003-.003-.004-.004h-.002a.111.111 0 00-.012-.011l-.012-.01-.002-.001-.004-.003-.01-.008-.004-.004-.006-.004-.003-.002-.005-.004-.008-.006-.006-.004-.004-.003-.004-.003-.005-.004-.008-.007c-.002 0-.004-.003-.006-.004l-.002-.002a.196.196 0 00-.01-.008l-.01-.006a.11.11 0 01-.005-.004l-.001-.001-.008-.005-.006-.003c-.004-.004-.008-.005-.012-.008l-.003-.002-.013-.009-.004-.002-.01-.005-.001-.001-.006-.003a.04.04 0 00-.01-.005l-.005-.003-.005-.003-.004-.002-.006-.004-.009-.005-.005-.003h-.003l-.007-.005-.004-.002-.015-.007h-.001l-.014-.006-.004-.002-.007-.003a.02.02 0 01-.005-.003l-3.13 1.376.011.005.004.002.014.006.015.008.004.002.01.005.005.003.01.005.005.003.01.005.005.003a.04.04 0 00.01.005l.005.003.01.007.005.002.014.009a.222.222 0 00.003.002l.011.007.006.003a.056.056 0 00.009.006l.005.004.009.007c.002 0 .004.003.006.004l.008.006c.003 0 .004.003.006.004l.008.006c.003.001.004.003.005.004l.009.006.005.004c.003.002.005.005.008.006a.11.11 0 00.006.005l.008.006c.001 0 .002.003.005.004l.01.007.004.003a.115.115 0 01.012.011l.012.012c.002 0 .003.003.004.004l.008.007.006.005a.019.019 0 01.007.007l.008.008.005.006.01.009.004.003.017.018.004.004a2.7 2.7 0 00.022.025l.007.007.005.006.007.008.005.006.006.007.005.006.006.007.004.005.012.017.001.002.014.018.004.006.005.008.006.007.004.007.005.008.004.005.006.01.003.005.002.003.011.018.003.004a.145.145 0 01.01.02l.006.009.001.003.007.013.002.003a.058.058 0 00.005.01c.001.003.001.004.003.005l.004.009.003.005c0 .003.002.007.004.01l.001.003.005.014.002.003.004.01.001.005.004.01c0 .001.002.002.002.005l.002.008.002.005a.024.024 0 01.002.009l.002.004.004.014a.59.59 0 01.004.013l.001.004c.002.003.002.006.003.01l.001.004c.002.003.002.006.003.01l.001.005c.002.003.002.006.003.01 0 0 0 .002.002.003 0 .004 0 .01.002.013v.003a.028.028 0 01.001.01v.005l.002.009v.004l.001.01v.003l.002.014V59l.001.01v.073l-.001.007v.005l-.002.007v.004l-.001.008c0 .002 0 .003-.002.005 0 .004 0 .008-.002.01v.003l-.003.01-.001.003c-.002.002-.002.005-.003.007a.194.194 0 01-.004.012v.002a.11.11 0 00-.004.01l-.001.003a.376.376 0 00-.005.01v.003l-.005.008-.001.004-.006.009-.001.003-.007.011-.004.007-.001.002-.006.009-.001.002-.004.006-.003.003-.004.005c-.001.001-.001.002-.003.002l-.004.005-.002.002a.032.032 0 01-.007.006l-.002.001c-.002.002-.005.005-.006.008-.002 0-.002 0-.003.002l-.005.005c-.002 0-.002 0-.003.002l-.007.005-.001.001-.008.006-.002.001-.007.004-.002.002-.007.004-.003.001c-.002.003-.005.004-.008.006h-.001l-.007.005h-.003l-.007.004h-.002l-.01.005 3.13-1.376c.004 0 .008-.003.01-.004h.003l.007-.004h.003a.029.029 0 00.006-.005h.002c.002-.003.005-.004.008-.006l.003-.001.006-.004.003-.002.007-.004.003-.001.008-.006.001-.002.006-.005.002-.002.006-.005.002-.002a.02.02 0 00.007-.007v-.001l.007-.006c.001-.001.001-.002.003-.002l.005-.005c.001-.001.001-.002.003-.002l.001-.002c.002 0 .003-.002.003-.004l.003-.003c0-.002.002-.004.004-.006l.001-.002.005-.008.002-.002.004-.006.007-.013.001-.003.005-.009s.002 0 .002-.002l.001-.002.004-.007.002-.004c0-.003.002-.006.004-.01l.001-.002a.098.098 0 00.004-.01v-.002a.143.143 0 01.004-.011c.002-.002.002-.005.002-.007v-.004l.004-.01v-.003c0-.004 0-.007.002-.01 0-.002 0-.003.002-.005l.001-.007v-.001l.001-.005.002-.008v-.054l.001-.011z" fill="#D0D2D3"/>
<path d="M76.692 58.233c.342.149.62.514.619.81-.002.296-.281.417-.623.268l-.38-.166c-.342-.148-.62-.513-.618-.81.001-.296.28-.416.622-.268l.38.166z" fill="gray"/>
<path d="M91.39 52.627l-.002-1.748L75.035 58v1.742l.772-.338v-1.04l14.835-6.437v1.027l.748-.327z" fill="#32343F"/>
<path d="M69.137 49.944l6.177 2.713 16.07-7.001-6.197-2.724-16.05 7.012z" fill="#70A0D2"/>
<path d="M75.314 52.657v5.226l-6.177-2.713v-5.226l6.177 2.713z" fill="#568BC8"/>
<path d="M91.383 45.656l-16.069 7.001v5.226l16.075-7.004-.006-5.223z" fill="#4571A2"/>
<path d="M71.776 62.497l-.013-.008a11.686 11.686 0 00-.042-.03l-.04-.03-.01-.01a.173.173 0 01-.028-.026c-.004-.004-.008-.007-.01-.011a.346.346 0 01-.028-.03c-.002-.003-.005-.005-.006-.008-.013-.013-.023-.028-.034-.042a.576.576 0 01-.03-.045l-.004-.007-.022-.038a.041.041 0 01-.005-.011l-.011-.024-.016-.038-.01-.026a.17.17 0 01-.01-.032l-.009-.03-.008-.028-.008-.033-.006-.026-.005-.036-.004-.025-.004-.044-.002-.018-.002-.066.001-.064.001-.022.004-.046.003-.024.007-.048.003-.02.012-.067.001-.01.014-.058.007-.025a.62.62 0 01.013-.046l.008-.027c.006-.014.01-.03.015-.044a.217.217 0 01.01-.027l.017-.048.008-.022.03-.07.003-.005.03-.064.01-.02.025-.048.012-.023.028-.05.009-.018c.014-.022.026-.045.04-.066.005-.005.008-.012.012-.017l.032-.05.025-.037.024-.035a2.048 2.048 0 01.093-.123l.03-.037a.2.2 0 00.027-.032c.011-.013.02-.025.032-.037l.02-.024.091-.097.001-.001.067-.067.053-.05.01-.01c.022-.02.044-.04.066-.058l.019-.016c.016-.013.03-.027.047-.039l.027-.021a.587.587 0 01.042-.032l.03-.023.04-.03a.638.638 0 01.033-.022l.041-.028.033-.021c.013-.01.028-.018.042-.027l.032-.02.045-.026.03-.017a.467.467 0 01.049-.027c.008-.004.016-.01.025-.013.025-.014.05-.026.075-.038l.004-.002.077-.036.07-.029.025-.01.052-.02.023-.008.073-.024.072-.02.023-.006.049-.011.028-.007.044-.008.028-.005.041-.006.033-.004.038-.003.034-.003.032-.001.04-.001h.062l.053.004h.015l.057.008.015.003.044.008.022.005.035.01a.47.47 0 01.042.013l.02.006a.536.536 0 01.06.024l-1.174-.519a.915.915 0 00-.06-.023l-.02-.007c-.223-.073-.485-.056-.71 0a2.348 2.348 0 00-.63.264l-.017.01-.032.02c-.683.426-1.174 1.097-1.237 1.769-.022.23.01.495.179.693 0 .001 0 .002.002.002.003.004.006.006.007.009l.027.03.011.01.027.026.011.01a.515.515 0 00.045.035l.036.025a.09.09 0 00.014.008l.032.019.014.007a.533.533 0 00.048.022l1.174.519a1.019 1.019 0 01-.047-.023l-.014-.007-.034-.017z" fill="#40363B"/>
<path d="M72.992 59.7c-.88.383-1.589 1.312-1.586 2.074.002.763.717 1.07 1.595.687.879-.383 1.588-1.312 1.586-2.075-.003-.761-.718-1.07-1.596-.686z" fill="#4E444A"/>
<path d="M73.046 60.236c-.542.236-.986.79-1.033 1.27a.957.957 0 00-.005.088c.002.499.47.7 1.045.45.575-.251 1.04-.86 1.038-1.36a.546.546 0 00-.006-.082c-.05-.437-.497-.602-1.039-.366z" fill="#BBBDBF"/>
<path d="M73.047 60.483c-.394.172-.717.575-.751.924-.003.022-.003.042-.003.064.002.363.342.51.76.327s.757-.625.755-.988a.429.429 0 00-.004-.06c-.038-.32-.363-.44-.757-.267z" fill="#929497"/>
<path d="M73.803 60.75c-.031-.264-.26-.392-.56-.33.234-.005.401.12.428.345.003.02.004.04.004.06.002.363-.336.806-.755.988-.068.03-.135.05-.197.064a.857.857 0 00.328-.08c.418-.182.757-.624.756-.987a.434.434 0 00-.004-.06z" fill="#D0D2D3"/>
<path d="M73.334 61.21c.021-.01.043-.013.06-.006.033.015.033.062 0 .105a.151.151 0 01-.06.048c-.022.01-.044.012-.06.005-.034-.014-.034-.061 0-.104a.163.163 0 01.06-.049zM73 60.973c.107-.046.194-.01.194.083s-.086.206-.193.252c-.107.046-.194.01-.194-.084 0-.092.087-.205.193-.251zm.002.501c.048-.02.086-.004.086.037 0 .04-.038.09-.085.11-.048.021-.086.005-.086-.036 0-.04.038-.09.085-.111zm-.332.026a.083.083 0 01.06-.006c.034.015.034.062 0 .105a.153.153 0 01-.06.048.075.075 0 01-.06.004c-.033-.014-.033-.061 0-.104a.151.151 0 01.06-.047zm.662-.867c.022-.009.043-.012.06-.005.034.015.034.062 0 .105a.153.153 0 01-.06.048.083.083 0 01-.06.005c-.034-.014-.034-.061 0-.104a.144.144 0 01.06-.049zm-.332.173c-.047.02-.085.004-.085-.037 0-.04.037-.09.085-.11.047-.021.085-.005.085.036 0 .04-.037.09-.085.111zm-.332.265c-.022.01-.044.012-.06.005-.034-.014-.034-.061 0-.104a.163.163 0 01.06-.049c.022-.009.043-.012.06-.005.034.015.034.062 0 .105a.163.163 0 01-.06.048zm.717-.098c0-.041.038-.09.085-.111.048-.02.086-.004.086.037 0 .04-.038.09-.084.11-.048.021-.086.005-.087-.036zm-.855.298c.048-.02.086-.004.086.037 0 .04-.038.09-.085.11-.048.021-.086.005-.086-.036.001-.04.04-.09.086-.111z" fill="#3A3D3F"/>
<path d="M70.378 61.78l-5.772-2.468-.01-2.636 5.772 2.467.01 2.636z" fill="#D0D2D3"/>
<path d="M70.368 59.143l-5.771-2.467.784-2.562 5.772 2.467-.785 2.562z" fill="#70565D"/>
<path d="M71.152 56.58l-5.771-2.466 3.87-1.688 5.771 2.467-3.87 1.688z" fill="#E6E7E8"/>
<path d="M65.38 54.114l-.784 2.562 5.771 2.467.786-2.562-5.772-2.467zm4.835 4.767l-5.36-2.29.68-2.215 5.359 2.291-.679 2.214z" fill="#E6E7E8"/>
<path d="M65.626 57.61v1.693l3.723 1.628v-1.694l-3.723-1.626z" fill="#4F565B"/>
<path d="M70.096 61.308v.593l-5.742-2.494v-.594l5.742 2.495z" fill="#D0D2D3"/>
<path d="M70.096 61.308v.593l.282-.12v-.593l-.282.12z" fill="#BBBDBF"/>
<path d="M64.356 58.813l5.741 2.495.282-.12-5.74-2.496-.283.121z" fill="#E6E7E8"/><path fill-rule="evenodd" clip-rule="evenodd" d="M70.369 60.581l-.923-.402v.42l.923.397v-.415zm-4.849-2.116l-.923-.402v.42l.922.398v-.416z" fill="#F1F1F2"/>
<path d="M75.022 54.893l-3.87 1.688-.785 2.562.01 2.636.827-.362c.212-.749.902-1.532 1.725-1.89.821-.358 1.514-.183 1.733.376l.37-.162V58l-.01-3.108z" fill="#BBBDBF"/>
<path d="M73.49 55.777c.04-.017.073-.003.074.032l.006 1.528c0 .036-.033.08-.074.097l-2.567 1.12c-.05.022-.087-.006-.071-.056l.456-1.728c.01-.03.038-.06.069-.074l2.107-.919z" fill="#70565D"/>
<path d="M69.955 61.456v.273l-.699-.304v-.272l.699.303zm-4.787-2.073v.272l-.699-.304v-.271l.699.303z" fill="#F6921E"/>
<path d="M83.187 55.139v.985l-2.43 1.041v-.963l2.43-1.063z" fill="#BBBDBF"/>
<path d="M80.756 57.165l-.458-.188v-.575l.458-.2v.963z" fill="#96999B"/>
<path opacity=".2" d="M70.893 56.667l-6.037-.077.678-2.214 5.36 2.291z" fill="#fff"/>
<path d="M91.383 45.656l1.225.186 2.203 2.16-.26 1.99-3.161 2.635-.007-6.97z" fill="#4571A2"/>
<path d="M91.383 45.656l.007 6.97 3.16-2.633.26-1.99-2.202-2.161-1.225-.186zm.396.364l.608.092 2.017 1.98-.232 1.773-2.388 1.99-.005-5.835z" fill="#70A0D2"/>
<path d="M86.414 43.116l6.194 2.726-1.225-.186-6.197-2.724 1.228.184zM75.59 52.777v5.225l-.276-.12v-5.224l.276.12z" fill="#568BC8"/>
<path d="M75.59 52.777v5.225l.25-.11v-5.224l-.25.11z" fill="#70A0D2"/>
<path d="M75.314 52.657l.276.12.25-.11-.276-.12-.25.11z" fill="#F5F6F7"/>
<path d="M75.59 52.514v.263l-6.453-2.833v-.264l6.453 2.834z" fill="#568BC8"/>
<path d="M75.59 52.514v.263l.25-.11v-.263l-.25.11z" fill="#70A0D2"/>
<path d="M69.137 49.68l6.453 2.834.25-.11-6.452-2.834-.251.11z" fill="#86B7E2"/>
<path d="M79.398 51.12v5.225l-.275-.12V51l.275.12z" fill="#568BC8"/>
<path d="M79.398 51.12v5.225l.25-.11v-5.224l-.25.109z" fill="#70A0D2"/>
<path d="M79.123 51l.275.12.25-.109-.275-.12-.25.109z" fill="#F5F6F7"/>
<path d="M79.398 50.857v.263l-6.452-2.833v-.264l6.452 2.834z" fill="#568BC8"/>
<path d="M79.398 50.857v.263l.25-.109v-.264l-.25.11z" fill="#70A0D2"/>
<path d="M72.946 48.023l6.452 2.834.25-.11-6.451-2.834-.251.11z" fill="#86B7E2"/>
<path d="M83.207 49.456v5.226l-.275-.121v-5.224l.275.12z" fill="#568BC8"/>
<path d="M83.207 49.456v5.226l.25-.11v-5.225l-.25.11z" fill="#70A0D2"/>
<path d="M82.932 49.337l.275.12.25-.11-.275-.12-.25.11z" fill="#F5F6F7"/>
<path d="M91.318 45.92v5.224l-.276-.12v-5.225l.276.12z" fill="#568BC8"/>
<path d="M91.318 45.92v5.225l.25-.11V45.81l-.25.11z" fill="#70A0D2"/>
<path d="M91.043 45.8l.275.12.25-.11-.276-.12-.25.11z" fill="#F5F6F7"/>
<path d="M91.318 45.655v.264l-6.453-2.833v-.264l6.453 2.833z" fill="#568BC8"/>
<path d="M91.318 45.655v.264l.25-.11v-.264l-.25.11z" fill="#70A0D2"/>
<path d="M84.865 42.822l6.453 2.833.25-.11-6.452-2.833-.25.11z" fill="#86B7E2"/>
<path d="M78.633 46.957v.264l7.829-3.44v-.263l-7.829 3.439z" fill="#568BC8"/><path d="M78.633 46.957v.264l-.25-.11v-.264l.25.11z" fill="#70A0D2"/><path d="M86.462 43.518l-7.829 3.439-.25-.11 7.829-3.439.25.11z" fill="#86B7E2"/><path d="M79.415 47.301v.264l7.83-3.438v-.265l-7.83 3.44z" fill="#568BC8"/><path d="M79.415 47.301v.264l-.25-.11v-.264l.25.11z" fill="#70A0D2"/>
<path d="M87.244 43.862l-7.83 3.439-.249-.11 7.828-3.438.251.11z" fill="#86B7E2"/><path d="M80.198 47.647v.263l7.828-3.439v-.264l-7.828 3.44z" fill="#568BC8"/><path d="M80.198 47.646v.264l-.251-.11v-.263l.25.11z" fill="#70A0D2"/><path d="M88.026 44.207l-7.828 3.44-.251-.11 7.828-3.439.25.109z" fill="#86B7E2"/><path d="M80.978 47.99v.264l7.829-3.438v-.264l-7.829 3.439z" fill="#568BC8"/><path d="M80.979 47.99v.264l-.251-.108v-.265l.25.11z" fill="#70A0D2"/><path d="M88.807 44.552l-7.828 3.439-.251-.11 7.83-3.438.249.11z" fill="#86B7E2"/><path d="M81.76 48.335v.265l7.83-3.44v-.263l-7.83 3.438z" fill="#568BC8"/><path d="M81.76 48.335v.265l-.25-.11v-.265l.25.11z" fill="#70A0D2"/>
<path d="M89.59 44.897l-7.83 3.438-.25-.11 7.829-3.438.25.11z" fill="#86B7E2"/>
<path d="M83.207 49.192v.264l-6.452-2.834v-.263l6.452 2.833z" fill="#568BC8"/>
<path d="M83.207 49.192v.264l.25-.11v-.264l-.25.11z" fill="#70A0D2"/><path d="M76.755 46.36l6.452 2.832.25-.11-6.451-2.833-.251.11z" fill="#86B7E2"/><path d="M90.336 46.845l-6.137 2.674v3.326l6.14-2.675-.003-3.325z" fill="#E0E4E4"/>
<path d="M90.338 46.845l-.196.085v3.158l.196.083v-3.326z" fill="#568BC8"/>
<path d="M90.142 50.088l-5.943 2.57v.187l6.14-2.674-.197-.083z" fill="#70A0D2"/>
<path d="M89.242 49.035l-.008-.007-.15.142c0-.005 0-.008.002-.012.078-.154.154-.31.23-.464a.034.034 0 01.017-.015l.484-.203.009-.002-.152.141.008.01c.042.045.085.09.127.137.027.028.027.067 0 .12l-.272.527-.01.018v-.007a.169.169 0 00-.049-.136l-.236-.249z" fill="#50BC5F"/>
<path d="M88.787 49.716l-.15-.15.215-.093.498-.217a.012.012 0 01.013.002l.075.082c.02.024.034.054.035.09.005.116-.103.262-.239.322l-.225.098-.368.16c.05-.092.097-.183.146-.276.002-.007.005-.013 0-.018z" fill="#50BC5F"/>
<path d="M87.911 49.887l.24-.105.24-.104a.102.102 0 00.015-.007v-.15l.003-.003.005.005.247.25c.006.004.003.01-.001.018l-.243.459a.186.186 0 01-.01.013v-.15l-.016.008-.166.072a1.543 1.543 0 01-.085.036c-.054.024-.094.022-.123-.008-.09-.098-.183-.196-.275-.294l-.007-.008a.349.349 0 00.176-.032zm1.335-1.275l-.14.28a435.845 435.845 0 01-.347-.368.014.014 0 01-.002-.013c.028-.055.055-.11.087-.165a.426.426 0 01.253-.207c.072-.021.124-.008.16.03l.292.308-.288.12a.031.031 0 00-.015.015z" fill="#50BC5F"/><path d="M87.699 49.597l.282-.548.136.151c.004.004.008.006.016.002.097-.044.195-.088.293-.13l-.356.69a.034.034 0 01-.013.012l-.094.041-.073.031c-.092.037-.163.03-.206-.021-.014-.017-.022-.04-.031-.061v-.053a.525.525 0 01.046-.114z" fill="#50BC5F"/><path d="M88.63 48.666l-.091.18.153.01-.008.003c-.162.072-.322.145-.483.218-.008.004-.012.002-.017-.003l-.231-.258-.006-.007c.001-.001.001-.002.003-.002l.146.011.01-.016.13-.251a.224.224 0 01.08-.087c.004-.003.008-.007.014-.01.196-.086.393-.17.59-.257a.6.6 0 00-.154.205l-.135.264zm-1.398.223l-2.624 1.142v.387l2.625-1.144-.001-.385zm0 .682l-2.624 1.144v.385l2.625-1.143-.001-.386z" fill="#50BC5F"/><path d="M35.395 30.506v-3.59l2.139-.944v3.583l-2.14.951z" fill="#5E6D7D"/><path d="M37.534 25.972l-.536.236v3.12l.536.227v-3.583z" fill="#D3D3D3"/><path d="M36.998 29.329l-1.603.699v.478l2.139-.95-.536-.227z" fill="#F5F6F7"/><path d="M32.668 31.709v-3.59l2.14-.944v3.582l-2.14.952z" fill="#5E6D7D"/><path d="M34.807 27.175l-.536.235v3.122l.536.226v-3.583z" fill="#D3D3D3"/><path d="M34.271 30.532l-1.603.699v.478l2.14-.951-.537-.226z" fill="#F5F6F7"/><path d="M85.067 47.928v15.775l1.484-.648V47.282l-1.484.646z" fill="#E0E4E4"/><path d="M85.067 47.928v15.775l-1.347-.59V47.34l1.347.59z" fill="#D3D3D3"/><path d="M86.551 47.282l-1.484.646-1.347-.59 1.484-.646 1.347.59z" fill="#F5F6F7"/><path d="M64.177 33.793v5.226l-.275-.12v-5.226l.275.12z" fill="#568BC8"/><path d="M64.177 33.793v5.225l.25-.11v-5.223l-.25.108z" fill="#D3D3D3"/><path d="M63.902 33.673l.275.12.25-.108-.275-.121-.25.11z" fill="#86B7E2"/><path d="M56.067 37.33v5.226l-.277-.12V37.21l.277.12z" fill="#568BC8"/><path d="M56.067 37.33v5.226l.25-.11V37.22l-.25.11z" fill="#D3D3D3"/><path d="M55.79 37.21l.277.12.25-.11-.276-.12-.251.11z" fill="#86B7E2"/><path d="M52.258 38.995v5.225l-.277-.12v-5.225l.277.12z" fill="#568BC8"/><path d="M52.258 38.995v5.225l.25-.11v-5.225l-.25.11z" fill="#D3D3D3"/><path d="M51.981 38.875l.277.12.25-.11-.276-.12-.25.11z" fill="#86B7E2"/><path d="M48.449 40.652v5.225l-.277-.12V40.53l.277.121z" fill="#568BC8"/><path d="M48.449 40.652v5.225l.25-.11v-5.225l-.25.11z" fill="#D3D3D3"/><path d="M48.172 40.531l.277.121.25-.11-.276-.12-.25.11z" fill="#86B7E2"/><path d="M69.955 43.925l-1.019-.584 1.019-.443v1.027zm-14.838 5.832L66.62 44.81l-.62-.375-10.882 4.901v.42z" fill="#250920"/><path d="M67.214 46.437l-.013-.008-.037-.025-.005-.004a.4.4 0 01-.04-.032l-.01-.009a.173.173 0 01-.028-.026l-.01-.01a.331.331 0 01-.028-.03l-.006-.009-.034-.042a.55.55 0 01-.03-.045l-.004-.007-.022-.038-.005-.011-.011-.024-.016-.038-.01-.025c-.004-.012-.008-.022-.01-.033l-.009-.029-.008-.029-.008-.032-.006-.027-.005-.036a3.383 3.383 0 01-.007-.069l-.001-.018-.003-.066c0-.021 0-.043.002-.064v-.022l.005-.046.003-.023c.001-.017.004-.032.006-.049.002-.006.002-.013.003-.019l.012-.068.002-.009c.004-.02.01-.04.013-.06l.007-.024a.475.475 0 01.014-.046l.008-.027a.587.587 0 01.024-.07l.018-.049.008-.022.028-.07.003-.005a.97.97 0 01.03-.064l.01-.02.025-.048.012-.023.028-.05a.059.059 0 01.01-.017c.013-.023.025-.045.04-.067l.01-.016.033-.052.025-.035.024-.035a2.052 2.052 0 01.094-.123l.03-.037.027-.033.03-.037.021-.023.091-.098h.001a3.48 3.48 0 01.067-.068l.053-.05.01-.01.066-.057.019-.017.047-.039.027-.021.042-.033.03-.023.04-.03.033-.022.041-.028.033-.021c.013-.01.027-.017.042-.027a.558.558 0 01.032-.02l.045-.026.03-.017a.467.467 0 01.049-.027c.008-.004.016-.01.025-.013.025-.014.05-.026.075-.038l.005-.002.078-.036.069-.029.026-.01.051-.02.023-.008.074-.023a.644.644 0 01.072-.02l.023-.007a.796.796 0 01.048-.011l.029-.006a.9.9 0 01.043-.009l.029-.005.04-.006c.011 0 .022-.003.033-.004l.038-.003.034-.003.032-.001.041-.001h.061a.86.86 0 01.053.005l.015.001a.994.994 0 01.057.007l.015.003.045.008.021.006.036.009a.47.47 0 01.042.013l.02.006.06.024-1.518-.666a.915.915 0 00-.06-.024l-.02-.006c-.223-.073-.484-.058-.71-.001a2.348 2.348 0 00-.63.264c-.006.003-.011.008-.017.01l-.032.02c-.683.426-1.174 1.098-1.237 1.77-.022.23.01.494.179.693l.002.002c.003.003.006.005.007.008l.027.03.011.011c.01.008.018.018.027.026l.011.01a.515.515 0 00.045.035l.037.024a.09.09 0 00.013.009l.033.018.013.007a.354.354 0 00.048.023l1.516.666a1.019 1.019 0 01-.047-.022l-.014-.008a.216.216 0 01-.034-.017z" fill="#40363B"/><path d="M68.429 43.64c-.88.383-1.589 1.312-1.586 2.074.003.763.718 1.07 1.595.687.88-.383 1.589-1.312 1.586-2.074-.003-.762-.716-1.07-1.595-.687z" fill="#4E444A"/><path d="M68.483 44.176c-.543.237-.986.79-1.034 1.27a.956.956 0 00-.004.088c.001.5.47.701 1.045.45.575-.251 1.04-.859 1.037-1.358a.547.547 0 00-.005-.083c-.05-.438-.497-.603-1.04-.367z" fill="#BBBDBF"/><path d="M68.484 44.423c-.395.172-.717.575-.751.924-.003.022-.003.042-.003.064.001.363.342.51.76.327.417-.182.757-.625.755-.988a.444.444 0 00-.004-.06c-.038-.32-.362-.44-.757-.267z" fill="#929497"/><path d="M69.241 44.688c-.03-.263-.259-.391-.561-.33.234-.004.401.121.428.346.003.02.004.04.004.06.002.363-.336.806-.755.988a.993.993 0 01-.197.064.869.869 0 00.328-.078c.418-.182.757-.625.756-.988a.613.613 0 00-.003-.062z" fill="#D0D2D3"/><path d="M68.772 45.15c.022-.01.043-.013.06-.005.034.014.034.061 0 .104a.162.162 0 01-.06.048c-.022.01-.044.012-.06.004-.034-.014-.034-.061 0-.104a.172.172 0 01.06-.047zm-.334-.237c.107-.046.194-.01.194.084 0 .092-.085.206-.192.252-.108.046-.194.01-.194-.084 0-.093.085-.206.192-.252zm.002.501c.047-.02.085-.004.085.037 0 .041-.038.09-.085.11-.047.021-.085.005-.085-.036 0-.04.039-.09.085-.11zm-.333.026a.083.083 0 01.06-.005c.034.014.034.061 0 .104a.153.153 0 01-.06.048.083.083 0 01-.06.005c-.034-.014-.034-.061 0-.104a.155.155 0 01.06-.048zm.663-.866c.02-.01.043-.013.059-.005.034.014.034.061 0 .104a.164.164 0 01-.06.048c-.022.01-.043.013-.06.005-.033-.014-.033-.061 0-.104a.145.145 0 01.06-.048zm-.333.172c-.048.02-.086.004-.086-.037 0-.04.038-.09.086-.11.047-.02.085-.005.085.037 0 .04-.038.09-.085.11zm-.331.265c-.022.01-.043.012-.06.004-.034-.014-.034-.061 0-.104a.154.154 0 01.06-.048c.022-.01.043-.012.06-.004.034.014.034.061 0 .104a.163.163 0 01-.06.048zm.718-.098c0-.041.038-.09.085-.11.048-.021.086-.005.086.036 0 .041-.038.09-.085.11-.048.021-.086.005-.086-.036zm-.855.298c.047-.02.086-.004.086.037 0 .041-.039.09-.086.11-.047.021-.085.005-.085-.036 0-.04.037-.09.085-.11z" fill="#3A3D3F"/><path d="M63.86 47.9c-.004-.003-.01-.005-.014-.009l-.036-.024-.006-.004a.493.493 0 01-.039-.032l-.01-.01a.226.226 0 01-.028-.025c-.004-.004-.008-.007-.01-.011a.316.316 0 01-.028-.03l-.007-.008-.034-.042a.568.568 0 01-.03-.045l-.004-.007-.021-.038a.045.045 0 01-.006-.012l-.01-.023-.017-.038-.01-.026-.01-.032-.008-.03-.008-.028a1.122 1.122 0 01-.009-.033c0-.008-.004-.017-.005-.026-.003-.013-.004-.025-.005-.036l-.005-.025a7.061 7.061 0 01-.004-.044v-.018a1.03 1.03 0 01-.002-.13l.001-.022.004-.046.003-.024a.518.518 0 01.007-.048l.002-.02a15.983 15.983 0 01.015-.076l.014-.06.007-.024a.618.618 0 01.013-.046l.008-.027a.584.584 0 01.025-.07l.017-.049.008-.022.029-.07.003-.005c.01-.022.019-.043.03-.064.002-.007.006-.013.01-.02l.025-.048.012-.023.027-.05.01-.018c.013-.022.025-.045.04-.066l.011-.017.033-.051a.974.974 0 01.024-.036c.008-.011.017-.022.025-.035.021-.03.044-.061.069-.092l.024-.03.03-.038a.27.27 0 00.027-.032l.031-.037.02-.024c.03-.033.06-.066.092-.097v-.001c.023-.023.046-.044.067-.067l.053-.05.011-.01.065-.058.02-.016a.617.617 0 01.047-.04c.01-.006.017-.014.027-.02a.537.537 0 01.042-.032l.03-.023.04-.03a9.773 9.773 0 01.073-.05l.033-.021.042-.027.033-.02.045-.026.03-.018.048-.026.026-.014.075-.037c.001-.002.002-.002.005-.003l.077-.035.07-.03a.13.13 0 00.025-.01l.052-.019.023-.008.073-.024.072-.02.023-.006.049-.012.029-.006a.792.792 0 01.043-.008l.028-.005.041-.006.033-.004.038-.003.034-.003c.01-.002.021-.002.032-.002h.102l.053.004h.015l.057.008.015.003.044.008.022.005.035.01a.44.44 0 01.042.013l.02.006.06.023-1.516-.666a.948.948 0 00-.06-.023l-.02-.006c-.223-.073-.484-.057-.71-.002a2.345 2.345 0 00-.63.265l-.017.01-.032.02c-.682.426-1.174 1.097-1.237 1.769-.022.23.01.495.179.694.001 0 .001.002.003.002.002.003.005.005.006.008l.027.03.011.01.027.026.011.01.04.032.005.004.037.024.013.008.033.019.013.007.048.023 1.516.666a1.022 1.022 0 01-.047-.023l-.014-.007a.236.236 0 01-.035-.017z" fill="#40363B"/><path d="M65.074 45.102c-.878.384-1.588 1.312-1.586 2.075.003.763.718 1.07 1.596.687.879-.384 1.588-1.312 1.585-2.075-.002-.761-.716-1.07-1.595-.687z" fill="#4E444A"/><path d="M65.128 45.639c-.542.236-.986.79-1.033 1.27a.956.956 0 00-.004.088c0 .499.469.7 1.044.45.575-.252 1.04-.86 1.038-1.36a.546.546 0 00-.006-.083c-.05-.436-.496-.601-1.039-.365z" fill="#BBBDBF"/><path d="M65.13 45.886c-.395.172-.718.575-.752.924-.002.022-.002.042-.002.064 0 .362.341.509.76.327.417-.183.756-.626.755-.989a.442.442 0 00-.004-.06c-.038-.319-.363-.439-.757-.266z" fill="#929497"/><path d="M65.886 46.151c-.03-.263-.259-.392-.561-.33.235-.004.401.121.429.345.002.02.004.04.004.06.001.364-.337.806-.756.989a.992.992 0 01-.197.063.854.854 0 00.329-.078c.418-.183.757-.626.755-.989l-.002-.06z" fill="#D0D2D3"/><path d="M65.417 46.612c.022-.009.043-.011.06-.004.034.015.034.062 0 .105a.164.164 0 01-.06.048.083.083 0 01-.06.005c-.033-.014-.033-.061 0-.105a.156.156 0 01.06-.049zm-.333-.236c.107-.047.194-.01.194.084 0 .092-.086.206-.193.252-.107.046-.194.009-.194-.084 0-.094.086-.206.193-.252zm.001.501c.047-.02.085-.005.085.036 0 .042-.038.09-.085.111-.047.02-.085.004-.085-.037 0-.04.039-.09.085-.11zm-.333.025a.085.085 0 01.06-.004c.034.015.034.062 0 .105a.153.153 0 01-.06.048.076.076 0 01-.06.005c-.033-.014-.033-.061 0-.104a.148.148 0 01.06-.05zm.663-.866a.083.083 0 01.06-.005c.033.014.033.062 0 .105a.162.162 0 01-.06.048c-.022.009-.044.011-.06.004-.034-.014-.034-.062 0-.105a.152.152 0 01.06-.047zm-.333.173c-.047.02-.085.004-.085-.037 0-.041.038-.09.085-.11.047-.021.086-.005.086.036 0 .04-.039.09-.086.11zm-.331.265a.075.075 0 01-.06.004c-.034-.014-.034-.062 0-.105a.163.163 0 01.06-.048c.022-.009.043-.011.06-.004.034.015.034.062 0 .105a.164.164 0 01-.06.048zm.718-.098c0-.041.038-.09.085-.111.048-.02.086-.004.086.037 0 .04-.038.09-.086.11-.047.02-.085.005-.085-.036zm-.855.298c.048-.02.086-.004.086.037 0 .04-.038.09-.084.11-.048.02-.086.004-.086-.037-.001-.04.037-.09.084-.11z" fill="#3A3D3F"/><path d="M54.347 48.973l-5.753-2.462 16.35-7.12 5.751 2.462-16.348 7.12z" fill="#3C3E4A"/><path d="M55.206 48.997l.004-.002.008-.002h.005l.007-.003h.006s.002-.002.005-.002.004 0 .007-.002l.005-.001.007-.001.004-.001.008-.001.004-.001.011-.001h.003l.01-.001h.002l.01-.001.016-.001h.064c.002 0 .004 0 .006.002h.007c.003 0 .004 0 .007.002l.008.001.007.001.008.001.005.001.01.002.004.001.014.003.002.001.011.002.004.001a.032.032 0 00.01.002l.005.001a.032.032 0 00.01.002l.004.001.012.004h.002l.014.005h.004l.011.004c.001 0 .003 0 .005.002.003 0 .007.002.01.004.001 0 .003 0 .004.002l.015.005.015.006.003.001.014.006 3.131-1.375-.015-.006-.002-.001-.003-.001-.012-.005-.013-.005v-.002c-.002 0-.004 0-.005-.002a.024.024 0 01-.01-.004l-.005-.002h-.004l-.007-.003h-.004l-.013-.005-.003-.001-.012-.003-.004-.001-.006-.001-.004-.001-.005-.001a.03.03 0 00-.01-.002l-.004-.001h-.001l-.01-.002-.002-.001-.014-.003h-.001l-.004-.001-.01-.002c-.001 0-.004 0-.005-.002h-.009l-.006-.002h-.008l-.007-.002h-.015c-.003 0-.005 0-.007-.002h-.058l-.015.001-.011.001h-.003l-.01.002h-.012c-.002 0-.004 0-.005.002h-.008l-.004.002h-.007c-.001 0-.002.002-.005.002h-.007l-.005.002h-.003c-.002 0-.002.002-.003.002-.003 0-.005 0-.008.002h-.005a.029.029 0 01-.007.003c-.002 0-.003 0-.004.002-.003 0-.006.002-.008.003l-.005.001-.01.005-3.131 1.376c.004-.002.008-.003.01-.006h.005a.049.049 0 00.01-.004z" fill="#838383"/><path d="M55.623 49.04l3.131-1.377.38.166-3.13 1.376-.38-.166z" fill="#A4A7A9"/><path d="M59.753 48.625v-.017c0-.003 0-.007-.002-.01v-.004l-.001-.013v-.003l-.001-.007v-.003c0-.001 0-.003-.002-.004l-.001-.01v-.006l-.002-.008v-.003c0-.004 0-.008-.002-.012v-.001l-.002-.004c0-.003 0-.007-.002-.01l-.002-.006-.001-.004-.001-.004-.002-.005-.002-.01-.002-.003v-.001l-.003-.012c0-.005-.002-.009-.004-.013v-.005c-.002-.003-.004-.006-.004-.01v-.004l-.002-.006-.002-.004-.001-.005-.004-.009-.001-.005-.002-.002-.004-.008-.001-.003-.006-.013-.001-.004-.004-.01-.003-.005-.002-.005c-.002-.001-.002-.003-.003-.005-.002 0-.002-.002-.003-.004l-.005-.01-.002-.003a.058.058 0 00-.007-.013v-.003c-.002-.003-.004-.005-.005-.009h-.001l-.011-.02-.002-.001v-.002l-.012-.018-.001-.003h-.001l-.003-.006-.005-.009-.005-.005-.002-.005-.002-.003-.004-.007c-.001-.003-.002-.006-.005-.008l-.006-.007-.002-.004s-.002 0-.002-.002c-.004-.006-.01-.012-.013-.018l-.002-.002-.012-.017-.001-.002c-.002 0-.002-.002-.003-.003l-.005-.007-.006-.006-.005-.007-.006-.007-.006-.007-.006-.006-.007-.007a.023.023 0 01-.004-.005l-.001-.001a2.7 2.7 0 00-.016-.019c-.002 0-.003-.002-.004-.004l-.018-.018-.003-.003-.01-.01c0-.002-.002-.003-.005-.005l-.008-.008h-.001l-.006-.006a.018.018 0 00-.005-.005l-.008-.007-.004-.004v-.001c-.004-.003-.008-.008-.012-.01-.004-.004-.008-.008-.013-.01V48a.146.146 0 01-.005-.003c-.003-.002-.005-.005-.01-.007 0-.001-.002-.003-.005-.004l-.005-.004-.003-.002-.006-.005-.008-.006-.005-.004-.004-.003a.11.11 0 01-.01-.007l-.008-.006-.005-.004-.003-.002a.11.11 0 01-.01-.009l-.009-.006-.005-.004h-.002c-.002-.003-.005-.004-.008-.006l-.005-.003-.012-.007-.003-.002-.014-.01a.11.11 0 01-.004-.003.019.019 0 00-.01-.005l-.006-.004a.044.044 0 00-.01-.005l-.005-.003-.005-.003-.003-.002-.006-.003-.01-.005-.005-.003-.002-.002a.027.027 0 01-.007-.005l-.004-.002-.015-.007h-.001l-.014-.006c-.001 0-.003 0-.004-.002l-.007-.003a.024.024 0 01-.005-.003l-3.13 1.375c.003.002.007.005.011.006.002 0 .003 0 .004.002l.014.006.015.007.004.002.01.005.005.003.01.005.005.003.01.005c0 .002.003.002.005.003.002.003.006.004.01.006l.005.003.01.006c.002 0 .003.002.005.003l.014.01a.063.063 0 00.003.001.078.078 0 01.011.007l.005.004.01.006.005.004.009.006.006.004.008.006.006.004.008.006.005.005.009.006c0 .002.004.003.005.004l.008.006.006.004.008.006c.001.001.002.003.005.004.003.002.005.005.01.007a.11.11 0 01.004.004l.012.01.012.012.004.004.008.007.006.005a.019.019 0 01.007.008l.008.008.005.005.01.01.004.003.017.019c.002 0 .003.003.004.004l.017.018a.013.013 0 00.005.006l.007.008.005.006a.034.034 0 00.007.007l.006.006c0 .002.004.005.005.007l.005.006.006.008.004.005.012.016.001.002.014.019.004.006.005.007.006.007.005.007.006.008.004.005.005.01.003.005.003.003.01.018c.002.001.002.002.003.005a.147.147 0 01.011.019l.005.01.002.002.007.014.001.003.005.01.003.004.004.01c.002 0 .002.002.003.004l.004.01.001.004.006.013.001.003.004.01.002.005c0 .004.002.007.004.01l.001.005.003.009.001.005a.023.023 0 01.003.01l.001.004.004.013.004.013.002.004.002.01c0 .002.002.002.002.005l.002.009.002.005.002.01c0 .001 0 .002.002.003.001.004.001.01.003.014v.013s0 .003.002.004l.002.01v.017l.002.013v.003c0 .003 0 .007.002.01v.072c0 .002 0 .005-.002.007v.005l-.001.008v.004l-.001.008s0 .003-.002.004l-.002.011v.002c-.002.003-.002.006-.003.01l-.002.004c0 .002 0 .005-.002.007a.127.127 0 01-.004.011v.001a.08.08 0 00-.004.01l-.002.003-.004.01-.001.004a.016.016 0 00-.003.007l-.001.004a.032.032 0 01-.006.01l-.001.002-.007.012-.004.007-.001.002-.006.008-.001.002-.004.006-.003.003-.004.005-.001.002c-.002.002-.003.004-.006.005l-.002.003a.028.028 0 01-.007.006h-.002a.02.02 0 00-.006.008l-.003.002-.005.005-.003.002a.297.297 0 00-.007.005l-.001.001-.008.007H56.5l-.007.005-.003.002c-.002 0-.004.003-.006.004h-.003l-.008.006h-.002c-.002.003-.005.004-.008.005l-.002.001-.007.003-.003.001-.01.004 3.131-1.375.01-.004.002-.001.007-.003.003-.001.007-.005h.001l.008-.006h.003l.007-.005.003-.002c.002 0 .004-.003.006-.004l.003-.001.008-.006.001-.001a.172.172 0 00.007-.005l.003-.002c.001-.002.004-.003.005-.006.002 0 .002 0 .003-.002l.007-.007h.001l.007-.007.003-.002a.02.02 0 01.005-.005l.003-.002.001-.001.003-.004.003-.003.004-.006.001-.002.005-.009s.002 0 .002-.002l.004-.006.007-.012.001-.003a.033.033 0 01.005-.01s.002 0 .002-.002l.001-.002.004-.007.002-.004.004-.01.001-.001a.088.088 0 00.004-.01v-.002l.004-.012c.002-.002.002-.005.003-.007l.001-.004c.002-.003.002-.006.003-.01v-.002l.003-.012.001-.004.001-.007v-.005l.002-.007v-.055c-.004-.004-.004-.008-.004-.012z" fill="#D0D2D3"/><path d="M56.003 49.204c.342.149.62.514.619.81-.002.296-.281.417-.623.268l-.38-.165c-.341-.15-.62-.514-.618-.81.001-.296.28-.417.622-.269l.38.166z" fill="gray"/><path d="M70.702 43.598L70.7 41.85l-16.354 7.123v1.74l.77-.337v-1.04L69.954 42.9v1.027l.748-.328z" fill="#32343F"/><path d="M48.45 40.916l6.175 2.713 16.07-7-6.197-2.726-16.049 7.013z" fill="#70A0D2"/><path d="M54.625 43.629v5.225l-6.176-2.712v-5.226l6.176 2.713z" fill="#568BC8"/><path d="M70.695 36.628l-16.07 7v5.226l16.076-7.004-.006-5.222z" fill="#4571A2"/><path d="M51.089 53.47l-.014-.01-.037-.024-.005-.004a.535.535 0 01-.04-.032l-.01-.009a.275.275 0 01-.027-.025l-.011-.012a.304.304 0 01-.027-.03.566.566 0 01-.07-.095l-.005-.007-.022-.038a.045.045 0 01-.005-.011l-.01-.024-.017-.038-.01-.025c-.004-.011-.008-.022-.01-.033l-.009-.029-.008-.028a1.442 1.442 0 01-.008-.033l-.005-.027-.006-.036a7.061 7.061 0 01-.007-.069v-.018a1.03 1.03 0 01-.004-.065c0-.022 0-.043.002-.065l.001-.022.004-.046.003-.023c.001-.017.004-.032.007-.048l.002-.02.013-.068.001-.009.014-.06.006-.024a.573.573 0 01.014-.046l.008-.027a.543.543 0 01.025-.07l.017-.048.008-.023.029-.07.002-.005.03-.063c.003-.008.007-.014.011-.02l.025-.049.012-.023c.01-.016.017-.032.027-.05l.01-.017c.013-.023.025-.045.04-.067l.01-.016.034-.051.024-.036.024-.035c.022-.031.045-.062.07-.093l.024-.03.03-.037.027-.033.031-.037.02-.023.091-.098h.002c.021-.023.044-.045.066-.067l.053-.05.01-.01c.023-.02.044-.04.066-.058l.019-.017a.757.757 0 01.047-.039l.028-.021A1.01 1.01 0 0151.75 51l.03-.023.04-.03a.576.576 0 01.033-.022l.04-.027.033-.022.042-.027.033-.02.044-.026.03-.017.049-.027.026-.013.074-.038.006-.002c.026-.012.051-.025.077-.036l.07-.029.025-.01.052-.02.023-.008.073-.023c.024-.007.049-.015.072-.02l.023-.007.049-.011.028-.006.044-.008.028-.006.04-.006c.012 0 .023-.003.033-.004.013 0 .026-.002.038-.003l.034-.003.033-.001.04-.001.056.001h.006a.949.949 0 01.052.004l.015.001.057.007.015.003.045.009.022.005.035.009a.451.451 0 01.042.013l.02.006.06.024-1.175-.519a.951.951 0 00-.06-.023l-.02-.006c-.222-.073-.484-.058-.71-.001a2.345 2.345 0 00-.63.264l-.016.01-.033.02c-.682.426-1.173 1.097-1.237 1.769-.022.23.011.495.18.694 0 0 0 .002.002.002l.007.008.027.03c.004.004.008.007.01.011l.028.026.01.009.04.032.006.004a109921891527.342 109921891527.342 0 00.05.032l.032.019.014.007.047.023 1.175.518a1.022 1.022 0 01-.047-.022l-.014-.007a.247.247 0 01-.035-.018z" fill="#40363B"/><path d="M52.303 50.672c-.88.383-1.589 1.312-1.586 2.075.003.762.718 1.07 1.595.686.88-.383 1.589-1.312 1.586-2.074-.001-.763-.716-1.07-1.595-.687z" fill="#4E444A"/><path d="M52.359 51.208c-.543.237-.986.79-1.034 1.271a.957.957 0 00-.004.087c.001.5.47.701 1.044.45.576-.251 1.04-.859 1.038-1.358a.547.547 0 00-.005-.083c-.05-.438-.498-.604-1.04-.367z" fill="#BBBDBF"/><path d="M52.358 51.455c-.394.172-.717.575-.751.925a.5.5 0 00-.003.063c.002.363.342.51.76.327.418-.182.757-.625.755-.988a.444.444 0 00-.004-.06c-.038-.32-.362-.44-.757-.267z" fill="#929497"/><path d="M53.115 51.72c-.03-.263-.259-.39-.56-.33.235-.004.402.121.429.346.002.02.004.04.004.06.001.363-.337.806-.756.989a.986.986 0 01-.196.063.869.869 0 00.328-.078c.418-.182.757-.625.756-.988-.002-.021-.002-.042-.005-.061z" fill="#D0D2D3"/><path d="M52.646 52.182c.021-.01.043-.013.06-.005.033.014.033.061 0 .104a.162.162 0 01-.06.048c-.022.01-.044.012-.06.005-.034-.015-.034-.062 0-.105a.16.16 0 01.06-.047zm-.333-.238c.107-.046.194-.01.194.084 0 .092-.086.206-.193.252-.107.046-.194.01-.194-.084 0-.092.085-.205.193-.252zm0 .502c.048-.02.086-.004.086.037 0 .041-.038.09-.086.11-.047.021-.085.005-.085-.036.001-.04.04-.09.085-.11zm-.332.026a.083.083 0 01.06-.005c.034.014.034.061 0 .104a.162.162 0 01-.06.048.083.083 0 01-.06.006c-.033-.015-.033-.062 0-.105a.155.155 0 01.06-.048zm.662-.867c.022-.01.044-.013.06-.005.034.014.034.061 0 .104a.163.163 0 01-.06.048c-.022.01-.043.013-.06.005-.033-.014-.033-.061 0-.104a.164.164 0 01.06-.048zm-.331.172c-.047.02-.085.005-.085-.037 0-.04.038-.09.085-.11.048-.02.086-.004.086.037-.002.04-.04.09-.086.11zm-.332.265c-.022.01-.043.013-.06.005-.034-.014-.034-.061 0-.104a.163.163 0 01.06-.048.075.075 0 01.06-.004c.034.014.034.061 0 .104a.15.15 0 01-.06.047zm.717-.097c0-.04.038-.09.086-.11.047-.021.085-.005.085.036 0 .041-.038.09-.085.111-.047.02-.086.003-.086-.037zm-.854.298c.047-.02.085-.004.085.037 0 .041-.038.09-.085.11-.048.021-.086.005-.086-.036 0-.04.038-.09.086-.11z" fill="#3A3D3F"/><path d="M49.69 52.752l-5.772-2.467-.01-2.636 5.773 2.467.01 2.636z" fill="#D0D2D3"/><path d="M49.68 50.115l-5.771-2.467.784-2.562 5.772 2.466-.784 2.563z" fill="#70565D"/><path d="M50.465 47.552l-5.772-2.466 3.87-1.689 5.772 2.467-3.87 1.688zm-5.772-2.466l-.785 2.563 5.771 2.466.786-2.562-5.772-2.467zm4.835 4.766l-5.36-2.29.678-2.215 5.36 2.291-.678 2.214z" fill="#E6E7E8"/><path d="M44.938 48.583v1.692l3.723 1.627v-1.693l-3.724-1.626z" fill="#4F565B"/><path d="M49.408 52.28v.594l-5.742-2.495v-.593l5.742 2.494z" fill="#D0D2D3"/><path d="M49.408 52.28v.594l.282-.12v-.594l-.282.12z" fill="#BBBDBF"/><path d="M43.669 49.785l5.74 2.495.283-.12-5.74-2.495-.283.12z" fill="#E6E7E8"/><path fill-rule="evenodd" clip-rule="evenodd" d="M49.68 51.554l-.922-.402v.419l.923.398v-.415zm-4.85-2.117l-.921-.402v.42l.921.397v-.415z" fill="#F1F1F2"/><path d="M54.335 45.864l-3.87 1.688-.786 2.563.01 2.636.827-.363c.212-.748.902-1.531 1.726-1.89.82-.358 1.514-.183 1.732.376l.37-.162v-1.74l-.01-3.108z" fill="#BBBDBF"/><path d="M52.802 46.75c.04-.018.073-.004.075.031l.005 1.529c0 .035-.032.078-.073.096l-2.568 1.12c-.05.023-.087-.006-.07-.055l.455-1.73a.138.138 0 01.07-.073l2.106-.919z" fill="#70565D"/><path d="M49.267 52.429v.271l-.699-.303v-.272l.699.304zm-4.79-2.074v.272l-.698-.303v-.272l.698.303z" fill="#F6921E"/><path d="M62.5 46.111v.985l-2.431 1.041v-.964l2.43-1.062z" fill="#BBBDBF"/><path d="M60.068 48.137l-.458-.19v-.573l.458-.201v.964z" fill="#96999B"/><path opacity=".2" d="M50.206 47.64l-6.038-.078.678-2.213 5.36 2.29z" fill="#fff"/><path d="M70.695 36.628l1.225.185 2.203 2.161-.26 1.99-3.161 2.634-.007-6.97z" fill="#4571A2"/><path d="M70.695 36.628l.007 6.97 3.16-2.633.26-1.99-2.202-2.161-1.225-.186zm.395.363l.607.092 2.017 1.98-.232 1.774-2.387 1.99-.005-5.836z" fill="#70A0D2"/><path d="M65.725 34.089l6.195 2.724-1.225-.185-6.198-2.725 1.228.186zM54.902 43.75v5.225l-.277-.121V43.63l.277.12z" fill="#568BC8"/><path d="M54.902 43.75v5.225l.25-.11V43.64l-.25.11z" fill="#70A0D2"/><path d="M54.625 43.63l.277.12.25-.11-.276-.12-.25.11z" fill="#F5F6F7"/><path d="M54.902 43.485v.265l-6.453-2.834v-.264l6.453 2.833z" fill="#568BC8"/><path d="M54.902 43.485v.264l.25-.11v-.263l-.25.11z" fill="#70A0D2"/><path d="M48.45 40.652l6.452 2.833.25-.108-6.453-2.835-.25.11z" fill="#86B7E2"/><path d="M58.71 42.092v5.226l-.276-.12v-5.226l.277.12z" fill="#568BC8"/><path d="M58.71 42.092v5.226l.25-.11v-5.225l-.25.11z" fill="#70A0D2"/><path d="M58.434 41.972l.277.12.25-.11-.276-.12-.25.11z" fill="#F5F6F7"/><path d="M58.71 41.829v.263l-6.452-2.833v-.264l6.453 2.834z" fill="#568BC8"/><path d="M58.71 41.829v.263l.25-.11v-.263l-.25.11z" fill="#70A0D2"/><path d="M52.258 38.995l6.453 2.834.25-.11-6.453-2.834-.25.11z" fill="#86B7E2"/><path d="M62.518 40.429v5.224l-.275-.12v-5.225l.275.12z" fill="#568BC8"/><path d="M62.518 40.429v5.224l.251-.109V40.32l-.25.11z" fill="#70A0D2"/><path d="M62.243 40.308l.275.12.251-.109-.275-.12-.251.109z" fill="#F5F6F7"/><path d="M70.63 36.892v5.225l-.277-.121v-5.225l.277.12z" fill="#568BC8"/><path d="M70.63 36.892v5.225l.25-.11v-5.225l-.25.11z" fill="#70A0D2"/><path d="M70.353 36.77l.277.122.25-.11-.275-.12-.252.109z" fill="#F5F6F7"/><path d="M70.63 36.627v.265l-6.453-2.834v-.265l6.453 2.834z" fill="#568BC8"/><path d="M70.63 36.627v.265l.25-.11v-.264l-.25.11z" fill="#70A0D2"/><path d="M64.177 33.793l6.453 2.834.25-.11-6.453-2.832-.25.108z" fill="#86B7E2"/><path d="M57.946 37.929v.263l7.828-3.438v-.265l-7.828 3.44z" fill="#568BC8"/><path d="M57.946 37.929v.263l-.251-.11v-.263l.25.11z" fill="#70A0D2"/><path d="M65.774 34.49l-7.828 3.439-.251-.11 7.828-3.438.251.108z" fill="#86B7E2"/><path d="M58.727 38.273v.265l7.828-3.44v-.263l-7.828 3.438z" fill="#568BC8"/><path d="M58.727 38.273v.265l-.25-.11v-.264l.25.11z" fill="#70A0D2"/><path d="M66.556 34.835l-7.829 3.438-.25-.11 7.829-3.438.25.11z" fill="#86B7E2"/><path d="M59.508 38.618v.264l7.83-3.439v-.264l-7.83 3.439z" fill="#568BC8"/><path d="M59.508 38.618v.264l-.25-.11v-.264l.25.11z" fill="#70A0D2"/><path d="M67.338 35.18l-7.83 3.438-.25-.11 7.829-3.439.25.11z" fill="#86B7E2"/><path d="M60.29 38.963v.264l7.829-3.44v-.264l-7.828 3.44z" fill="#568BC8"/><path d="M60.291 38.963v.264l-.251-.11v-.264l.251.11z" fill="#70A0D2"/><path d="M68.12 35.523l-7.829 3.44-.25-.11 7.828-3.438.25.108z" fill="#86B7E2"/><path d="M61.072 39.307v.265l7.828-3.44v-.263l-7.828 3.438z" fill="#568BC8"/><path d="M61.073 39.307v.265l-.251-.11v-.264l.25.11z" fill="#70A0D2"/><path d="M68.9 35.869l-7.827 3.438-.251-.11 7.83-3.438.249.11z" fill="#86B7E2"/><path d="M62.518 40.164v.265l-6.451-2.834v-.265l6.451 2.834z" fill="#568BC8"/><path d="M62.518 40.164v.265l.251-.11v-.264l-.25.11z" fill="#70A0D2"/><path d="M56.067 37.33l6.451 2.834.251-.11-6.453-2.832-.25.108z" fill="#86B7E2"/><path d="M69.648 37.817l-6.138 2.674v3.326l6.14-2.675-.002-3.325z" fill="#E0E4E4"/><path d="M69.65 37.817l-.197.085v3.158l.196.083v-3.326z" fill="#568BC8"/><path d="M69.453 41.06l-5.943 2.57v.188l6.14-2.674-.197-.083z" fill="#70A0D2"/><path d="M68.555 40.008a.048.048 0 01-.008-.008c-.052.047-.1.095-.15.142 0-.004 0-.007.002-.012l.23-.464a.034.034 0 01.017-.015l.484-.203.008-.002-.152.141.008.01c.043.046.086.09.128.137.026.029.027.067 0 .12l-.273.528-.01.017v-.007a.169.169 0 00-.048-.135l-.236-.25z" fill="#50BC5F"/><path d="M68.099 40.688l-.15-.15.215-.093.498-.217a.012.012 0 01.013.002l.075.082c.02.025.034.054.035.091.006.115-.103.262-.238.321l-.226.098c-.13.058-.276.121-.367.16l.145-.275c.003-.009.004-.014 0-.019z" fill="#50BC5F"/><path d="M67.222 40.858l.24-.104.24-.105a.097.097 0 00.015-.007v-.15l.003-.003.005.006.247.249c.006.005.003.01-.001.018l-.243.46-.01.012v-.15l-.016.007-.166.073-.085.037c-.054.023-.094.021-.123-.008-.09-.099-.183-.196-.275-.295l-.007-.008a.325.325 0 00.176-.032zm1.337-1.274l-.14.281a15.22 15.22 0 01-.135-.143l-.212-.225a.016.016 0 01-.003-.013c.029-.056.056-.11.087-.165a.425.425 0 01.254-.207c.072-.022.123-.009.16.03l.291.307-.287.12c-.007.003-.011.008-.015.015z" fill="#50BC5F"/><path d="M67.01 40.568l.282-.548.135.151c.005.005.009.007.017.003.097-.044.195-.089.293-.132l-.356.691a.034.034 0 01-.013.013l-.094.04-.073.031c-.092.037-.163.031-.206-.021-.014-.017-.022-.04-.031-.06v-.054a.634.634 0 01.046-.114z" fill="#50BC5F"/><path d="M67.943 39.638l-.092.181.153.008-.008.005c-.162.071-.322.144-.483.217-.008.004-.012.002-.016-.002a540.09 540.09 0 01-.232-.258l-.006-.008c.002 0 .002-.002.003-.002l.147.011c.002-.006.006-.01.009-.016l.13-.251a.227.227 0 01.094-.096l.59-.258a.6.6 0 00-.153.205l-.136.264zm-1.399.223l-2.623 1.143v.385l2.623-1.143v-.385zm0 .683l-2.623 1.142v.387l2.623-1.144v-.385z" fill="#50BC5F"/><path d="M64.38 38.9v15.776l1.483-.648V38.254l-1.484.647z" fill="#E0E4E4"/><path d="M64.38 38.9v15.776l-1.347-.59V38.31l1.346.59z" fill="#D3D3D3"/><path d="M65.863 38.254l-1.484.647-1.347-.59 1.483-.647 1.348.59z" fill="#F5F6F7"/><path d="M43.692 36.411v9.234l1.483-.647v-9.234l-1.483.647z" fill="#E0E4E4"/><path d="M43.692 36.411v9.234l-1.347-.59v-9.232l1.347.588z" fill="#D3D3D3"/><path d="M45.175 35.764l-1.483.647-1.346-.588 1.482-.648 1.347.59z" fill="#F5F6F7"/><path d="M97.76 39.527l13.014-.981v13.929l-13.02 5.721.006-18.67z" fill="#E0E4E4"/><path d="M68.138 19.86l42.636 18.686-13.014.98-42.73-18.728 13.108-.939z" fill="#418899"/><path d="M85.073 49.919L97.76 39.527v18.67l-12.693 5.506.006-13.784z" fill="#E0E4E4"/><path d="M55.037 20.798L97.76 39.527 85.073 49.919l-42.727-18.73 12.69-10.39z" fill="#5BA0B2"/><path d="M42.345 31.189l42.728 18.73-.006 4.555-42.722-18.651v-4.634z" fill="#D3D3D3"/><path d="M44.955 0L0 19.766l23.118 10.26L68.183 10.21 44.955 0zM2.387 19.77L44.953 1.053l20.833 9.157-42.665 18.76-20.734-9.202z" fill="#F5F6F7"/><path d="M80.499 43.738v6.51l1.484-.647v-6.51l-1.484.647z" fill="#E0E4E4"/><path d="M80.499 43.738v6.51l-35.54-15.502v-6.511l35.54 15.503z" fill="#D3D3D3"/><path d="M81.983 43.09l-1.484.648-35.54-15.503 1.483-.648 35.54 15.504z" fill="#F5F6F7"/><path d="M49.069 33.534l.018-.016.354.33a.04.04 0 00-.006-.025c-.18-.364-.362-.727-.54-1.09a.067.067 0 00-.039-.036c-.38-.16-.758-.32-1.138-.478l-.019-.005.357.332-.02.022-.299.322c-.062.067-.062.16 0 .281l.64 1.241.022.04.001-.015a.404.404 0 01.116-.318l.553-.585z" fill="#50BC5F"/><path d="M50.14 35.132c.119-.117.235-.235.352-.353l-.502-.22c-.42-.183-.9-.392-1.17-.508-.011-.006-.026-.003-.032.004-.058.063-.118.127-.173.192a.347.347 0 00-.083.215c-.014.27.243.614.561.755l.528.23.864.377-.342-.647c-.01-.02-.015-.033-.002-.045z" fill="#50BC5F"/><path d="M52.2 35.533l-.565-.246-.564-.246c-.01-.005-.023-.01-.036-.018l.001-.354-.007-.005-.013.012-.581.584c-.012.012-.007.026.003.044l.57 1.08c.005.01.01.019.023.03v-.352c.016.006.028.01.04.016l.392.171.197.085c.127.055.224.051.289-.018.214-.231.43-.46.645-.691.006-.005.01-.011.017-.02a.76.76 0 01-.411-.072zm-3.14-2.993l.328.66.319-.335.498-.528c.006-.007.01-.022.005-.032-.066-.129-.132-.258-.205-.386a1.021 1.021 0 00-.595-.486c-.168-.051-.29-.02-.376.069l-.684.721.676.284c.016.005.026.015.034.033z" fill="#50BC5F"/><path d="M52.698 34.852l-.665-1.288-.32.356c-.01.01-.02.014-.04.005l-.687-.309.834 1.623c.005.009.02.023.03.027l.22.098c.057.024.114.049.17.071.216.086.382.072.485-.05.034-.039.05-.093.074-.141v-.124a1.087 1.087 0 00-.101-.268z" fill="#50BC5F"/><path d="M50.508 32.665l.217.425-.36.02c.012.008.014.01.017.01l1.136.51c.02.01.03.005.038-.005l.544-.606.013-.017-.005-.006-.345.026-.022-.04-.305-.589a.53.53 0 00-.19-.205l-.031-.02-1.385-.604c.168.142.274.305.36.482.103.206.213.413.318.619zm6.69 3.415c.003-.57-.45-1.054-1.356-1.45l-1.093-.476-.011 2.896.902.393.004-1.052.228.099.703 1.361 1.02.446-.966-1.686c.38-.018.568-.197.57-.531zm-1.383-.206l-.168-.074.002-.662.178.078c.31.134.463.302.463.501-.002.243-.162.294-.475.157zm3.206.756c-.41-.179-.724-.214-.947-.108-.22.105-.332.348-.333.727-.002.367.116.703.354 1.005.237.303.572.548 1 .736.208.09.386.156.535.198.15.04.295.06.434.06l.003-.556a2.119 2.119 0 01-.429-.056 2.59 2.59 0 01-.432-.15 1.132 1.132 0 01-.407-.283.603.603 0 01-.158-.365l1.596.696.001-.345a1.404 1.404 0 00-.316-.9c-.212-.27-.511-.489-.9-.659zm-.36.728c.013-.117.055-.19.126-.215.07-.027.158-.018.264.029a.65.65 0 01.273.216.54.54 0 01.104.304l-.766-.334zm3.329 1.177c.1.043.196.098.286.162.092.064.191.14.298.228l.265-.458a3.296 3.296 0 00-.847-.54c-.435-.19-.77-.235-1.006-.132-.238.102-.357.339-.358.711a1.62 1.62 0 00.325.997c.217.293.537.532.96.717.322.14.599.196.83.164l.002-.616a1.465 1.465 0 01-.753-.13c-.306-.134-.458-.38-.457-.74 0-.178.04-.299.12-.362.08-.064.19-.065.336-.001zm2.45 1.793a.888.888 0 00-.055.217l-.018-.009a1.404 1.404 0 00-.043-.263l-.433-1.479-.94-.41 1.01 2.658a.516.516 0 01-.143.175.276.276 0 01-.155.045.535.535 0 01-.207-.05 2.134 2.134 0 01-.277-.145l-.003.61c.125.075.246.14.365.193.308.134.556.18.748.137.19-.042.352-.186.485-.432l1.031-1.943-.911-.397-.453 1.093zm2.92.549c.099.043.192.097.284.162.091.064.19.139.299.228l.264-.458a3.317 3.317 0 00-.846-.54c-.436-.19-.77-.235-1.008-.132-.236.102-.355.34-.357.711-.001.371.106.703.325.996.217.293.538.532.961.717.323.14.599.196.83.164l.003-.616a1.459 1.459 0 01-.754-.132c-.307-.133-.459-.38-.457-.738.001-.179.042-.3.12-.362.08-.062.192-.063.336 0zm1.265 2.23l.891.39.011-3.084-.89-.388-.012 3.082zm1.515.661l.892.39.01-2.245-.895-.39-.008 2.245zm.46-2.952c-.165-.072-.284-.095-.36-.072-.075.025-.113.096-.113.212-.001.226.156.409.47.546.32.14.478.094.48-.132a.464.464 0 00-.113-.307.96.96 0 00-.364-.247zm2.68 2.036a1.349 1.349 0 00-.465-.124c-.135-.006-.24.027-.316.1l-.052-.022-.11-.326-.673-.293-.008 2.244.891.389.004-.982c.001-.253.035-.42.102-.494.066-.075.177-.08.327-.015.11.049.188.121.237.219.05.098.075.221.073.37l-.004 1.224.891.389.006-1.46a1.154 1.154 0 00-.236-.71 1.588 1.588 0 00-.666-.51zm3.952 1.762l-.9-.394a7.846 7.846 0 00-.5-.256c-.355-.156-.63-.207-.822-.157-.191.052-.287.2-.289.444a.93.93 0 00.114.45c.076.143.182.27.315.38-.141.012-.233.036-.278.07-.044.034-.067.086-.067.155a.45.45 0 00.087.231.97.97 0 00.205.23c-.382-.088-.575.002-.576.27-.002.198.097.395.295.588.198.192.48.369.848.53.484.21.861.299 1.13.264.27-.035.404-.189.406-.461 0-.425-.288-.763-.867-1.016l-.429-.187a1.54 1.54 0 01-.28-.152c-.073-.053-.108-.098-.108-.136 0-.031.01-.058.033-.084.055.035.131.073.228.115.388.17.678.23.874.183.196-.05.295-.193.296-.435a.667.667 0 00-.073-.3l.354.042.004-.374zm-1.615 1.621l.348.153c.15.064.262.127.34.186.08.059.119.118.119.178 0 .073-.067.105-.196.096a1.745 1.745 0 01-.52-.156 1.155 1.155 0 01-.317-.196c-.078-.072-.119-.142-.119-.206 0-.056.034-.09.1-.1a.444.444 0 01.245.045zm.417-1.147c-.047.036-.112.037-.198 0-.184-.08-.276-.236-.275-.466.001-.23.093-.304.278-.224.178.078.266.233.266.465 0 .114-.025.188-.07.225z" fill="#50BC5F"/><path d="M44.959 28.235v6.51l35.54 15.504v-6.51L44.96 28.234zm34.852 21.113L45.648 34.445v-5.309l34.163 14.903v5.309z" fill="#50BC5F"/><path d="M95.954 60.6v4.263l-6.69-2.713v-4.262l6.69 2.713z" fill="#5BA0B2"/><path d="M95.954 60.601v4.262L114 57.546v-4.262L95.954 60.6z" fill="#418899"/><path d="M89.264 57.888l6.69 2.713L114 53.284l-6.69-2.713-18.046 7.317z" fill="#2F747F"/><path d="M89.264 57.888l6.69 2.713L114 53.284l-6.69-2.713-18.046 7.317zm6.69 2.336l-5.761-2.336 17.117-6.94 5.762 2.336-17.118 6.94z" fill="#73B8C9"/><path d="M107.31 50.948v3.655l1.254.509 4.508-1.828-5.762-2.336z" fill="#5BA0B2"/><path d="M107.31 50.948v3.655L94.7 59.715l-4.507-1.827 17.117-6.94zM94.718 64.362l-.383-.156v-3.6l.383.156v3.6zm-1.006-.408l-.383-.156v-3.6l.383.156v3.6zm-1.004-.408l-.383-.156v-3.6l.383.156v3.6zm-1.005-.408l-.384-.156v-3.6l.384.156v3.6zm-1.005-4.008v3.6l-.383-.156v-3.6l.383.156z" fill="#418899"/><path d="M9.499 51.63v.706l.874.434v-.706l-.874-.433z" fill="#D3D3D3"/><path d="M15.057 49.735v.705l-4.684 2.33v-.706l4.684-2.33z" fill="#E0E4E4"/><path d="M14.183 49.302L9.499 51.63l.874.433 4.684-2.33-.874-.432z" fill="#F5F6F7"/><path d="M4.449 49.118v.705l.874.435v-.706l-.874-.434z" fill="#D3D3D3"/><path d="M10.007 47.222v.706l-4.684 2.33v-.706l4.684-2.33z" fill="#E0E4E4"/><path d="M9.133 46.79l-4.684 2.328.874.434 4.684-2.33-.874-.433z" fill="#F5F6F7"/><path d="M0 46.912v.705l.874.434v-.705L0 46.912z" fill="#D3D3D3"/><path d="M5.558 45.016v.705l-4.684 2.33v-.705l4.684-2.33z" fill="#E0E4E4"/><path d="M4.684 44.582L0 46.912l.874.434 4.684-2.33-.874-.434z" fill="#F5F6F7"/><path d="M.533 45.32c.003-.072.009-.143.018-.216.147-1.188 1.163-2.534 2.364-3.088.617-.284 1.168-.307 1.57-.115l.032.016.011.005 9.979 4.957-.377.463.01.102c.004.066.005.135.003.206-.041 1.237-1.107 2.715-2.382 3.303-.18.083-.353.144-.52.183l-.179.37-9.842-4.884c-.443-.199-.708-.652-.687-1.302z" fill="#5ACA6E"/><path d="M.611 44.78a2.664 2.664 0 00-.078.54c-.021.65.244 1.104.687 1.303l9.844 4.884.179-.37c.166-.04.34-.1.52-.184.201-.093.398-.208.586-.342L.611 44.781z" fill="#50BC5F"/><path d="M3.65 41.794c-.23.03-.477.103-.736.222a3.76 3.76 0 00-.56.324l11.708 5.86a2.61 2.61 0 00.08-.55 2.087 2.087 0 00-.012-.308l.175-.215-10.656-5.333z" fill="#5CE56F"/><path d="M12.823 46.932c-1.2.553-2.217 1.9-2.364 3.088a2.337 2.337 0 00-.018.215c-.04 1.237.958 1.764 2.233 1.176 1.274-.588 2.34-2.067 2.381-3.304.002-.07.002-.14-.003-.206-.072-1.087-1.028-1.523-2.23-.97z" fill="#34A750"/><path d="M10.03 45.549v.251c0 .22.447.396 1.001.396.554 0 1.002-.177 1.002-.396v-.251h-2.004z" fill="#D3D3D3"/><path d="M12.033 45.549c0 .219-.448.396-1.002.396s-1.002-.177-1.002-.396c0-.219.448-.396 1.002-.396s1.002.178 1.002.396z" fill="#F5F6F7"/><path d="M4.158 42.631v.25c0 .22.448.397 1.002.397s1.002-.177 1.002-.396v-.251H4.158z" fill="#D3D3D3"/><path d="M6.162 42.631c0 .219-.448.396-1.002.396s-1.002-.177-1.002-.396c0-.219.448-.396 1.002-.396s1.002.177 1.002.396z" fill="#F5F6F7"/></svg>
