<svg width="69" height="44" fill="none" xmlns="http://www.w3.org/2000/svg"><path d="M20.212 0v13.33c0 10.823 13.1 16.475 14.781 16.523 1.682-.048 14.79-5.7 14.79-16.522V0h-29.57z" fill="#fff"/>
<path d="M21.696 1.435V13.43c0 9.735 11.786 14.82 13.298 14.864C36.508 28.25 48.3 23.164 48.3 13.429V1.435H21.696z" fill="#fff"/>
<path d="M21.675 8.752l-.001-7.314 26.632-.003v7.317H21.675z" fill="#A90533"/><path d="M46.892 18.994L35.025 8.772l-11.9 10.263c1.046 1.997 2.547 3.677 4.153 5.033l7.747-7.204 7.71 7.188c1.61-1.363 3.115-3.051 4.157-5.058z" fill="#004785"/>
<path d="M26.142 18.433c0-1.303 1.17-2.361 2.618-2.361 1.446 0 2.62 1.058 2.62 2.36 0 1.31-1.174 2.365-2.62 2.365-1.449 0-2.618-1.054-2.618-2.364zM32.42 13.412c0-1.3 1.173-2.36 2.618-2.36 1.446 0 2.62 1.06 2.62 2.36 0 1.304-1.174 2.364-2.62 2.364-1.445 0-2.618-1.06-2.618-2.364zM41.42 20.797c-1.45 0-2.62-1.054-2.62-2.364 0-1.303 1.17-2.361 2.62-2.361 1.444 0 2.62 1.058 2.62 2.36 0 1.31-1.175 2.365-2.62 2.365z" fill="#fff"/>
<path fill-rule="evenodd" clip-rule="evenodd" d="M33.948 42.178v-2.592c-.93.362-3.323.887-3.323 2.013 0 .745.62 1.362 1.486 1.362.785 0 1.239-.384 1.837-.783zm.027-3.043v-1.979c0-.726-.515-.92-1.279-.92-.743 0-1.811.453-1.816.847 0 .109.049.242.049.424 0 .69-.193 1.156-1.08 1.156-.371 0-.62-.327-.62-.618 0-.4.31-.78.743-1.108.928-.69 2.414-1.253 3.631-1.253 1.26 0 1.94.672 1.94 1.762v4.864c0 .31 0 .855.475.855.33 0 .515-.381.578-.618h.33c-.104.871-.516 1.38-1.506 1.38-.765 0-1.404-.617-1.425-1.252-.97.635-1.63 1.252-2.91 1.252-.948 0-1.836-.671-1.836-1.544 0-1.994 3.055-2.611 4.726-3.248zM51.9 39.8c0 1.398.578 3.709 2.599 3.709 1.962 0 2.642-1.837 2.642-3.273 0-1.543-.248-4.18-2.62-4.18-2.024 0-2.621 2.384-2.621 3.744zm-1.755-.072c0-2.196 1.754-4.066 4.312-4.066 2.703 0 4.437 1.833 4.437 4.139 0 2.36-1.693 4.104-4.415 4.104-2.766 0-4.334-1.871-4.334-4.177z" fill="#fff"/>
<path d="M0 31.566v-.422h4.69v.422c-.866.018-1.196.015-1.196.486 0 .02.014.145.097.326l2.828 8.662 3.978-10.31h.328l3.471 10.183s2.744-7.444 2.744-8.498c0-.834-.584-.777-1.327-.85v-.421l2.875-.003c1.266 0 2.556-.388 3.29-.786v6.585c.89-.715 1.65-1.29 2.93-1.29.948 0 1.836.383 2.311 1.109.433.635.516 1.234.516 1.942v3.65c0 .944.267.944 1.176.998v.344h-3.92v-.344c.846-.054 1.114-.054 1.114-.999V38.7c0-.58 0-.834-.29-1.38-.33-.527-.918-1.035-1.67-.925-1.137.166-1.575.644-2.167 1.153v4.802c0 .945.268.945 1.135.999v.344h-3.961v-.344c.928-.054 1.196-.054 1.196-.999V31.677c.024-.016-.322-.004-.743.004-1.583.091-1.624 1.175-2.127 2.477l-3.556 9.767h-.371l-3.51-9.79-4.063 9.79h-.35l-3.75-10.747c-.224-.56-.33-1.035-.66-1.343-.186-.164-.195-.272-1.018-.27zM63.043 43.704v-.344c-.889-.055-1.156-.055-1.156-.999v-4.302c0-.835 1.237-1.599 2.126-1.599 1.34 0 2.063.763 2.063 1.907v3.994c0 .944-.268.944-1.198 1v.343h4.085v-.344c-.7-.055-1.257-.055-1.257-.999v-4.302c0-1.362-1.528-2.397-3.012-2.397-1.3 0-1.961.543-2.807 1.306v-1.306c-.888.291-1.828.712-2.796.829v.288c.86.08 1.165.33 1.165 1.019v4.563c0 .944-.268.944-1.196 1v.343h3.983zM41.484 43.704v-.344c-1.052-.055-1.32-.055-1.32-.999v-4.81c0-.291.534-.743 1.114-.75.536-.007.63.56 1.303.56.826 0 1.029-.398 1.029-.94 0-.564-.673-.885-1.425-.885-.887 0-1.573.695-2.063 1.305v-1.233c-.936.388-1.949.748-2.873.88v.291c.921.086 1.283.283 1.283.99v4.594c0 .943-.268.943-1.155.999v.344h4.107v-.002zM50.096 36.106l.3-.999h-3.55V33.49h-.209a23.25 23.25 0 01-2.586 2.407v.21h1.127v5.472c0 1.3.649 2.377 2.209 2.377 1.34 0 2.36-.879 2.913-1.466l-.245-.308c-.487.492-1.131.775-1.715.775-1.193 0-1.496-.58-1.496-1.579v-5.271h3.252z" fill="#fff"/>
</svg>