<svg width="51" height="19" viewBox="0 0 51 19" fill="none" xmlns="http://www.w3.org/2000/svg">
<path d="M24.5 6.50003L24.5 5.00003L24.5 6.50003ZM49.2225 16.4834C50.0418 16.3605 50.6063 15.5968 50.4834 14.7775L48.4808 1.42688C48.3579 0.607621 47.5941 0.0431023 46.7748 0.165995C45.9556 0.288887 45.3911 1.05265 45.514 1.87191L47.2941 13.7391L35.4268 15.5193C34.6076 15.6422 34.0431 16.4059 34.166 17.2252C34.2889 18.0445 35.0526 18.609 35.8719 18.4861L49.2225 16.4834ZM2 15C3.06066 16.0607 3.06027 16.0611 3.0599 16.0614C3.05983 16.0615 3.05949 16.0619 3.05934 16.062C3.05903 16.0623 3.05884 16.0625 3.05878 16.0626C3.05867 16.0627 3.05906 16.0623 3.05997 16.0614C3.06177 16.0596 3.06561 16.0558 3.07148 16.0501C3.08321 16.0387 3.10302 16.0195 3.13083 15.9932C3.18646 15.9405 3.27402 15.8589 3.39277 15.7527C3.63035 15.5401 3.99233 15.229 4.47281 14.852C5.43445 14.0975 6.86632 13.0825 8.72125 12.0652C12.4321 10.0302 17.8099 8.00002 24.5 8.00003L24.5 5.00003C17.1901 5.00002 11.3179 7.2198 7.27875 9.43481C5.25868 10.5426 3.69055 11.6526 2.62094 12.4918C2.08579 12.9117 1.67434 13.2647 1.39238 13.5169C1.25137 13.6431 1.14264 13.7442 1.06692 13.816C1.02906 13.8519 0.999434 13.8804 0.978143 13.9012C0.967497 13.9115 0.958933 13.92 0.952463 13.9263C0.949227 13.9295 0.946515 13.9322 0.944327 13.9344C0.943233 13.9355 0.942271 13.9364 0.941439 13.9373C0.941024 13.9377 0.940498 13.9382 0.94029 13.9384C0.939798 13.9389 0.939339 13.9394 2 15ZM24.5 8.00003C30.6922 8.00004 36.5885 10.0305 40.9845 12.1064C43.1728 13.1398 44.9656 14.1731 46.2078 14.9457C46.8284 15.3316 47.3102 15.6517 47.6337 15.8729C47.7954 15.9835 47.9175 16.0694 47.9974 16.1263C48.0374 16.1548 48.0669 16.176 48.0855 16.1896C48.0948 16.1963 48.1013 16.2011 48.1052 16.2039C48.1071 16.2053 48.1083 16.2062 48.1089 16.2066C48.1091 16.2068 48.1092 16.2069 48.1092 16.2069C48.1091 16.2068 48.1089 16.2067 48.1089 16.2067C48.1087 16.2065 48.1084 16.2063 49 15C49.8916 13.7938 49.8912 13.7935 49.8908 13.7932C49.8906 13.7931 49.8902 13.7927 49.8898 13.7924C49.889 13.7919 49.8881 13.7912 49.8869 13.7903C49.8847 13.7887 49.8817 13.7865 49.878 13.7838C49.8707 13.7785 49.8606 13.7711 49.8478 13.7617C49.8221 13.7431 49.7853 13.7166 49.7379 13.6828C49.6431 13.6153 49.5054 13.5185 49.3272 13.3967C48.9711 13.1531 48.4528 12.8091 47.7922 12.3982C46.4719 11.577 44.5772 10.4853 42.2655 9.39366C37.6615 7.21955 31.3077 5.00004 24.5 5.00003L24.5 8.00003Z" fill="#68BA51"/>
</svg>
