<svg width="177" height="119" fill="none" xmlns="http://www.w3.org/2000/svg"><path d="M31.293 5.102l3.447-1.843v7.44l-3.447 1.83V5.103z" fill="#56616E"/><path d="M31.566 1.566l3.178 1.694-3.447 1.843-3.19-1.7 3.459-1.837z" fill="#637080"/><path d="M28.104 3.403l3.19 1.7v7.427l-3.19-1.687v-7.44z" fill="#4D5561"/><path d="M61.95 10.178H26.731v43.478a4.267 4.267 0 00-.127.68c-.005.048-.01.094-.013.14-.03.454.016.906.14 1.356v.002c.49 1.777 2.164 3.497 5.054 4.862 6.933 3.275 18.139 3.275 25.026 0 2.844-1.352 4.488-3.053 4.97-4.813h.169V10.177z" fill="#D2D2D2"/><path d="M60.72 21.675c-.851 1.04-2.154 2.015-3.92 2.856-6.903 3.281-18.133 3.281-25.08 0-2.897-1.368-4.573-3.092-5.065-4.873v27.203c.492 1.781 2.168 3.505 5.065 4.873 6.947 3.281 18.177 3.281 25.08 0 2.849-1.355 4.495-3.06 4.98-4.824v.001l.001-.003c.127-.462.172-.928.136-1.394-.001-.026-.005-.052-.008-.078l-.002-.024h.042v-25.91c0 .887-1.226 2.173-1.226 2.173h-.002z" fill="#17AFD9"/><path d="M56.724 4.629c6.933 3.274 6.97 8.584.086 11.857-6.888 3.275-18.094 3.275-25.027 0-6.933-3.274-6.966-8.583-.078-11.857 6.884-3.272 18.086-3.275 25.02 0z" fill="#33ADB9"/><path d="M31.707 6.808c6.884-3.272 18.087-3.275 25.019 0 2.892 1.366 4.566 3.087 5.056 4.865.687-2.5-.987-5.122-5.056-7.044-6.932-3.275-18.135-3.272-25.019 0-4.015 1.909-5.661 4.509-4.975 6.995.483-1.761 2.13-3.463 4.975-4.816z" fill="#D5CFAA"/><path opacity=".2" d="M44.256 10.178H26.73v43.478a4.265 4.265 0 00-.127.68c-.005.048-.01.094-.013.14-.03.454.016.906.14 1.356v.002c.49 1.777 2.164 3.497 5.054 4.862 3.45 1.63 7.962 2.449 12.47 2.455V10.177z" fill="#1B75BB"/><path d="M56.725 4.629c-3.466-1.637-7.999-2.455-12.526-2.455s-9.05.819-12.493 2.455c-6.887 3.274-6.854 8.583.078 11.857 3.467 1.637 8.001 2.456 12.53 2.456s9.052-.819 12.496-2.456c6.884-3.272 6.847-8.583-.085-11.857zm-.387 11.026c-3.188 1.516-7.458 2.35-12.025 2.35s-8.85-.835-12.061-2.351c-3.007-1.421-4.664-3.238-4.668-5.117-.002-1.865 1.628-3.667 4.592-5.076 3.188-1.515 7.456-2.35 12.022-2.35 4.565 0 8.847.835 12.056 2.35 3.009 1.422 4.667 3.24 4.67 5.121.004 1.864-1.625 3.665-4.586 5.073z" fill="#E7E6E7"/><path d="M41.025 8.718l3.447-1.843v1.863l-3.447 1.832V8.717z" fill="#56616E"/><path d="M31.564 0l12.907 6.876-3.446 1.843-12.92-6.882L31.566 0z" fill="#637080"/><path d="M28.106 1.837l12.919 6.882v1.85L28.105 3.7V1.837z" fill="#4D5561"/><path d="M4.732 17.444l3.447-1.843v7.44l-3.447 1.831v-7.428z" fill="#56616E"/><path d="M5.001 13.909l3.179 1.693-3.447 1.843-3.19-1.7 3.458-1.836z" fill="#637080"/><path d="M1.543 15.746l3.19 1.699-.001 7.427-3.189-1.686v-7.44z" fill="#4D5561"/><path d="M35.389 22.52H.17v43.478a4.173 4.173 0 00-.128.681c-.004.047-.01.093-.013.14-.03.453.017.905.14 1.355v.002H.17c.49 1.778 2.163 3.497 5.053 4.863 6.933 3.274 18.14 3.274 25.027 0 2.844-1.352 4.487-3.053 4.971-4.814h.168V22.52z" fill="#D2D2D2"/><path d="M34.159 34.018c-.852 1.04-2.154 2.015-3.921 2.855-6.902 3.282-18.133 3.282-25.08 0C2.261 35.505.585 33.782.093 32.001v27.203c.492 1.78 2.168 3.505 5.064 4.872 6.947 3.282 18.178 3.282 25.08 0 2.85-1.355 4.496-3.06 4.98-4.823.002-.001.002-.002.002-.003.126-.463.172-.928.136-1.394l-.008-.078-.002-.024h.042V31.845c0 .886-1.226 2.173-1.226 2.173h-.002z" fill="#17AFD9"/><path opacity=".2" d="M17.694 22.52H.17v43.478a4.173 4.173 0 00-.128.681c-.004.047-.01.093-.013.14-.03.453.017.905.14 1.355v.002H.17c.49 1.778 2.163 3.497 5.053 4.863 3.451 1.63 7.962 2.448 12.471 2.455V22.52z" fill="#1B75BB"/><path d="M30.162 16.974c6.932 3.274 6.969 8.584.085 11.857-6.887 3.274-18.093 3.274-25.025 0-6.933-3.274-6.966-8.583-.078-11.857 6.883-3.274 18.086-3.275 25.018 0z" fill="#33ADB9"/><path d="M5.146 19.15c6.884-3.272 18.086-3.274 25.018 0 2.892 1.366 4.567 3.087 5.057 4.866.687-2.501-.987-5.123-5.056-7.045-6.933-3.274-18.135-3.272-25.02 0-4.015 1.91-5.66 4.51-4.974 6.995.483-1.76 2.129-3.462 4.975-4.816z" fill="#D5CFAA"/><path d="M30.162 16.974c-3.465-1.637-7.998-2.455-12.525-2.455-4.528 0-9.051.819-12.493 2.455-6.888 3.274-6.855 8.583.078 11.857 3.466 1.637 8 2.456 12.53 2.456 4.528 0 9.052-.819 12.495-2.456 6.885-3.273 6.848-8.584-.085-11.857zm-.386 11.025c-3.188 1.516-7.458 2.35-12.024 2.35-4.567 0-8.85-.835-12.061-2.352-3.007-1.42-4.664-3.237-4.668-5.116-.002-1.864 1.628-3.667 4.592-5.076 3.188-1.515 7.457-2.35 12.022-2.35s8.847.835 12.056 2.35c3.008 1.422 4.667 3.24 4.67 5.121.003 1.864-1.626 3.665-4.587 5.073z" fill="#E7E6E7"/><path d="M14.462 21.06l3.448-1.842v1.863l-3.448 1.83v-1.85z" fill="#56616E"/><path d="M5.003 12.342L17.91 19.22l-3.447 1.843-12.918-6.883 3.458-1.837z" fill="#637080"/><path d="M1.545 14.18l12.918 6.882v1.85l-12.918-6.87v-1.863z" fill="#4D5561"/><path d="M52.786 14.059l3.447-1.843v7.44l-3.447 1.83V14.06z" fill="#56616E"/><path d="M53.059 10.523l3.178 1.694-3.447 1.842-3.19-1.699 3.459-1.837z" fill="#637080"/><path d="M49.597 12.36l3.19 1.7v7.427l-3.19-1.687v-7.44z" fill="#4D5561"/><path d="M83.443 19.134H48.224v43.479a4.265 4.265 0 00-.14.82c-.03.454.016.906.14 1.356v.002c.49 1.777 2.164 3.497 5.054 4.862 6.933 3.275 18.139 3.275 25.026 0 2.844-1.352 4.488-3.053 4.97-4.813h.169V19.134z" fill="#D2D2D2"/><path d="M78.217 13.586c6.933 3.274 6.97 8.584.085 11.857-6.887 3.275-18.093 3.275-25.026 0-6.933-3.274-6.966-8.583-.078-11.857 6.884-3.273 18.086-3.275 25.02 0z" fill="#33ADB9"/><path d="M53.2 15.765c6.884-3.273 18.087-3.275 25.019 0 2.891 1.366 4.566 3.087 5.056 4.865.687-2.501-.987-5.122-5.056-7.044-6.932-3.275-18.135-3.273-25.019 0-4.015 1.909-5.661 4.509-4.975 6.995.483-1.761 2.129-3.463 4.975-4.816z" fill="#D5CFAA"/><path d="M82.213 30.632c-.851 1.04-2.154 2.015-3.92 2.856-6.903 3.281-18.134 3.281-25.08 0-2.897-1.368-4.573-3.092-5.065-4.873v27.203c.492 1.781 2.168 3.505 5.065 4.873 6.947 3.281 18.177 3.281 25.08 0 2.848-1.355 4.495-3.06 4.98-4.824v-.002c.128-.462.173-.928.137-1.394-.001-.026-.005-.052-.008-.078l-.002-.024h.042v-25.91c0 .887-1.226 2.173-1.226 2.173h-.003z" fill="#17AFD9"/><path opacity=".2" d="M65.749 19.134H48.224v43.479a4.265 4.265 0 00-.14.82c-.03.454.016.906.14 1.356v.002c.49 1.777 2.164 3.497 5.054 4.862 3.45 1.63 7.962 2.448 12.47 2.455V19.134z" fill="#1B75BB"/><path d="M78.218 13.586c-3.466-1.637-7.999-2.455-12.526-2.455-4.528 0-9.05.819-12.493 2.455-6.887 3.274-6.854 8.583.078 11.857 3.467 1.637 8.001 2.456 12.53 2.456 4.528 0 9.052-.819 12.496-2.456 6.884-3.272 6.847-8.583-.085-11.857zm-.387 11.026c-3.188 1.516-7.458 2.35-12.025 2.35s-8.85-.835-12.061-2.352c-3.007-1.42-4.664-3.237-4.668-5.116-.002-1.865 1.628-3.667 4.592-5.076 3.188-1.515 7.456-2.35 12.022-2.35 4.565 0 8.847.835 12.056 2.35 3.008 1.422 4.666 3.24 4.67 5.121.004 1.864-1.625 3.665-4.586 5.073z" fill="#E7E6E7"/><path d="M62.517 17.675l3.447-1.843v1.863l-3.447 1.831v-1.85z" fill="#56616E"/><path d="M53.057 8.957l12.907 6.876-3.447 1.843L49.6 10.794l3.458-1.837z" fill="#637080"/><path d="M49.599 10.794l12.918 6.882v1.85L49.6 12.656v-1.862z" fill="#4D5561"/><path d="M26.224 26.401l3.448-1.843v7.44l-3.448 1.831v-7.428z" fill="#56616E"/><path d="M26.494 22.866l3.179 1.693-3.447 1.843-3.19-1.7 3.458-1.836z" fill="#637080"/><path d="M23.036 24.703l3.19 1.699-.001 7.427-3.19-1.686v-7.44z" fill="#4D5561"/><path d="M56.881 31.477H21.663v43.478a4.181 4.181 0 00-.14.821c-.03.453.016.905.14 1.355v.002c.49 1.778 2.163 3.497 5.053 4.863 6.933 3.274 18.14 3.274 25.027 0 2.844-1.352 4.487-3.053 4.971-4.813h.168V31.477z" fill="#D2D2D2"/><path d="M55.652 42.974c-.852 1.041-2.154 2.016-3.922 2.856-6.902 3.282-18.132 3.282-25.079 0-2.897-1.368-4.573-3.091-5.065-4.872V68.16c.492 1.78 2.168 3.505 5.064 4.872 6.947 3.282 18.178 3.282 25.08 0 2.85-1.355 4.496-3.06 4.98-4.823.002-.001.002-.002.002-.003.126-.463.172-.928.136-1.394l-.008-.078-.003-.024h.043V40.802c0 .886-1.227 2.172-1.227 2.172h-.001z" fill="#17AFD9"/><path opacity=".2" d="M39.187 31.477H21.663v43.478a4.18 4.18 0 00-.14.821c-.03.453.016.905.14 1.355v.002c.49 1.778 2.163 3.497 5.053 4.863 3.451 1.63 7.962 2.448 12.471 2.455V31.477z" fill="#1B75BB"/><path d="M51.655 25.93c6.932 3.275 6.969 8.585.085 11.858-6.887 3.275-18.093 3.275-25.026 0-6.932-3.274-6.965-8.583-.078-11.858 6.884-3.273 18.087-3.274 25.019 0z" fill="#33ADB9"/><path d="M26.639 28.107c6.883-3.272 18.086-3.274 25.018 0 2.892 1.366 4.566 3.087 5.057 4.865.687-2.5-.987-5.122-5.057-7.044-6.932-3.274-18.135-3.272-25.018 0-4.016 1.91-5.66 4.51-4.976 6.995.484-1.76 2.13-3.462 4.976-4.816z" fill="#D5CFAA"/><path d="M51.655 25.93c-3.466-1.636-7.998-2.454-12.526-2.454-4.527 0-9.05.819-12.493 2.455-6.887 3.274-6.854 8.583.078 11.857 3.467 1.637 8.001 2.456 12.53 2.456s9.052-.819 12.496-2.456c6.885-3.273 6.848-8.584-.085-11.857zm-.386 11.026c-3.188 1.516-7.458 2.35-12.024 2.35-4.567 0-8.85-.835-12.061-2.351-3.007-1.421-4.665-3.238-4.668-5.117-.002-1.864 1.628-3.667 4.592-5.076 3.187-1.515 7.457-2.35 12.021-2.35 4.566 0 8.848.835 12.057 2.35 3.008 1.422 4.666 3.24 4.67 5.121.003 1.864-1.626 3.665-4.587 5.073z" fill="#E7E6E7"/><path d="M35.955 30.018l3.447-1.843v1.863l-3.447 1.83v-1.85z" fill="#56616E"/><path d="M26.496 21.3l12.907 6.876-3.447 1.843-12.919-6.883 3.459-1.837z" fill="#637080"/><path d="M23.037 23.136l12.919 6.883v1.85l-12.919-6.87v-1.863z" fill="#4D5561"/><path d="M75.543 21.736l3.447-1.843v7.44l-3.447 1.831v-7.428z" fill="#56616E"/><path d="M75.816 18.2l3.178 1.694-3.447 1.843-3.19-1.7 3.459-1.836z" fill="#637080"/><path d="M72.354 20.038l3.19 1.699v7.427l-3.19-1.687v-7.44z" fill="#4D5561"/><path d="M106.2 26.812H70.981V70.29a4.267 4.267 0 00-.14.821c-.03.453.016.905.14 1.355v.002c.491 1.778 2.164 3.497 5.054 4.863 6.933 3.274 18.139 3.274 25.026 0 2.844-1.352 4.488-3.053 4.971-4.814h.168V26.813z" fill="#D2D2D2"/><path d="M104.971 38.31c-.852 1.04-2.155 2.015-3.922 2.855-6.902 3.282-18.132 3.282-25.08 0-2.896-1.368-4.572-3.091-5.064-4.872v27.203c.492 1.78 2.168 3.505 5.065 4.872 6.947 3.282 18.177 3.282 25.079 0 2.85-1.355 4.497-3.06 4.981-4.823l.001-.003c.127-.462.172-.928.137-1.393l-.009-.078-.002-.025h.042V36.137c0 .886-1.226 2.172-1.226 2.172h-.002z" fill="#17AFD9"/><path opacity=".2" d="M88.506 26.812H70.98V70.29a4.267 4.267 0 00-.14.821c-.03.453.016.905.14 1.355v.002c.491 1.778 2.164 3.497 5.054 4.863 3.45 1.63 7.962 2.448 12.47 2.455V26.812z" fill="#1B75BB"/><path d="M100.974 21.263c6.933 3.275 6.969 8.585.086 11.858-6.888 3.274-18.094 3.274-25.027 0-6.933-3.275-6.966-8.583-.078-11.858 6.884-3.272 18.086-3.274 25.019 0z" fill="#33ADB9"/><path d="M75.957 23.442c6.884-3.272 18.087-3.274 25.019 0 2.892 1.366 4.566 3.087 5.056 4.866.687-2.502-.987-5.123-5.056-7.045-6.932-3.274-18.135-3.272-25.019 0-4.015 1.91-5.661 4.51-4.975 6.995.483-1.76 2.13-3.462 4.975-4.816z" fill="#D5CFAA"/><path d="M100.975 21.263c-3.466-1.637-7.998-2.455-12.526-2.455s-9.05.82-12.493 2.455c-6.887 3.275-6.854 8.583.078 11.858 3.467 1.637 8.001 2.456 12.53 2.456s9.052-.82 12.496-2.456c6.884-3.272 6.847-8.583-.085-11.858zm-.387 11.026c-3.188 1.516-7.458 2.35-12.025 2.35s-8.85-.835-12.061-2.351c-3.007-1.42-4.664-3.237-4.667-5.117-.003-1.864 1.628-3.666 4.592-5.075 3.187-1.515 7.455-2.35 12.02-2.35 4.566 0 8.848.835 12.057 2.35 3.009 1.421 4.667 3.24 4.67 5.12.004 1.864-1.625 3.666-4.586 5.073z" fill="#E7E6E7"/><path d="M85.275 25.353l3.447-1.843v1.862l-3.447 1.832v-1.851z" fill="#56616E"/><path d="M75.814 16.634l12.908 6.877-3.447 1.843-12.919-6.883 3.458-1.837z" fill="#637080"/><path d="M72.356 18.471l12.919 6.883v1.85l-12.919-6.87V18.47z" fill="#4D5561"/><path d="M48.982 34.079l3.447-1.843v7.44l-3.447 1.83V34.08z" fill="#56616E"/><path d="M49.251 30.543l3.179 1.694-3.447 1.842-3.19-1.699 3.458-1.837z" fill="#637080"/><path d="M45.793 32.38l3.19 1.7-.001 7.427-3.189-1.687v-7.44z" fill="#4D5561"/><path d="M79.638 39.154H44.42v43.478a4.16 4.16 0 00-.128.682c-.004.047-.01.093-.013.14-.03.453.017.905.14 1.355v.001h.001c.49 1.778 2.163 3.498 5.053 4.863 6.933 3.275 18.14 3.275 25.027 0 2.844-1.352 4.487-3.053 4.971-4.813h.168V39.154z" fill="#D2D2D2"/><path d="M78.409 50.652c-.852 1.04-2.154 2.015-3.921 2.856-6.903 3.281-18.133 3.281-25.08 0-2.897-1.369-4.573-3.092-5.065-4.873v27.203c.492 1.781 2.168 3.505 5.064 4.873 6.947 3.281 18.178 3.281 25.08 0 2.85-1.355 4.496-3.06 4.98-4.824.002 0 .002-.002.002-.003.126-.462.172-.928.136-1.394l-.008-.078-.002-.023h.042v-25.91c0 .886-1.226 2.173-1.226 2.173h-.002z" fill="#17AFD9"/><path opacity=".2" d="M61.944 39.154H44.42v43.478a4.16 4.16 0 00-.128.682c-.004.047-.01.093-.013.14-.03.453.017.905.14 1.355v.001h.001c.49 1.778 2.163 3.498 5.053 4.863 3.451 1.63 7.962 2.448 12.471 2.455V39.154z" fill="#1B75BB"/><path d="M74.412 33.608c6.932 3.274 6.969 8.584.085 11.857-6.887 3.275-18.093 3.275-25.026 0-6.932-3.274-6.965-8.583-.077-11.857 6.883-3.273 18.086-3.275 25.018 0z" fill="#33ADB9"/><path d="M49.396 35.785c6.883-3.273 18.086-3.275 25.019 0 2.891 1.365 4.566 3.087 5.056 4.865.687-2.501-.987-5.123-5.056-7.044-6.933-3.275-18.136-3.273-25.02 0-4.015 1.909-5.66 4.509-4.974 6.995.483-1.76 2.129-3.463 4.975-4.816z" fill="#D5CFAA"/><path d="M74.412 33.608c-3.466-1.637-7.998-2.455-12.525-2.455-4.528 0-9.051.819-12.493 2.455-6.888 3.275-6.855 8.583.078 11.858 3.466 1.636 8 2.455 12.53 2.455 4.528 0 9.052-.819 12.495-2.455 6.885-3.273 6.848-8.584-.085-11.858zm-.386 11.025c-3.188 1.516-7.458 2.35-12.024 2.35-4.567 0-8.85-.835-12.061-2.351-3.007-1.42-4.664-3.237-4.668-5.117-.002-1.864 1.628-3.666 4.592-5.075 3.188-1.515 7.457-2.35 12.022-2.35s8.847.835 12.056 2.35c3.008 1.422 4.667 3.24 4.67 5.12.003 1.864-1.626 3.666-4.587 5.073z" fill="#E7E6E7"/><path d="M58.712 37.695l3.447-1.843v1.863l-3.447 1.831v-1.85z" fill="#56616E"/><path d="M49.253 28.977l12.907 6.876-3.447 1.843-12.918-6.882 3.458-1.837z" fill="#637080"/><path d="M45.795 30.814l12.918 6.882v1.85l-12.918-6.87v-1.862z" fill="#4D5561"/><path d="M98.3 30.693l3.448-1.843v7.44L98.3 38.12v-7.428z" fill="#56616E"/><path d="M98.573 27.158l3.178 1.693-3.447 1.843-3.189-1.7 3.458-1.836z" fill="#637080"/><path d="M95.112 28.995l3.19 1.699-.002 7.427-3.188-1.687v-7.44z" fill="#4D5561"/><path d="M128.957 35.769H93.739v43.478a4.256 4.256 0 00-.128.681c-.005.047-.01.093-.013.14-.03.453.016.905.14 1.355v.002c.491 1.778 2.164 3.497 5.054 4.863 6.933 3.274 18.139 3.274 25.027 0 2.843-1.352 4.487-3.053 4.97-4.813h.168V35.769z" fill="#D2D2D2"/><path d="M123.732 30.22c6.932 3.275 6.968 8.585.085 11.858-6.888 3.274-18.094 3.274-25.027 0-6.933-3.275-6.966-8.583-.078-11.858 6.885-3.272 18.086-3.274 25.02 0z" fill="#33ADB9"/><path d="M127.728 47.267c-.852 1.04-2.155 2.015-3.922 2.855-6.902 3.282-18.132 3.282-25.08 0-2.896-1.368-4.572-3.091-5.064-4.872v27.203c.492 1.78 2.168 3.505 5.065 4.872 6.947 3.282 18.177 3.282 25.079 0 2.85-1.355 4.497-3.06 4.981-4.823l.001-.002c.127-.463.172-.929.137-1.394l-.009-.078-.002-.025h.042V45.094c0 .886-1.226 2.172-1.226 2.172h-.002z" fill="#17AFD9"/><path opacity=".2" d="M111.263 35.769H93.739v43.478a4.254 4.254 0 00-.128.681c-.005.047-.01.093-.013.14-.03.453.016.905.14 1.355v.002c.491 1.778 2.164 3.497 5.054 4.863 3.451 1.63 7.962 2.448 12.471 2.455V35.769z" fill="#1B75BB"/><path d="M98.715 32.4c6.883-3.273 18.086-3.275 25.018 0 2.892 1.365 4.566 3.086 5.057 4.864.687-2.5-.988-5.122-5.057-7.044-6.932-3.274-18.135-3.272-25.019 0-4.015 1.91-5.661 4.51-4.975 6.995.483-1.76 2.13-3.462 4.975-4.816z" fill="#D5CFAA"/><path d="M123.732 30.22c-3.466-1.637-7.998-2.455-12.526-2.455-4.527 0-9.05.82-12.493 2.455-6.887 3.275-6.854 8.583.078 11.858 3.467 1.637 8.001 2.455 12.53 2.455s9.052-.818 12.496-2.455c6.884-3.272 6.847-8.583-.085-11.858zm-.387 11.026c-3.188 1.516-7.458 2.35-12.025 2.35s-8.85-.835-12.06-2.351c-3.008-1.42-4.665-3.237-4.669-5.117-.002-1.864 1.629-3.666 4.593-5.076 3.187-1.514 7.456-2.35 12.021-2.35s8.847.836 12.056 2.351c3.009 1.421 4.667 3.24 4.67 5.12.004 1.864-1.625 3.666-4.586 5.073z" fill="#E7E6E7"/><path d="M108.032 34.31l3.447-1.843v1.862l-3.447 1.832V34.31z" fill="#56616E"/><path d="M98.572 25.591l12.907 6.877-3.447 1.842-12.919-6.882 3.459-1.837z" fill="#637080"/><path d="M95.113 27.428l12.919 6.882v1.85l-12.919-6.87v-1.862z" fill="#4D5561"/><path d="M71.739 43.036l3.447-1.843v7.44l-3.447 1.83v-7.427z" fill="#56616E"/><path d="M72.009 39.5l3.178 1.694-3.447 1.842-3.19-1.699L72.01 39.5z" fill="#637080"/><path d="M68.55 41.337l3.19 1.7-.001 7.427-3.189-1.687v-7.44z" fill="#4D5561"/><path d="M102.396 48.111H67.177V91.59a4.17 4.17 0 00-.127.68c-.005.048-.01.094-.013.14-.03.454.016.906.14 1.356v.001c.49 1.778 2.163 3.498 5.053 4.863 6.933 3.275 18.14 3.275 25.027 0 2.844-1.352 4.487-3.053 4.971-4.813h.169V48.11h-.001z" fill="#D2D2D2"/><path d="M97.17 42.565c6.932 3.274 6.968 8.584.084 11.857-6.887 3.275-18.093 3.275-25.025 0-6.933-3.274-6.966-8.583-.078-11.857 6.883-3.273 18.086-3.275 25.018 0z" fill="#33ADB9"/><path d="M72.153 44.742c6.884-3.273 18.086-3.275 25.019 0 2.891 1.365 4.566 3.087 5.056 4.865.687-2.501-.987-5.123-5.056-7.044-6.933-3.275-18.135-3.273-25.019 0-4.015 1.909-5.66 4.509-4.975 6.995.483-1.76 2.129-3.463 4.975-4.816z" fill="#D5CFAA"/><path d="M101.166 59.609c-.852 1.04-2.154 2.015-3.921 2.856-6.902 3.281-18.133 3.281-25.08 0-2.897-1.369-4.573-3.092-5.065-4.873v27.203c.492 1.781 2.168 3.505 5.065 4.873 6.946 3.281 18.177 3.281 25.079 0 2.849-1.355 4.496-3.06 4.981-4.824l.001-.003c.126-.462.172-.928.136-1.393-.001-.026-.005-.053-.008-.079l-.002-.023h.042v-25.91c0 .886-1.226 2.173-1.226 2.173h-.002z" fill="#17AFD9"/><path opacity=".2" d="M84.702 48.111H67.177V91.59a4.17 4.17 0 00-.127.68c-.005.048-.01.094-.013.14-.03.454.016.906.14 1.356v.001c.49 1.778 2.163 3.498 5.053 4.863 3.452 1.63 7.962 2.448 12.472 2.455V48.111z" fill="#1B75BB"/><path d="M97.17 42.565c-3.466-1.637-8-2.455-12.526-2.455-4.528 0-9.051.819-12.493 2.455-6.888 3.275-6.855 8.583.078 11.858 3.466 1.636 8 2.455 12.53 2.455 4.528 0 9.052-.819 12.495-2.455 6.885-3.273 6.848-8.584-.085-11.858zm-.386 11.025c-3.189 1.516-7.459 2.35-12.025 2.35-4.567 0-8.85-.835-12.061-2.351-3.007-1.42-4.664-3.237-4.668-5.117-.002-1.864 1.629-3.666 4.592-5.075 3.188-1.515 7.457-2.35 12.022-2.35s8.847.835 12.056 2.35c3.008 1.421 4.667 3.24 4.67 5.12.003 1.864-1.626 3.666-4.586 5.073z" fill="#E7E6E7"/><path d="M81.47 46.652l3.447-1.843v1.863l-3.447 1.831v-1.85z" fill="#56616E"/><path d="M72.01 37.934l12.907 6.876-3.447 1.843-12.918-6.882 3.458-1.837z" fill="#637080"/><path d="M68.552 39.77l12.918 6.883v1.85l-12.918-6.87v-1.862z" fill="#4D5561"/><path d="M122.322 39.65l3.447-1.843v7.44l-3.447 1.831V39.65z" fill="#56616E"/><path d="M122.594 36.115l3.178 1.693-3.447 1.843-3.188-1.7 3.457-1.836z" fill="#637080"/><path d="M119.133 37.952l3.19 1.699-.001 7.427-3.189-1.687v-7.44z" fill="#4D5561"/><path d="M152.979 44.726H117.76v43.478a4.166 4.166 0 00-.127.681c-.005.047-.01.093-.013.14-.03.453.016.905.139 1.355v.002h.001c.491 1.778 2.163 3.497 5.053 4.863 6.933 3.274 18.139 3.274 25.027 0 2.844-1.352 4.487-3.053 4.97-4.814h.169V44.727z" fill="#D2D2D2"/><path d="M151.749 56.224c-.852 1.04-2.154 2.015-3.921 2.855-6.902 3.282-18.133 3.282-25.08 0-2.896-1.368-4.572-3.091-5.064-4.872V81.41c.492 1.78 2.168 3.505 5.064 4.872 6.947 3.282 18.178 3.282 25.08 0 2.849-1.355 4.496-3.06 4.981-4.823l.001-.002c.126-.463.172-.929.136-1.394l-.008-.078-.002-.025h.042V54.051c0 .886-1.226 2.172-1.226 2.172h-.003z" fill="#17AFD9"/><path opacity=".2" d="M135.284 44.726H117.76v43.478a4.166 4.166 0 00-.127.681c-.005.047-.01.093-.013.14-.03.453.016.905.139 1.355v.002h.001c.491 1.778 2.163 3.497 5.053 4.863 3.451 1.63 7.962 2.448 12.471 2.455V44.726z" fill="#1B75BB"/><path d="M147.753 39.177c6.932 3.275 6.969 8.585.085 11.858-6.887 3.274-18.093 3.274-25.026 0-6.934-3.275-6.966-8.583-.078-11.858 6.884-3.272 18.086-3.274 25.019 0z" fill="#33ADB9"/><path d="M147.754 39.177c-3.466-1.637-7.999-2.455-12.526-2.455-4.528 0-9.051.82-12.493 2.455-6.888 3.275-6.854 8.583.078 11.858 3.466 1.637 8.001 2.456 12.529 2.456 4.529 0 9.053-.82 12.497-2.456 6.883-3.272 6.847-8.583-.085-11.858zm-.387 11.026c-3.188 1.516-7.459 2.35-12.025 2.35-4.567 0-8.851-.835-12.061-2.351-3.007-1.42-4.665-3.237-4.668-5.117-.002-1.864 1.628-3.666 4.592-5.075 3.187-1.515 7.456-2.35 12.021-2.35 4.566 0 8.847.835 12.057 2.35 3.008 1.421 4.666 3.24 4.67 5.12.004 1.864-1.625 3.666-4.586 5.073z" fill="#E7E6E7"/><path d="M122.736 41.356c6.883-3.272 18.086-3.274 25.018 0 2.892 1.366 4.567 3.087 5.057 4.865.687-2.5-.987-5.122-5.057-7.044-6.932-3.274-18.135-3.272-25.018 0-4.016 1.91-5.662 4.51-4.975 6.995.483-1.76 2.129-3.462 4.975-4.816z" fill="#D5CFAA"/><path d="M132.053 43.267l3.447-1.843v1.862l-3.447 1.832v-1.851z" fill="#56616E"/><path d="M122.593 34.548l12.907 6.877-3.447 1.843-12.918-6.883 3.458-1.837z" fill="#637080"/><path d="M119.135 36.385l12.918 6.883v1.85l-12.918-6.87v-1.863z" fill="#4D5561"/><path d="M95.76 51.993l3.447-1.843v7.44l-3.447 1.83v-7.427z" fill="#56616E"/><path d="M96.03 48.457l3.178 1.694-3.447 1.842-3.19-1.699 3.459-1.837z" fill="#637080"/><path d="M92.572 50.294l3.19 1.7-.002 7.427-3.189-1.687v-7.44z" fill="#4D5561"/><path d="M126.417 57.068H91.198v43.479a4.141 4.141 0 00-.127.681c-.005.047-.01.093-.013.14-.03.452.016.905.14 1.355v.002c.491 1.777 2.164 3.497 5.054 4.862 6.933 3.275 18.139 3.275 25.027 0 2.843-1.352 4.487-3.053 4.971-4.813h.168V57.068h-.001z" fill="#D2D2D2"/><path d="M125.188 68.566c-.852 1.04-2.155 2.015-3.922 2.856-6.902 3.281-18.132 3.281-25.08 0-2.897-1.369-4.573-3.092-5.065-4.873v27.203c.492 1.781 2.169 3.505 5.065 4.873 6.947 3.281 18.177 3.281 25.079 0 2.85-1.355 4.497-3.06 4.981-4.824l.001-.003c.127-.462.172-.928.137-1.394l-.008-.078a1.916 1.916 0 00-.003-.023h.042v-25.91c0 .886-1.226 2.173-1.226 2.173h-.001z" fill="#17AFD9"/><path d="M121.191 51.522c6.932 3.274 6.969 8.584.085 11.857-6.888 3.275-18.094 3.275-25.026 0-6.932-3.274-6.966-8.583-.078-11.857 6.884-3.273 18.086-3.275 25.019 0z" fill="#33ADB9"/><path d="M96.175 53.699c6.883-3.273 18.086-3.275 25.018 0 2.892 1.365 4.566 3.087 5.057 4.865.687-2.501-.988-5.123-5.057-7.044-6.932-3.275-18.135-3.273-25.018 0-4.016 1.909-5.661 4.509-4.976 6.995.483-1.76 2.13-3.463 4.976-4.816z" fill="#D5CFAA"/><path d="M121.191 51.522c-3.466-1.637-7.999-2.455-12.526-2.455-4.528 0-9.05.819-12.493 2.455-6.888 3.275-6.854 8.583.078 11.858 3.467 1.636 8.001 2.455 12.53 2.455 4.528 0 9.052-.819 12.496-2.455 6.884-3.274 6.848-8.584-.085-11.858zm-.386 11.025c-3.188 1.516-7.458 2.35-12.024 2.35-4.567 0-8.85-.835-12.062-2.351-3.006-1.42-4.664-3.237-4.667-5.117-.003-1.864 1.628-3.666 4.592-5.076 3.187-1.514 7.457-2.35 12.021-2.35 4.565 0 8.847.836 12.056 2.351 3.009 1.421 4.667 3.24 4.67 5.12.004 1.864-1.625 3.666-4.586 5.073z" fill="#E7E6E7"/><path opacity=".2" d="M108.723 57.068H91.198v43.479a4.141 4.141 0 00-.127.681c-.005.047-.01.093-.013.14-.03.452.016.905.14 1.355v.002c.491 1.777 2.164 3.497 5.054 4.862 3.45 1.63 7.962 2.448 12.471 2.455V57.068z" fill="#1B75BB"/><path d="M105.491 55.61l3.447-1.844v1.863l-3.447 1.831v-1.85z" fill="#56616E"/><path d="M96.032 46.89l12.907 6.877-3.447 1.843-12.919-6.882 3.459-1.837z" fill="#637080"/><path d="M92.573 48.728l12.919 6.882-.001 1.85-12.918-6.87v-1.862z" fill="#4D5561"/><path d="M146.343 48.607l3.447-1.843v7.44l-3.447 1.831v-7.428z" fill="#56616E"/><path d="M146.616 45.072l3.178 1.693-3.447 1.843-3.189-1.7 3.458-1.836z" fill="#637080"/><path d="M143.154 46.908l3.19 1.7-.001 7.427-3.189-1.686v-7.44z" fill="#4D5561"/><path d="M177 53.683h-35.219V97.16a4.275 4.275 0 00-.127.681c-.005.047-.01.093-.013.14-.03.453.016.905.14 1.355v.002c.491 1.778 2.164 3.497 5.054 4.863 6.933 3.274 18.139 3.274 25.026 0 2.844-1.352 4.488-3.053 4.971-4.814H177V53.683z" fill="#D2D2D2"/><path opacity=".2" d="M159.306 53.683h-17.525V97.16a4.275 4.275 0 00-.127.681c-.005.047-.01.093-.013.14-.03.453.016.905.14 1.355v.002c.491 1.778 2.164 3.497 5.054 4.863 3.451 1.63 7.962 2.448 12.471 2.455V53.683z" fill="#1B75BB"/><path d="M171.774 48.134c6.933 3.275 6.969 8.585.086 11.858-6.888 3.274-18.094 3.274-25.027 0-6.933-3.275-6.966-8.583-.078-11.858 6.884-3.272 18.086-3.274 25.019 0z" fill="#33ADB9"/><path d="M146.757 50.313c6.884-3.272 18.087-3.274 25.019 0 2.892 1.366 4.566 3.087 5.056 4.865.687-2.5-.987-5.122-5.056-7.044-6.932-3.274-18.135-3.272-25.019 0-4.015 1.91-5.661 4.51-4.975 6.995.483-1.76 2.129-3.462 4.975-4.816z" fill="#D5CFAA"/><path d="M175.771 65.18c-.852 1.04-2.155 2.016-3.922 2.856-6.902 3.281-18.132 3.281-25.079 0-2.897-1.368-4.573-3.091-5.065-4.872v27.203c.492 1.78 2.168 3.505 5.065 4.872 6.947 3.281 18.177 3.281 25.079 0 2.85-1.355 4.496-3.06 4.981-4.823l.001-.002c.127-.463.172-.929.136-1.394-.001-.026-.005-.052-.008-.078a.2.2 0 00-.002-.025h.042V63.008c0 .886-1.226 2.172-1.226 2.172h-.002z" fill="#17AFD9"/><path d="M171.775 48.134c-3.466-1.637-7.999-2.455-12.526-2.455-4.528 0-9.051.82-12.493 2.455-6.887 3.275-6.854 8.583.078 11.858 3.467 1.637 8.001 2.456 12.53 2.456s9.052-.82 12.496-2.456c6.884-3.272 6.847-8.583-.085-11.858zm-.387 11.026c-3.188 1.516-7.458 2.35-12.025 2.35s-8.85-.835-12.061-2.351c-3.007-1.42-4.664-3.237-4.668-5.117-.002-1.864 1.629-3.666 4.592-5.075 3.188-1.515 7.456-2.35 12.022-2.35 4.565 0 8.847.835 12.056 2.35 3.008 1.421 4.667 3.24 4.67 5.12.004 1.864-1.625 3.666-4.586 5.073z" fill="#E7E6E7"/><path d="M156.075 52.224l3.447-1.843v1.862l-3.447 1.832v-1.851z" fill="#56616E"/><path d="M146.614 43.505l12.908 6.877-3.447 1.843-12.919-6.883 3.458-1.837z" fill="#637080"/><path d="M143.156 45.342l12.919 6.883v1.85l-12.919-6.87v-1.863z" fill="#4D5561"/><path d="M119.782 60.95l3.447-1.843v7.44l-3.447 1.83V60.95z" fill="#56616E"/><path d="M120.051 57.414l3.179 1.694-3.447 1.842-3.19-1.699 3.458-1.837z" fill="#637080"/><path d="M116.593 59.251l3.19 1.7-.001 7.427-3.189-1.687v-7.44z" fill="#4D5561"/><path d="M150.439 66.025H115.22v43.479a4.038 4.038 0 00-.127.681c-.005.047-.01.093-.013.14a4.06 4.06 0 00.139 1.355v.001l.001.001c.49 1.777 2.163 3.497 5.053 4.862 6.933 3.275 18.139 3.275 25.027 0 2.844-1.352 4.487-3.053 4.971-4.813h.168V66.025z" fill="#D2D2D2"/><path d="M145.212 60.479c6.933 3.274 6.969 8.584.086 11.857-6.888 3.275-18.094 3.275-25.026 0-6.933-3.274-6.966-8.583-.078-11.857 6.883-3.273 18.086-3.275 25.018 0z" fill="#33ADB9"/><path d="M120.196 62.656c6.883-3.273 18.086-3.275 25.019 0 2.891 1.365 4.566 3.087 5.056 4.865.687-2.501-.987-5.123-5.056-7.044-6.933-3.275-18.136-3.273-25.019 0-4.016 1.909-5.661 4.509-4.975 6.995.483-1.76 2.129-3.463 4.975-4.816z" fill="#D5CFAA"/><path d="M149.209 77.523c-.852 1.04-2.154 2.015-3.921 2.856-6.903 3.28-18.133 3.28-25.08 0-2.897-1.369-4.573-3.092-5.065-4.873v27.203c.492 1.781 2.168 3.505 5.064 4.873 6.947 3.281 18.178 3.281 25.08 0 2.849-1.355 4.496-3.06 4.981-4.824l.001-.003c.126-.462.172-.928.136-1.394l-.008-.078a.195.195 0 01-.002-.023h.042V75.35c0 .886-1.226 2.173-1.226 2.173h-.002z" fill="#17AFD9"/><path d="M145.212 60.479c-3.465-1.637-7.998-2.455-12.525-2.455-4.528 0-9.051.819-12.493 2.455-6.888 3.275-6.855 8.583.078 11.858 3.466 1.636 8.001 2.455 12.529 2.455 4.529 0 9.053-.819 12.497-2.455 6.884-3.273 6.847-8.584-.086-11.858zm-.385 11.025c-3.188 1.516-7.459 2.35-12.025 2.35-4.567 0-8.85-.835-12.061-2.351-3.007-1.42-4.664-3.237-4.668-5.117-.002-1.864 1.629-3.666 4.592-5.075 3.188-1.515 7.457-2.35 12.022-2.35s8.847.835 12.056 2.35c3.008 1.421 4.667 3.24 4.67 5.12.003 1.864-1.626 3.666-4.586 5.073z" fill="#E7E6E7"/><path opacity=".2" d="M132.744 66.025H115.22v43.479a4.038 4.038 0 00-.127.681c-.005.047-.01.093-.013.14a4.06 4.06 0 00.139 1.355v.001l.001.001c.49 1.777 2.163 3.497 5.053 4.862 3.451 1.63 7.962 2.448 12.471 2.455V66.025z" fill="#1B75BB"/><path d="M129.512 64.566l3.448-1.843v1.863l-3.448 1.831v-1.85z" fill="#56616E"/><path d="M120.053 55.848l12.907 6.876-3.447 1.843-12.918-6.882 3.458-1.837z" fill="#637080"/><path d="M116.595 57.685l12.918 6.882-.001 1.85-12.917-6.87v-1.862z" fill="#4D5561"/></svg>
