<svg width="178" height="119" fill="none" xmlns="http://www.w3.org/2000/svg"><path d="M71.03 115.681V119L177 62.022v-3.32L71.03 115.682z" fill="#E0E4E4"/><path d="M177 58.703L71.03 115.68 0 77.605l106.308-56.753L177 58.702z" fill="#ABBC5E"/><path d="M71.03 115.681V119L0 80.924v-3.32l71.03 38.077z" fill="#D3D3D3"/><path d="M0 77.604l71.03 38.076L177 58.703l-70.693-37.851L0 77.604zm4.38.045l101.928-54.406 66.241 35.468-101.497 54.563L4.38 77.649z" fill="#FCFDFF"/><path d="M107.409 38.757v6.389l7.379-3.938v-6.39l-7.379 3.94z" fill="#81C575"/><path d="M114.788 34.819l-7.378 3.938-7.417-3.97 7.378-3.937 7.417 3.969z" fill="#94CC84"/><path d="M107.41 38.753v6.389l-7.417-3.971v-6.388l7.417 3.97z" fill="#4FA76A"/><path d="M78.993 91.815v6.388l7.378-3.938v-6.388l-7.378 3.938z" fill="#81C575"/><path d="M86.371 87.877l-7.378 3.938-7.416-3.97 7.378-3.938 7.416 3.97z" fill="#94CC84"/><path d="M78.993 91.81v6.39l-7.416-3.97v-6.39l7.416 3.97z" fill="#4FA76A"/><path d="M30.8 76.854v6.389l7.377-3.939v-6.388L30.8 76.854z" fill="#81C575"/><path d="M38.177 72.916L30.8 76.854l-7.416-3.97 7.378-3.938 7.416 3.97z" fill="#94CC84"/><path d="M30.8 76.85v6.389l-7.417-3.97v-6.39l7.416 3.971z" fill="#4FA76A"/><path d="M93.124 62.748v6.387l7.378-3.937v-6.389l-7.378 3.939z" fill="#81C575"/><path d="M100.503 58.81l-7.379 3.938-7.416-3.97 7.378-3.938 7.417 3.97z" fill="#94CC84"/><path d="M93.125 62.744v6.387l-7.417-3.97v-6.388l7.417 3.97z" fill="#4FA76A"/><path d="M124.822 69.97v6.388l7.378-3.939v-6.387l-7.378 3.938z" fill="#81C575"/><path d="M132.2 66.032l-7.378 3.938L117.405 66l7.378-3.937 7.417 3.97z" fill="#94CC84"/><path d="M124.822 69.966v6.388l-7.417-3.97v-6.388l7.417 3.97z" fill="#4FA76A"/><path d="M73.528 60.309v1.781l2.077-1.122v-1.782l-2.077 1.123z" fill="#DDE2E2"/><path d="M75.605 59.186l-2.077 1.123-1.952-1.047 2.104-1.105 1.925 1.029z" fill="#F9FCFF"/><path d="M73.528 60.308v1.781l-1.952-1.046v-1.782l1.952 1.047z" fill="#D0D1D1"/><path d="M126.754 47.504v1.782l2.078-1.122v-1.782l-2.078 1.122z" fill="#DDE2E2"/><path d="M128.831 46.382l-2.077 1.122-1.952-1.046 2.103-1.106 1.926 1.03z" fill="#F9FCFF"/><path d="M126.754 47.504v1.781l-1.952-1.046v-1.782l1.952 1.047z" fill="#D0D1D1"/><path d="M59.4 91.24v1.782l2.078-1.122v-1.783L59.4 91.24z" fill="#DDE2E2"/><path d="M61.478 90.117L59.4 91.24l-1.95-1.047 2.102-1.104 1.926 1.028z" fill="#F9FCFF"/><path d="M59.4 91.24v1.781l-1.95-1.046v-1.783l1.95 1.047z" fill="#D0D1D1"/><path opacity=".2" d="M90.182 47.006L82.702 51l-7.52-4.024 7.48-3.993 7.52 4.024z" fill="#414141"/><path d="M82.689 37.506v10.439l2.749-1.467v-10.44l-2.749 1.468z" fill="#74462E"/><path d="M82.689 37.504v10.44l-2.762-1.48V36.026l2.762 1.479z" fill="#8A553A"/><path d="M82.701 8.017v33.616l7.48-3.993V4.025l-7.48 3.992z" fill="#4FA76A"/><path d="M90.182 4.025l-7.48 3.992-7.52-4.024L82.663 0l7.52 4.025z" fill="#94CC84"/><path d="M82.701 8.014V41.63l-7.518-4.026V3.988L82.7 8.014z" fill="#81C575"/><path opacity=".2" d="M61.845 80.178l-7.48 3.993-7.52-4.026 7.48-3.991 7.52 4.024z" fill="#414141"/><path d="M54.353 70.677v10.44l2.748-1.467V69.21l-2.748 1.467z" fill="#74462E"/><path d="M54.353 70.676v10.439l-2.763-1.48V69.197l2.763 1.479z" fill="#8A553A"/><path d="M54.365 41.19v33.615l7.48-3.994V37.196l-7.48 3.993z" fill="#4FA76A"/><path d="M61.845 37.196l-7.48 3.993-7.52-4.025 7.48-3.992 7.52 4.024z" fill="#94CC84"/><path d="M54.365 41.185V74.8l-7.52-4.026V37.16l7.52 4.026z" fill="#81C575"/><path opacity=".2" d="M155.535 61.49l-7.48 3.992-7.519-4.026 7.479-3.991 7.52 4.024z" fill="#414141"/><path d="M148.042 51.988v10.44l2.749-1.467v-10.44l-2.749 1.467z" fill="#74462E"/><path d="M148.042 51.987v10.439l-2.762-1.48V50.509l2.762 1.479z" fill="#8A553A"/><path d="M148.055 22.5v33.615l7.48-3.992V18.507l-7.48 3.993z" fill="#4FA76A"/><path d="M155.535 18.507l-7.48 3.993-7.519-4.024 7.479-3.993 7.52 4.024z" fill="#94CC84"/><path d="M148.055 22.496v33.616l-7.519-4.026V18.47l7.519 4.026z" fill="#81C575"/></svg>
