<svg width="177" height="119" fill="none" xmlns="http://www.w3.org/2000/svg"><path d="M103.551 60.798l-11.995 6.296 60.693 32.12 11.994-6.294-60.692-32.122zm48.698 37.677L92.962 67.094l10.589-5.558 59.288 31.383-10.59 5.556zM88.724 68.594L76.73 74.89l60.693 32.12 11.995-6.295-60.695-32.12zm48.699 37.677L78.136 74.89l10.588-5.558 59.288 31.382-10.589 5.557z" fill="#E6E6E8"/><path d="M112.724.821v24.135c0 .456.877.821 1.966.821 1.09 0 1.966-.368 1.966-.821V.82h-3.932z" fill="#979DCF"/><path d="M116.656.821c0 .456-.876.822-1.966.822-1.089 0-1.966-.368-1.966-.822 0-.453.877-.821 1.966-.821 1.09 0 1.966.368 1.966.821z" fill="#B1B7DD"/><path d="M116.143.821c0 .28-.65.506-1.453.506-.802 0-1.453-.228-1.453-.506s.651-.505 1.453-.505c.803 0 1.453.226 1.453.505z" fill="#6D77B5"/><path d="M114.69 7.305c.923 0 1.705-.254 1.966-.604v-.81c0 .456-.876.822-1.966.822-1.089 0-1.966-.367-1.966-.822v.81c.262.35 1.044.604 1.966.604zM114.69 13.3c.923 0 1.705-.255 1.966-.605v-.81c0 .456-.876.822-1.966.822-1.089 0-1.966-.367-1.966-.822v.81c.262.35 1.044.604 1.966.604zM114.69 19.293c.923 0 1.705-.254 1.966-.604v-.81c0 .456-.876.822-1.966.822-1.089 0-1.966-.367-1.966-.822v.81c.262.35 1.044.604 1.966.604z" fill="#F5F6F7"/><path d="M118.785 4.002v24.135c0 .455.877.821 1.967.821 1.091 0 1.966-.368 1.966-.821V4.002h-3.933z" fill="#979DCF"/><path d="M122.718 4.002c0 .456-.876.822-1.966.822-1.089 0-1.967-.368-1.967-.822 0-.453.877-.821 1.967-.821 1.091 0 1.966.368 1.966.821z" fill="#B1B7DD"/><path d="M122.205 4.002c0 .28-.651.507-1.453.507-.801 0-1.453-.227-1.453-.507 0-.279.651-.505 1.453-.505.803 0 1.453.226 1.453.505z" fill="#6D77B5"/><path d="M120.752 10.486c.923 0 1.705-.254 1.966-.604v-.81c0 .456-.876.822-1.966.822-1.089 0-1.967-.367-1.967-.822v.81c.262.351 1.043.604 1.967.604zM120.752 16.48c.923 0 1.705-.254 1.966-.604v-.81c0 .456-.876.822-1.966.822-1.089 0-1.967-.367-1.967-.822v.81c.262.35 1.043.604 1.967.604zM120.752 22.474c.923 0 1.705-.254 1.966-.604v-.813c0 .456-.876.821-1.966.821-1.089 0-1.967-.366-1.967-.821v.81c.262.353 1.043.607 1.967.607z" fill="#F5F6F7"/><path d="M124.847 7.183v24.135c0 .455.877.821 1.966.821s1.967-.368 1.967-.821V7.183h-3.933z" fill="#979DCF"/><path d="M128.78 7.183c0 .456-.876.822-1.967.822-1.091 0-1.966-.368-1.966-.822 0-.453.877-.821 1.966-.821s1.967.368 1.967.821z" fill="#B1B7DD"/><path d="M128.267 7.183c0 .28-.651.507-1.454.507-.803 0-1.453-.227-1.453-.507 0-.279.65-.505 1.453-.505s1.454.226 1.454.505z" fill="#6D77B5"/><path d="M126.813 13.667c.924 0 1.705-.254 1.967-.604v-.81c0 .456-.876.822-1.967.822-1.091 0-1.966-.367-1.966-.822v.81c.262.35 1.043.604 1.966.604zM126.813 19.661c.924 0 1.705-.254 1.967-.604v-.81c0 .456-.876.822-1.967.822-1.091 0-1.966-.367-1.966-.822v.81c.262.35 1.043.604 1.966.604zM126.813 25.655c.924 0 1.705-.254 1.967-.602v-.806c0 .456-.876.822-1.967.822-1.091 0-1.966-.368-1.966-.822v.81c.262.344 1.043.598 1.966.598z" fill="#F5F6F7"/><path d="M130.908 10.364v24.137c0 .456.876.821 1.967.821 1.091 0 1.968-.365 1.968-.821V10.364h-3.935z" fill="#979DCF"/><path d="M134.843 10.364c0 .456-.876.822-1.966.822-1.089 0-1.967-.368-1.967-.822 0-.453.877-.821 1.967-.821 1.091 0 1.966.368 1.966.821z" fill="#B1B7DD"/><path d="M134.327 10.364c0 .28-.649.507-1.452.507-.803 0-1.454-.227-1.454-.507 0-.279.651-.505 1.454-.505.803 0 1.452.226 1.452.505z" fill="#6D77B5"/><path d="M132.875 16.848c.923 0 1.704-.254 1.966-.604v-.81c0 .456-.877.822-1.966.822s-1.967-.367-1.967-.822v.81c.261.35 1.043.604 1.967.604zM132.875 22.842c.923 0 1.704-.254 1.966-.604v-.81c0 .456-.877.823-1.966.823s-1.967-.368-1.967-.823v.81c.261.35 1.043.604 1.967.604zM132.875 28.836c.923 0 1.704-.254 1.966-.602v-.81c0 .455-.877.821-1.966.821s-1.967-.368-1.967-.822v.812c.261.347 1.043.601 1.967.601z" fill="#F5F6F7"/><path d="M153.824 68.516L90.639 35.039v15.18l63.199 33.228-.014-14.931z" fill="#E0E4E4"/><path d="M113.57 22.986L90.64 35.039l63.184 33.477L177 56.327l-63.43-33.341z" fill="#F5F6F7"/><path d="M177 56.327l-23.176 12.189.014 14.931L177 71.511V56.327z" fill="#D3D3D3"/><path d="M131.345 45.402l-38.976-20.65v9.364l38.985 20.497-.009-9.211z" fill="#E0E4E4"/><path d="M106.514 17.318l-14.145 7.434 38.976 20.65 14.296-7.518-39.127-20.566z" fill="#86B7E2"/><path d="M145.641 37.884l-14.296 7.518.008 9.211 14.288-7.364v-9.365zM62.639 73.726l42.536-22.618v6.812l-42.55 22.37.014-6.564z" fill="#D3D3D3"/><path d="M90.64 43.406l14.535 7.702-42.536 22.618-14.781-7.838 42.781-22.482z" fill="#A7AF3F"/><path d="M47.858 65.888l14.78 7.838-.013 6.564-14.767-7.586v-6.816z" fill="#D3D3D3"/><path d="M47.858 65.888l14.776 7.838 42.536-22.618-14.53-7.702-42.782 22.482zm14.776 6.792l-12.796-6.788L90.64 44.45l12.567 6.658-40.574 21.57z" fill="#F5F6F7"/><path d="M108.264 24.79l4.498-2.389v.458l-4.498 2.375v-.444z" fill="#D3D3D3"/><path d="M106.943 19.322l5.819 3.08-4.498 2.39-5.834-3.089 4.513-2.381z" fill="#F5F6F7"/><path d="M102.43 21.703l5.834 3.089v.442l-5.834-3.074v-.457z" fill="#E0E4E4"/><path d="M102.612 26.804l2.632-1.398v1.414l-2.632 1.389v-1.405z" fill="#D3D3D3"/><path d="M100.229 22.776l5.016 2.63-2.633 1.399-5.024-2.635 2.641-1.394z" fill="#F5F6F7"/><path d="M97.588 24.17l5.024 2.635v1.404l-5.024-2.625V24.17z" fill="#E0E4E4"/><path d="M103.463 20.184v5.38c0 .166-.323.3-.722.3-.4 0-.722-.134-.722-.3v-5.38h1.444z" fill="#979DCF"/><path d="M102.019 20.184c0 .167.323.302.722.302.398 0 .722-.135.722-.302 0-.166-.323-.302-.722-.302-.4 0-.722.136-.722.302z" fill="#B1B7DD"/><path d="M102.207 20.184c0 .103.239.186.534.186.294 0 .533-.083.533-.186 0-.102-.239-.186-.533-.186-.295 0-.534.084-.534.186z" fill="#6D77B5"/><path d="M100.814 18.805v5.38c0 .166-.324.301-.722.301-.398 0-.721-.135-.721-.302v-5.38h1.443z" fill="#979DCF"/><path d="M99.371 18.805c0 .166.323.301.721.301.398 0 .722-.135.722-.302 0-.166-.324-.301-.722-.301-.398 0-.721.135-.721.302z" fill="#B1B7DD"/><path d="M100.092 18.99c.295 0 .534-.083.534-.185 0-.103-.239-.186-.534-.186-.294 0-.533.083-.533.186 0 .102.239.185.533.185z" fill="#6D77B5"/><path d="M116.023 28.872l4.498-2.39v.458l-4.498 2.374v-.442z" fill="#D3D3D3"/><path d="M114.702 23.402l5.82 3.082-4.498 2.388-5.834-3.088 4.512-2.382z" fill="#F5F6F7"/><path d="M110.19 25.783l5.834 3.089-.001.442-5.833-3.073v-.458z" fill="#E0E4E4"/><path d="M110.37 30.885l2.634-1.398V30.9l-2.634 1.39v-1.405z" fill="#D3D3D3"/><path d="M107.989 26.857l5.015 2.63-2.632 1.399-5.024-2.635 2.641-1.394z" fill="#F5F6F7"/><path d="M105.348 28.25l5.024 2.636-.002 1.403-5.022-2.626v-1.412z" fill="#E0E4E4"/><path d="M111.222 24.265v5.38c0 .166-.323.301-.721.301-.399 0-.722-.135-.722-.3v-5.38h1.443z" fill="#979DCF"/><path d="M109.779 24.265c0 .167.323.301.722.301.398 0 .721-.134.721-.3 0-.167-.323-.303-.721-.303-.399 0-.722.136-.722.302z" fill="#B1B7DD"/><path d="M110.501 24.451c.294 0 .533-.083.533-.186 0-.102-.239-.185-.533-.185-.295 0-.534.083-.534.185 0 .103.239.186.534.186z" fill="#6D77B5"/><path d="M108.573 22.886v5.38c0 .166-.323.3-.721.3-.398 0-.722-.134-.722-.3v-5.38h1.443z" fill="#979DCF"/><path d="M107.13 22.886c0 .166.323.3.722.3.4 0 .721-.134.721-.3 0-.167-.323-.302-.721-.302-.398 0-.722.135-.722.302z" fill="#B1B7DD"/><path d="M107.319 22.886c0 .102.238.185.533.185.296 0 .532-.083.532-.185 0-.103-.238-.186-.532-.186-.294 0-.533.083-.533.186z" fill="#6D77B5"/><path d="M123.783 32.953l4.498-2.39v.457l-4.498 2.375v-.442z" fill="#D3D3D3"/><path d="M122.462 27.483l5.82 3.082-4.499 2.388-5.834-3.09 4.513-2.38z" fill="#F5F6F7"/><path d="M117.949 29.864l5.834 3.089v.442l-5.834-3.073v-.458z" fill="#E0E4E4"/><path d="M118.13 34.966l2.632-1.398v1.413l-2.632 1.39v-1.405z" fill="#D3D3D3"/><path d="M115.747 30.938l5.017 2.63-2.634 1.398-5.024-2.634 2.641-1.394z" fill="#F5F6F7"/><path d="M113.106 32.332l5.024 2.634v1.405l-5.024-2.627v-1.412z" fill="#E0E4E4"/><path d="M118.982 28.349v5.38c0 .166-.323.301-.723.301-.399 0-.721-.135-.721-.302v-5.38h1.444z" fill="#979DCF"/><path d="M117.538 28.349c0 .167.323.302.721.302.398 0 .723-.135.723-.302 0-.168-.323-.301-.723-.301-.399 0-.721.13-.721.3z" fill="#B1B7DD"/><path d="M117.727 28.349c0 .103.238.186.532.186.294 0 .534-.083.534-.186 0-.104-.238-.186-.534-.186-.295 0-.532.08-.532.186z" fill="#6D77B5"/><path d="M116.332 26.967v5.378c0 .168-.323.302-.721.302-.398 0-.721-.134-.721-.302v-5.378h1.442z" fill="#979DCF"/><path d="M114.89 26.967c0 .166.323.3.721.3.398 0 .721-.134.721-.3 0-.167-.323-.302-.721-.302-.398 0-.721.135-.721.302z" fill="#B1B7DD"/><path d="M115.077 26.967c0 .102.24.185.534.185.294 0 .533-.083.533-.185 0-.103-.239-.186-.533-.186-.294 0-.534.087-.534.186z" fill="#6D77B5"/><path d="M131.541 37.033l4.498-2.389v.457l-4.498 2.375v-.443z" fill="#D3D3D3"/><path d="M130.222 31.564l5.819 3.08-4.498 2.39-5.834-3.089 4.513-2.381z" fill="#F5F6F7"/><path d="M125.709 33.945l5.834 3.089-.002.442-5.832-3.073v-.458z" fill="#E0E4E4"/><path d="M125.89 39.047l2.632-1.398v1.413l-2.632 1.39v-1.405z" fill="#D3D3D3"/><path d="M123.507 35.02l5.015 2.629-2.632 1.398-5.024-2.634 2.641-1.394z" fill="#F5F6F7"/><path d="M120.866 36.413l5.024 2.634v1.405l-5.024-2.627v-1.412z" fill="#E0E4E4"/><path d="M126.74 32.426v5.379c0 .166-.323.302-.721.302-.398 0-.721-.136-.721-.302v-5.379h1.442z" fill="#979DCF"/><path d="M125.298 32.426c0 .167.323.302.721.302.398 0 .721-.135.721-.302 0-.166-.323-.3-.721-.3-.398 0-.721.134-.721.3z" fill="#B1B7DD"/><path d="M125.486 32.426c0 .103.239.186.533.186.294 0 .534-.083.534-.186 0-.102-.24-.185-.534-.185-.294 0-.533.083-.533.185z" fill="#6D77B5"/><path d="M124.092 31.047v5.38c0 .166-.323.301-.721.301-.398 0-.723-.135-.723-.302v-5.38h1.444z" fill="#979DCF"/><path d="M122.648 31.047c0 .167.323.302.723.302.399 0 .721-.135.721-.302 0-.168-.323-.301-.721-.301-.398 0-.723.134-.723.3z" fill="#B1B7DD"/><path d="M122.837 31.047c0 .103.238.186.534.186.295 0 .533-.083.533-.186 0-.104-.239-.186-.533-.186-.295 0-.534.083-.534.186z" fill="#6D77B5"/><path d="M153.609 52.944L142.2 58.93l-5.695-2.986 11.409-5.986 5.695 2.986z" fill="#1B84AC"/><path d="M136.505 55.944v.348l5.695 2.985v-.347l-5.695-2.986z" fill="#D3D3D3"/><path d="M153.609 53.29v-.346L142.2 58.93v.347l11.409-5.986z" fill="#E0E4E4"/><path d="M136.505 55.944l5.695 2.986 11.409-5.986-5.695-2.986-11.409 5.986zm5.695 2.809l-5.353-2.809 11.071-5.81 5.358 2.81-11.076 5.809z" fill="#F5F6F7"/><path d="M149.144 50.682l-11.315 5.942.162.086 11.302-5.95-.149-.078zM150.482 51.345l-11.314 5.942.162.086 11.301-5.95-.149-.078z" fill="#F5F6F7"/><path d="M146.302 50.823l5.639 2.962-.081.042-5.632-2.964.074-.04zM144.748 51.639l5.639 2.96-.081.044-5.632-2.966.074-.038zM143.194 52.453l5.639 2.961-.081.044-5.632-2.966.074-.039zM141.64 53.268l5.639 2.962-.081.042-5.632-2.965.074-.04zM140.086 54.083l5.639 2.962-.081.042-5.632-2.966.074-.038zM138.532 54.897l5.639 2.962-.081.042-5.633-2.965.075-.039z" fill="#F5F6F7"/><path d="M151.992 52.15l-11.315 5.943.163.085 11.301-5.95-.149-.078z" fill="#F5F6F7"/><path d="M147.914 50.135l-5.714 8.618 11.072-5.809-5.358-2.81z" fill="#fff" opacity=".16"/><path d="M163.331 58.11l-11.408 5.986-5.695-2.986 11.408-5.986 5.695 2.986z" fill="#1B84AC"/><path d="M146.228 61.11v.347l5.695 2.985v-.346l-5.695-2.986z" fill="#D3D3D3"/><path d="M163.331 58.456v-.346l-11.408 5.986v.346l11.408-5.986z" fill="#E0E4E4"/><path d="M146.228 61.11l5.695 2.986 11.409-5.986-5.699-2.987-11.405 5.987zm5.695 2.81l-5.358-2.81 11.071-5.81 5.358 2.808-11.071 5.811z" fill="#F5F6F7"/><path d="M158.866 55.847l-11.314 5.944.163.085 11.3-5.95-.149-.079zM160.206 56.51l-11.315 5.944.162.085 11.302-5.95-.149-.079z" fill="#F5F6F7"/><path d="M156.026 55.99l5.638 2.96-.081.044-5.632-2.965.075-.04zM154.47 56.804l5.64 2.963-.081.042-5.633-2.966.074-.039zM152.916 57.619l5.639 2.962-.08.042-5.632-2.965.073-.039zM151.362 58.434l5.64 2.962-.081.042-5.632-2.966.073-.038zM149.808 59.248l5.639 2.963-.08.042-5.632-2.966.073-.039zM148.254 60.063l5.639 2.962-.08.042-5.632-2.965.073-.04z" fill="#F5F6F7"/><path d="M161.714 57.316l-11.313 5.944.163.084 11.299-5.95-.149-.078z" fill="#F5F6F7"/><path d="M157.636 55.3l-5.713 8.62 11.071-5.81-5.358-2.81z" fill="#fff" opacity=".16"/><path d="M162.113 54.78l4.876-2.583v.631l-4.876 2.582v-.63z" fill="#DDE2E2"/><path d="M164.425 50.85l2.564 1.347-4.876 2.583-2.566-1.347 4.878-2.583z" fill="#EFEFF0"/><path d="M159.547 53.433l2.566 1.347v.63l-2.566-1.347v-.63z" fill="#D0D1D1"/><path d="M162.267 52.844c-.719 0-1.303.244-1.303.544 0 .3.584.544 1.303.544.718 0 1.302-.244 1.302-.544 0-.301-.586-.544-1.302-.544z" fill="#6D77B5"/><path d="M162.267 53.15c-.318 0-.576.109-.576.24 0 .133.258.242.576.242.318 0 .576-.108.576-.241s-.261-.24-.576-.24z" fill="#EFEFF0"/><path d="M164.402 51.716c-.72 0-1.303.243-1.303.544 0 .3.583.543 1.303.543s1.302-.243 1.302-.543c0-.301-.584-.544-1.302-.544z" fill="#6D77B5"/><path d="M164.402 52.02c-.32 0-.578.106-.578.24 0 .133.258.24.578.24.319 0 .576-.107.576-.24 0-.134-.258-.24-.576-.24z" fill="#EFEFF0"/><path d="M165.467 56.547l4.878-2.583v.631l-4.878 2.582v-.63z" fill="#DDE2E2"/><path d="M167.78 52.617l2.565 1.347-4.878 2.583-2.564-1.347 4.877-2.583z" fill="#EFEFF0"/><path d="M162.903 55.2l2.564 1.347v.63l-2.564-1.346v-.63z" fill="#D0D1D1"/><path d="M165.62 54.615c-.72 0-1.302.243-1.302.544 0 .301.582.544 1.302.544.72 0 1.301-.244 1.301-.544 0-.3-.582-.544-1.301-.544z" fill="#6D77B5"/><path d="M165.619 54.918c-.318 0-.576.108-.576.241s.258.24.576.24c.318 0 .577-.108.577-.24s-.258-.241-.577-.241z" fill="#EFEFF0"/><path d="M167.756 54.57c.719 0 1.303-.243 1.303-.543 0-.3-.584-.544-1.303-.544s-1.302.244-1.302.544c0 .3.583.543 1.302.543z" fill="#6D77B5"/><path d="M167.756 53.786c-.318 0-.576.107-.576.24 0 .134.258.241.576.241.318 0 .576-.107.576-.24 0-.134-.258-.24-.576-.24z" fill="#EFEFF0"/><path d="M168.823 58.314l4.876-2.583v.631l-4.876 2.582v-.63z" fill="#DDE2E2"/><path d="M171.136 54.386l2.563 1.345-4.876 2.583-2.566-1.347 4.879-2.581z" fill="#EFEFF0"/><path d="M166.257 56.967l2.566 1.347v.63l-2.566-1.346v-.63z" fill="#D0D1D1"/><path d="M168.975 56.382c-.719 0-1.303.244-1.303.544 0 .301.584.544 1.303.544.718 0 1.302-.243 1.302-.544 0-.3-.584-.544-1.302-.544z" fill="#6D77B5"/><path d="M168.975 56.685c-.318 0-.576.108-.576.241 0 .134.258.24.576.24.318 0 .576-.106.576-.24 0-.133-.258-.241-.576-.241z" fill="#EFEFF0"/><path d="M171.111 55.25c-.719 0-1.302.244-1.302.544 0 .3.583.544 1.302.544.719 0 1.302-.243 1.302-.544 0-.301-.582-.544-1.302-.544z" fill="#6D77B5"/><path d="M171.111 55.553c-.318 0-.576.114-.576.24 0 .127.258.242.576.242.318 0 .577-.114.577-.241 0-.128-.258-.24-.577-.24z" fill="#EFEFF0"/><path d="M89.585 61.637l.733-.384v4.473l-.733.386v-4.475zM90.885 60.954l.732-.385v4.473l-.732.385v-4.473zM92.183 60.273l.734-.386v4.473l-.734.385v-4.473zM93.483 59.589l.734-.385v4.474l-.734.384v-4.473zM94.783 58.908l.734-.386v4.473l-.734.386v-4.473zM96.083 58.225l.732-.385v4.473l-.732.385v-4.473zM97.382 57.541l.733-.385v4.474l-.733.386v-4.474zM98.682 56.859l.733-.385v4.473l-.733.385v-4.473zM99.982 56.177l.733-.386v4.474l-.733.385v-4.473zM101.282 55.492l.732-.384v4.473l-.732.385v-4.474zM102.583 54.81l.732-.385v4.473l-.732.385V54.81z" fill="#A7AF3F"/><path d="M117.065 52.613v13.52l-9.998-5.257v-13.52l9.998 5.257z" fill="#1B84AC"/><path d="M117.065 52.613v13.52l1.927-1.013V51.6l-1.927 1.013z" fill="#D3D3D3"/><path d="M107.067 47.356l9.998 5.257 1.927-1.013-9.997-5.257-1.928 1.013z" fill="#F5F6F7"/><path d="M107.067 47.356v13.52l9.995 5.257V52.616l-9.995-5.26zm.662 1.044l8.674 4.557V65.09l-8.674-4.558V48.4z" fill="#F2F2F2"/><path d="M109.066 48.728V61.35l-.197-.102V48.624l.197.104zM110.279 49.43v12.623l-.197-.102V49.327l.197.104zM111.494 50.134v12.622l-.197-.103V50.03l.197.104zM112.707 50.835V63.46l-.197-.104V50.733l.197.102zM113.92 51.538v12.623l-.195-.103V51.435l.195.103zM115.135 52.241v12.623l-.197-.103V52.138l.197.103z" fill="#F2F2F2"/><path d="M107.523 50.135l9.161 4.812-.03.048-9.131-4.796v-.064zM107.523 50.44l9.161 4.813-.03.047-9.131-4.796v-.064zM107.523 52.188l9.161 4.811-.03.048-9.131-4.795v-.064zM107.523 52.493l9.161 4.811-.03.05-9.131-4.797v-.064zM107.523 54.24l9.161 4.812-.03.048-9.131-4.796v-.064zM107.523 54.545l9.161 4.813-.03.047-9.131-4.796v-.064zM107.523 56.293l9.161 4.811-.03.05-9.131-4.797v-.064zM107.523 56.598l9.161 4.812-.03.049-9.131-4.797v-.064zM107.523 58.345l9.161 4.812-.03.048-9.131-4.797v-.063zM107.523 58.65l9.161 4.813-.03.047-9.131-4.795v-.065z" fill="#F2F2F2"/><path d="M116.402 52.96l-8.673-4.56v12.128l8.673-7.568z" fill="#fff" opacity=".16"/><path d="M129.684 59.257v13.52l-9.997-5.257V54l9.997 5.257z" fill="#1B84AC"/><path d="M129.684 59.257v13.52l1.927-1.013v-13.52l-1.927 1.013z" fill="#D3D3D3"/><path d="M119.687 54l9.997 5.257 1.927-1.012-9.997-5.257L119.687 54z" fill="#F5F6F7"/><path d="M119.692 54v13.52l9.992 5.262V59.257l-9.992-5.256zm.662 1.044l8.673 4.557v12.132l-8.673-4.557V55.044z" fill="#F2F2F2"/><path d="M121.685 55.372v12.623l-.196-.103V55.27l.196.103zM122.899 56.075v12.623l-.197-.104V55.972l.197.103zM124.112 56.778v12.623l-.195-.104V56.675l.195.103zM125.327 57.48v12.624L125.13 70V57.377l.197.103zM126.54 58.183v12.624l-.197-.104V58.079l.197.104zM127.755 58.886v12.622l-.197-.102V58.782l.197.104z" fill="#F2F2F2"/><path d="M120.143 56.78l9.161 4.812-.032.048-9.129-4.797v-.064zM120.143 57.085l9.161 4.812-.032.048-9.129-4.797v-.063zM120.143 58.832l9.161 4.812-.032.048-9.129-4.796v-.064zM120.143 59.138l9.161 4.811-.032.049-9.129-4.796v-.064zM120.143 60.884l9.161 4.813-.032.048-9.129-4.797v-.064zM120.143 61.19l9.161 4.812-.032.048-9.129-4.797v-.063zM120.143 62.937l9.161 4.812-.032.049L120.143 63v-.064zM120.143 63.243l9.161 4.811-.032.049-9.129-4.796v-.064zM120.143 64.99l9.161 4.812-.032.048-9.129-4.797v-.064zM120.143 65.295l9.161 4.812-.032.048-9.129-4.797v-.063z" fill="#F2F2F2"/><path d="M129.022 59.605l-8.673-4.56v12.127l8.673-7.567z" fill="#fff" opacity=".16"/><path d="M142.303 65.902v13.52l-9.997-5.258V60.645l9.997 5.257z" fill="#1B84AC"/><path d="M142.303 65.902v13.52l1.928-1.014V64.89l-1.928 1.013z" fill="#D3D3D3"/><path d="M132.306 60.645l9.997 5.257 1.928-1.013-9.997-5.257-1.928 1.013z" fill="#F5F6F7"/><path d="M132.306 60.645v13.52l9.998 5.256v-13.52l-9.998-5.256zm.663 1.044l8.673 4.557v12.131l-8.673-4.557V61.69z" fill="#F2F2F2"/><path d="M134.305 62.017v12.622l-.197-.102V61.913l.197.104zM135.518 62.72v12.622l-.196-.103V62.616l.196.104zM136.732 63.422v12.623l-.197-.103V63.319l.197.103zM137.946 64.124v12.624l-.196-.104V64.021l.196.103zM139.16 64.828V77.45l-.197-.103V64.724l.197.103zM140.373 65.53v12.623l-.197-.104V65.427l.197.103z" fill="#F2F2F2"/><path d="M132.762 63.424l9.161 4.812-.031.048-9.13-4.796v-.064zM132.762 63.73l9.161 4.812-.031.047-9.13-4.796v-.064zM132.762 65.477l9.161 4.811-.031.048-9.13-4.795v-.064zM132.762 65.782l9.161 4.812-.031.047-9.13-4.795v-.064zM132.762 67.529l9.161 4.812-.031.048-9.13-4.796v-.064zM132.762 67.834l9.161 4.813-.031.047-9.13-4.796v-.064zM132.762 69.582l9.161 4.811-.031.048-9.13-4.795v-.064zM132.762 69.887l9.161 4.812-.031.049-9.13-4.797v-.064zM132.762 71.634l9.161 4.812-.031.048-9.13-4.796v-.064zM132.762 71.94l9.161 4.812-.031.047-9.13-4.796v-.064z" fill="#F2F2F2"/><path d="M141.642 66.25l-8.674-4.561v12.128l8.674-7.568z" fill="#fff" opacity=".16"/><path d="M94.735 42.876a.06.06 0 00.014-.011l.04-.032c.014-.013.029-.026.043-.041l.011-.012a.374.374 0 00.041-.047l.03-.038.007-.01c.012-.019.025-.036.036-.055l.033-.058a.02.02 0 010-.01l.022-.05v-.014c.005-.01.01-.02.013-.03 0-.016.012-.033.017-.049.005-.016.008-.021.01-.033l.013-.042c.003-.015 0-.024.008-.036.01-.013 0-.025.01-.038l.007-.042v-.034-.136-.023-.085-.083V41.78v-.03l-.008-.063v-.024c0-.03-.009-.06-.014-.088v-.011l-.015-.078v-.03l-.015-.06-.007-.034c0-.02-.011-.038-.016-.057-.005-.02 0-.023-.01-.034l-.02-.062c0-.01 0-.02-.01-.028a1.905 1.905 0 00-.03-.097 2.054 2.054 0 00-.032-.082l-.011-.026-.026-.063c0-.01-.01-.02-.013-.03l-.03-.063-.011-.023a1.878 1.878 0 00-.043-.087l-.011-.021-.035-.066-.026-.047-.027-.043a.954.954 0 00-.074-.114.45.45 0 00-.025-.04l-.032-.048-.03-.043-.033-.047-.022-.03c-.032-.043-.064-.084-.097-.125L94.296 40l-.058-.066-.011-.012-.069-.074-.021-.02-.05-.05-.03-.03-.044-.04-.033-.03-.042-.037-.035-.03-.044-.035-.035-.029-.044-.034-.035-.025-.048-.034-.032-.023-.053-.034-.026-.018-.08-.048-.084-.046-.074-.036-.028-.014-.056-.025-.025-.01a1.087 1.087 0 00-.078-.031l-.077-.026-.025-.007-.052-.015-.03-.008-.047-.01h-.03l-.044-.008h-.328a.505.505 0 00-.062.009h-.016l-.047.01-.024.007-.038.011a.355.355 0 00-.045.018l-.021.007a.77.77 0 00-.064.03l.863-.456.064-.03.02-.007a1.19 1.19 0 01.76 0c.246.078.475.193.677.342l.018.013.035.025c.753.572 1.229 1.39 1.323 2.279.04.309-.026.622-.191.894l-.01.01a.435.435 0 01-.04.053.375.375 0 01-.03.033l-.01.013-.043.04v.005l-.039.032-.015.01-.035.024-.015.01-.05.029-.863.456a.666.666 0 00.05-.03l.015-.009.04-.048z" fill="#568BC8"/><path d="M93.434 39.271c.94.495 1.7 1.691 1.697 2.674-.004.983-.767 1.38-1.708.886-.94-.495-1.7-1.691-1.697-2.674.003-.984.768-1.379 1.708-.886z" fill="#70A0D2"/><path d="M94.374 41.662a2.336 2.336 0 00-.933-1.607l-.024-.018-.014-.01a1.59 1.59 0 00-.476-.238.834.834 0 00-.535 0l-.016.005a.485.485 0 00-.044.02S45.317 64.55 40.372 67.149l2.27 2.361 51.39-27.033.035-.02.01-.007.025-.017.01-.008a.264.264 0 00.027-.023l.03-.028.008-.008.02-.024.009-.01a.24.24 0 00.02-.027v-.008a.982.982 0 00.148-.634z" fill="#70A0D2"/><path d="M94.374 41.662a2.054 2.054 0 00-.251-.816c-.011 0-.024 0-.035.01l-.015.006-.045.02s-47.84 25.165-52.406 27.57l1.02 1.063 51.39-27.039.035-.02.01-.007.025-.017.01-.008a.262.262 0 00.027-.023l.03-.028.008-.008.02-.024.009-.01a.241.241 0 00.021-.027v-.008a.983.983 0 00.147-.634zM99.396 45.325l.015-.012.039-.03h.006a.447.447 0 00.043-.042l.011-.011.03-.033.012-.015c.01-.011.02-.025.03-.038l.007-.01c.012-.018.025-.035.036-.054l.033-.058v-.01a.876.876 0 00.023-.05c.008-.017 0-.009 0-.015 0-.005.008-.019.013-.03.005-.01.011-.032.018-.048l.01-.033c0-.014.008-.028.012-.042.004-.015 0-.024.009-.037.009-.012 0-.025.009-.037l.007-.043v-.034-.047-.031-.057-.023-.086-.083-.028-.058-.031-.087c0-.03-.007-.059-.012-.087v-.012l-.015-.077-.008-.031c0-.02-.009-.04-.014-.06-.005-.019 0-.022-.008-.033l-.016-.057c0-.012 0-.023-.01-.035-.01-.011-.012-.04-.02-.061a1.866 1.866 0 00-.04-.119v-.007l-.03-.081-.012-.027-.026-.062-.014-.03a1.057 1.057 0 00-.029-.064l-.011-.023a1.988 1.988 0 00-.043-.086l-.011-.022c-.013-.021-.024-.044-.037-.066l-.026-.047-.025-.044a1.498 1.498 0 00-.074-.114l-.026-.04-.031-.048-.03-.043-.034-.047-.023-.03a3.145 3.145 0 00-.168-.21l-.056-.065-.005-.022c-.022-.025-.046-.049-.07-.074l-.02-.02-.05-.05-.03-.029-.044-.04-.032-.03-.044-.038-.034-.03-.044-.035-.035-.029-.045-.034-.034-.025-.047-.034-.033-.023-.053-.034-.027-.018c-.026-.016-.053-.033-.08-.048l-.083-.046-.075-.037-.028-.013-.055-.025-.025-.01-.078-.03-.077-.027-.025-.007-.051-.015-.03-.008-.048-.01h-.03l-.044-.008h-.331a.549.549 0 00-.06.01h-.016l-.049.01-.022.006-.038.012a.376.376 0 00-.045.017l-.021.008a.804.804 0 00-.064.03l.863-.456.063-.03.022-.008a1.19 1.19 0 01.76 0c.245.078.474.194.676.342l.018.014.033.025c.755.57 1.231 1.39 1.325 2.278.04.31-.027.622-.191.895l-.008.01-.029.038-.012.014a.99.99 0 01-.03.033l-.012.013-.041.04-.007.006-.039.031-.014.01-.035.025-.015.01-.05.028-.864.462.051-.03.015-.009.029-.044z" fill="#568BC8"/><path d="M98.096 41.722c.94.495 1.7 1.69 1.697 2.674-.004.983-.768 1.38-1.708.885-.94-.494-1.7-1.69-1.697-2.674.003-.983.764-1.378 1.708-.885z" fill="#70A0D2"/><path d="M99.03 44.112a2.335 2.335 0 00-.933-1.606l-.024-.018-.013-.01a1.608 1.608 0 00-.476-.239.837.837 0 00-.536 0l-.015.006-.045.02S49.978 67 45.033 69.6l2.27 2.36 51.39-27.03.036-.021.01-.007.025-.017.01-.008.027-.023a.232.232 0 00.03-.029l.01-.008.02-.024.008-.01.021-.026v-.008a.977.977 0 00.14-.636z" fill="#70A0D2"/><path d="M99.03 44.112a2.074 2.074 0 00-.25-.815c-.011 0-.024 0-.035.01l-.015.005-.045.021S50.85 68.497 46.28 70.898l1.02 1.062 51.391-27.032.037-.02.01-.007.025-.017.01-.008.027-.023a.226.226 0 00.03-.029l.009-.008.02-.024.009-.01.021-.026v-.008a.977.977 0 00.14-.636zM104.058 47.778l.015-.012.039-.032h.006a.613.613 0 00.043-.04l.011-.012.03-.033.011-.015.03-.038.008-.01.036-.055.031-.058v-.009a.57.57 0 00.024-.05V47.4l.011-.03.019-.048c0-.012 0-.022.01-.033l.012-.043c0-.012.007-.023.01-.036l.007-.038c0-.013 0-.027.009-.042.009-.015 0-.023 0-.034v-.079-.056-.023-.086-.083-.087-.03c0-.01 0-.041-.008-.063a.096.096 0 000-.024c0-.03-.008-.06-.013-.088v-.011l-.015-.078-.008-.03c0-.02-.009-.04-.014-.06-.005-.019 0-.022-.009-.034-.008-.011-.01-.037-.016-.057-.006-.019 0-.022-.009-.034-.008-.011-.013-.04-.02-.061-.006-.02 0-.02-.008-.029a1.33 1.33 0 00-.032-.09v-.007l-.032-.082c0-.009-.008-.018-.01-.026a1.19 1.19 0 00-.028-.063l-.012-.03-.03-.063c0-.008 0-.016-.01-.023a2.187 2.187 0 00-.044-.086l-.011-.022-.036-.066-.026-.047c-.009-.015-.016-.03-.025-.043a1.183 1.183 0 00-.074-.114l-.026-.04-.033-.048c-.008-.015-.018-.028-.028-.043l-.034-.047-.023-.03a2.198 2.198 0 00-.096-.125c-.024-.03-.047-.058-.072-.085l-.056-.065-.011-.013-.07-.074-.02-.02-.052-.05a.359.359 0 00-.028-.029l-.046-.04-.031-.03-.044-.038a.318.318 0 00-.035-.03l-.042-.035-.035-.029-.045-.034-.036-.025-.046-.034-.032-.023-.053-.034-.028-.018c-.026-.016-.052-.033-.08-.048l-.082-.045-.075-.037-.028-.014-.055-.025-.025-.01-.079-.03-.078-.027-.023-.007-.053-.015-.03-.008-.046-.01h-.031l-.043-.008h-.33a.558.558 0 00-.061.01h-.016l-.048.01-.022.006a.365.365 0 00-.038.012.24.24 0 00-.045.017l-.023.008-.063.03.864-.462.062-.03.023-.008a1.19 1.19 0 01.76 0c.245.078.473.194.675.342l.019.014.033.025c.755.571 1.231 1.39 1.325 2.279.04.309-.027.621-.191.894l-.008.01-.03.038-.011.015-.03.033-.012.012a.532.532 0 01-.042.04c-.015.013 0 0 0 .006l-.039.032-.015.01-.035.024-.014.01-.051.029-.863.461.051-.03.014-.009.039-.047z" fill="#568BC8"/><path d="M102.758 44.173c.941.494 1.699 1.69 1.697 2.674-.003.983-.768 1.38-1.708.885-.94-.495-1.701-1.69-1.697-2.674.004-.983.768-1.379 1.708-.885z" fill="#70A0D2"/><path d="M103.697 46.563a2.329 2.329 0 00-.934-1.607l-.024-.018-.012-.009a1.606 1.606 0 00-.476-.24.84.84 0 00-.536 0h-.015l-.045.021S54.64 69.45 49.694 72.05l2.27 2.36 51.39-27.035.035-.02.012-.007.023-.017.012-.008.027-.023.03-.028.008-.008.021-.024.009-.01.02-.027v-.008a.98.98 0 00.146-.632z" fill="#70A0D2"/><path d="M103.697 46.563a2.07 2.07 0 00-.25-.816l-.034.01-.016.006-.044.02s-47.84 25.165-52.407 27.569l1.02 1.062 51.388-27.039.035-.02.012-.007.023-.017.012-.008.027-.023.03-.028.008-.008.021-.024.009-.01.02-.027v-.008a.98.98 0 00.146-.632z" fill="#568BC8"/><path d="M74.14 88.107l7.913-4.203v2.494l-7.914 4.178v-2.469z" fill="#5A667F"/><path d="M73.336 79.315l8.717 4.59-7.913 4.204-8.744-4.605 7.94-4.189z" fill="#7F95A0"/><path d="M65.396 83.504l8.744 4.605v2.467L65.395 86v-2.496z" fill="#6C788E"/><path d="M79.23 65.747v17.83c0 1.193-2.316 2.165-5.174 2.165-2.857 0-5.174-.968-5.174-2.165v-17.83H79.23z" fill="#74ACAC"/><path d="M68.882 65.75v-.009c.015-3.202 5.174-3.199 5.174-3.199 4.41 0 5.062 2.393 5.157 3.04 0 .036.011.073.014.115.002.042 0 .051 0 .051 0 1.194-2.316 2.165-5.173 2.165-2.858 0-5.163-.963-5.174-2.152l.002-.012z" fill="#9CCBCC"/><path d="M72.712 85.665c-2.206-.248-3.83-1.089-3.83-2.088v-17.83h3.83v19.918zM74.31 85.735h-.25c-.231 0-.46-.007-.684-.02V66.909h.938l-.003 18.827z" fill="#9CCBCC"/><path d="M70.13 67.154c-.773-.376-1.243-.865-1.253-1.398v-.014c.015-3.202 5.175-3.199 5.175-3.199s-3.665 1.221-3.922 4.611z" fill="#ABD6D6"/><path d="M84.504 93.538l7.913-4.203v2.494l-7.913 4.178v-2.469z" fill="#5A667F"/><path d="M83.7 84.746l8.718 4.59-7.913 4.205-8.744-4.604 7.94-4.19z" fill="#7F95A0"/><path d="M75.76 88.937l8.745 4.604-.001 2.466-8.743-4.576v-2.494z" fill="#6C788E"/><path d="M89.594 71.178v17.83c0 1.195-2.316 2.165-5.173 2.165-2.858 0-5.174-.967-5.174-2.165v-17.83h10.347z" fill="#74ACAC"/><path d="M79.246 71.18v-.008c.015-3.202 5.172-3.199 5.172-3.199 4.41 0 5.063 2.393 5.158 3.041 0 .037.012.072.014.108.003.037 0 .053 0 .053 0 1.194-2.315 2.164-5.173 2.164-2.857 0-5.159-.962-5.171-2.152v-.007z" fill="#9CCBCC"/><path d="M83.076 91.096c-2.205-.248-3.83-1.088-3.83-2.088v-17.83h3.83v19.918zM84.675 91.168h-.25c-.232 0-.46-.007-.684-.02V72.34h.938l-.004 18.829z" fill="#9CCBCC"/><path d="M80.498 72.585c-.773-.376-1.242-.863-1.252-1.398v-.015c.015-3.202 5.172-3.199 5.172-3.199s-3.67 1.223-3.92 4.612z" fill="#ABD6D6"/><path d="M40.208 104.068L0 82.665v15.18L40.222 119l-.014-14.932z" fill="#E0E4E4"/><path d="M42.118 60.532L0 82.665l40.208 21.403 42.363-22.27-40.453-21.266z" fill="#86B7E2"/><path d="M82.572 81.799l-42.364 22.269.014 14.932 42.35-22.019V81.8z" fill="#D3D3D3"/><path d="M25.752 73.899L5.791 63.273v16.355l19.966 10.503-.006-16.232z" fill="#E0E4E4"/><path d="M26.7 52.287L5.79 63.273 25.751 73.9l21.031-11.055L26.7 52.287z" fill="#A7AF3F"/><path d="M46.782 62.844l-21.03 11.055.006 16.232L46.782 79.2V62.844z" fill="#D3D3D3"/><path d="M129.985 49.777L94.005 30.63l-.56.294 36.54 19.447v-.594z" fill="#F5F6F7"/><path d="M94.004 30.63v-2.29l35.981 19.133v2.304L94.004 30.63z" fill="#536276"/><path d="M93.444 28.046v2.878l.56-.294v-2.29l-.56-.294z" fill="#D3D3D3"/><path d="M94.004 29.116v-.234l35.981 19.134v.234L94.004 29.116zM94.004 29.987v-.235l35.981 19.133v.235L94.004 29.987z" fill="#9BAEC4"/><path d="M128.728 46.803l.234.125v2.304l-.234-.124v-2.305zM127.557 46.181l.234.126v2.303l-.234-.124v-2.305zM126.387 45.56l.233.125v2.303l-.233-.124V45.56zM125.216 44.938l.235.124v2.305l-.235-.125v-2.304zM124.046 44.316l.234.124v2.305l-.234-.125v-2.304zM122.876 43.694l.233.124v2.305l-.233-.124v-2.305zM121.705 43.072l.234.124v2.305l-.234-.124v-2.305zM120.534 42.451l.235.124v2.304l-.235-.124V42.45zM119.365 41.83l.234.123v2.304l-.234-.124v-2.304zM118.194 41.207l.234.124v2.305l-.234-.125v-2.304zM117.025 40.585l.232.124v2.305l-.232-.124v-2.305zM115.854 39.963l.234.125v2.304l-.234-.124v-2.305zM114.683 39.342l.234.124v2.304l-.234-.124v-2.304zM113.513 38.72l.235.124v2.305l-.235-.125V38.72zM112.343 38.098l.234.124v2.305l-.234-.126v-2.303zM111.173 37.476l.233.124v2.305l-.233-.124v-2.305zM110.002 36.854l.234.124v2.305l-.234-.125v-2.304zM108.831 36.232l.235.125v2.304l-.235-.125v-2.304zM107.662 35.61l.233.125v2.304l-.233-.125v-2.303zM106.491 34.989l.234.124v2.305l-.234-.126V34.99zM105.32 34.367l.234.124v2.305l-.234-.125v-2.304zM104.151 33.745l.234.124v2.304l-.234-.124v-2.304zM102.98 33.122l.234.126v2.303l-.234-.124v-2.305zM101.809 32.502l.234.124v2.303l-.234-.124v-2.303zM100.639 31.88l.235.124v2.304l-.235-.125V31.88zM99.469 31.257l.234.124v2.305l-.234-.125v-2.304zM98.3 30.635l.232.124v2.305l-.233-.124v-2.305zM97.128 30.013l.234.124v2.305l-.234-.124v-2.305zM95.957 29.392l.235.124v2.304l-.234-.124v-2.304zM94.788 28.77l.234.124v2.304l-.234-.124V28.77z" fill="#9BAEC4"/><path d="M142.188 45.51v-3.893l1.925-1.023v3.885l-1.925 1.031z" fill="#546276"/><path d="M144.113 40.594l-.482.255v3.385l.482.245v-3.885z" fill="#E0E4E4"/><path d="M143.631 44.234l-1.443.758v.518l1.925-1.03-.482-.246z" fill="#F5F6F7"/><path d="M139.732 46.795v-3.894l1.926-1.023v3.885l-1.926 1.032z" fill="#546276"/><path d="M141.658 41.878l-.484.255v3.385l.484.245v-3.885z" fill="#E0E4E4"/><path d="M141.174 45.518l-1.442.759v.518l1.926-1.032-.484-.245z" fill="#F5F6F7"/><path d="M73.968 78.468l-7.857 4.16 6.081.682 7.876-4.17-6.1-.672z" fill="#568BC8"/><path d="M80.068 79.14v2.538l-7.876 4.17V83.31l7.876-4.17z" fill="#D3D3D3"/><path d="M72.192 83.31v2.538l-6.08-3.22 6.08.682z" fill="#E0E4E4"/><path d="M63.334 84.052l-7.857 4.16 6.081.681 7.877-4.17-6.101-.67z" fill="#568BC8"/><path d="M69.435 84.724v2.538l-7.877 4.17v-2.539l7.877-4.17z" fill="#D3D3D3"/><path d="M61.558 88.893v2.539l-6.08-3.22 6.08.681z" fill="#E0E4E4"/><path d="M52.7 89.636l-7.856 4.16 6.082.682 7.875-4.17-6.1-.672z" fill="#568BC8"/><path d="M58.8 90.308v2.539l-7.874 4.169v-2.538l7.875-4.17z" fill="#D3D3D3"/><path d="M50.926 94.478v2.538l-6.082-3.22 6.082.682z" fill="#E0E4E4"/><path d="M42.066 95.22l-7.856 4.16 6.082.682 7.876-4.17-6.102-.672z" fill="#568BC8"/><path d="M48.169 95.892v2.539l-7.877 4.17v-2.539l7.877-4.17z" fill="#D3D3D3"/><path d="M40.292 100.062v2.539L34.21 99.38l6.082.682z" fill="#E0E4E4"/><path d="M43.202 71.098v-3.893l1.926-1.024v3.886l-1.926 1.031z" fill="#546276"/><path d="M45.128 66.181l-.482.255v3.385l.482.246v-3.886z" fill="#E0E4E4"/><path d="M44.646 69.821l-1.444.759v.518l1.926-1.03-.482-.247z" fill="#F5F6F7"/><path d="M40.747 72.383V68.49l1.925-1.023v3.885l-1.925 1.032z" fill="#546276"/><path d="M42.673 67.466l-.484.255v3.385l.484.245v-3.885z" fill="#E0E4E4"/><path d="M42.19 71.106l-1.443.758v.52l1.925-1.033-.483-.245z" fill="#F5F6F7"/><path d="M36.727 74.496v-3.893l1.926-1.024v3.886l-1.926 1.03z" fill="#546276"/><path d="M38.653 69.579l-.483.256v3.384l.483.246v-3.886z" fill="#E0E4E4"/><path d="M38.17 73.219l-1.443.758v.519l1.926-1.031-.483-.246z" fill="#F5F6F7"/><path d="M34.272 75.78v-3.893l1.925-1.023v3.885l-1.925 1.032z" fill="#546276"/><path d="M36.197 70.864l-.483.255v3.385l.483.245v-3.885z" fill="#E0E4E4"/><path d="M35.714 74.504l-1.442.757v.52l1.925-1.032-.483-.245z" fill="#F5F6F7"/><path d="M30.252 77.893V74l1.926-1.024v3.886l-1.926 1.031z" fill="#546276"/><path d="M32.178 72.976l-.482.255v3.386l.482.245v-3.886z" fill="#E0E4E4"/><path d="M31.696 76.617l-1.444.758v.518l1.926-1.03-.482-.246z" fill="#F5F6F7"/><path d="M27.795 79.178v-3.894l1.927-1.023v3.885l-1.927 1.032z" fill="#546276"/><path d="M29.722 74.261l-.483.255v3.385l.483.245v-3.885z" fill="#E0E4E4"/><path d="M29.239 77.901l-1.444.758v.52l1.927-1.033-.483-.245z" fill="#F5F6F7"/><path d="M43.202 78.24v-3.895l1.926-1.023v3.885l-1.926 1.033z" fill="#546276"/><path d="M45.128 73.322l-.482.255v3.385l.482.245v-3.885z" fill="#E0E4E4"/><path d="M44.646 76.962l-1.444.758v.52l1.926-1.033-.482-.245z" fill="#F5F6F7"/><path d="M40.747 79.524V75.63l1.925-1.024v3.887l-1.925 1.03z" fill="#546276"/><path d="M42.673 74.606l-.484.256v3.384l.484.247v-3.887z" fill="#E0E4E4"/><path d="M42.19 78.246l-1.443.76v.518l1.925-1.031-.483-.247z" fill="#F5F6F7"/><path d="M36.727 81.637v-3.894l1.926-1.023v3.885l-1.926 1.032z" fill="#546276"/><path d="M38.653 76.72l-.483.255v3.385l.483.245V76.72z" fill="#E0E4E4"/><path d="M38.17 80.36l-1.443.758v.519l1.926-1.032-.483-.245z" fill="#F5F6F7"/><path d="M34.272 82.921v-3.893l1.925-1.024v3.886l-1.925 1.031z" fill="#546276"/><path d="M36.197 78.004l-.483.255v3.385l.483.246v-3.886z" fill="#E0E4E4"/><path d="M35.714 81.644l-1.442.759v.518l1.925-1.031-.483-.246z" fill="#F5F6F7"/><path d="M30.252 85.034V81.14l1.926-1.023v3.885l-1.926 1.032z" fill="#546276"/><path d="M32.178 80.117l-.482.255v3.385l.482.245v-3.885z" fill="#E0E4E4"/><path d="M31.696 83.757l-1.444.758v.52l1.926-1.033-.482-.245z" fill="#F5F6F7"/><path d="M27.795 86.319v-3.894l1.927-1.024v3.886l-1.927 1.031z" fill="#546276"/><path d="M29.722 81.401l-.483.255v3.385l.483.246v-3.886z" fill="#E0E4E4"/><path d="M29.239 85.041l-1.444.76v.517l1.927-1.03-.483-.247zM5.791 63.273L25.751 73.9l21.037-11.052L26.7 52.287 5.79 63.273zm2.306.007l18.602-9.776 17.768 9.342-18.712 9.834-17.658-9.4z" fill="#F5F6F7"/><path d="M53.319 73.781l4.876-2.582v.63l-4.876 2.583v-.63z" fill="#DDE2E2"/><path d="M55.632 69.852l2.563 1.347-4.876 2.582-2.566-1.346 4.879-2.583z" fill="#EFEFF0"/><path d="M50.753 72.435l2.566 1.346v.63l-2.566-1.345v-.631z" fill="#D0D1D1"/><path d="M53.47 71.85c-.718 0-1.302.243-1.302.544 0 .3.584.543 1.302.543.72 0 1.303-.244 1.303-.543 0-.3-.584-.545-1.303-.545z" fill="#6D77B5"/><path d="M53.47 72.152c-.318 0-.576.108-.576.242 0 .133.258.24.576.24.318 0 .576-.114.576-.24 0-.127-.258-.242-.576-.242z" fill="#EFEFF0"/><path d="M55.608 70.718c-.72 0-1.302.242-1.302.543 0 .301.582.545 1.302.545.72 0 1.3-.244 1.3-.545 0-.3-.578-.543-1.3-.543z" fill="#6D77B5"/><path d="M55.608 71.02c-.32 0-.577.108-.577.241s.258.24.577.24c.32 0 .576-.107.576-.24s-.258-.24-.576-.24z" fill="#EFEFF0"/><path d="M56.673 75.55l4.878-2.584v.63l-4.878 2.582v-.628z" fill="#DDE2E2"/><path d="M58.986 71.62l2.565 1.346-4.878 2.584-2.564-1.348 4.877-2.582z" fill="#EFEFF0"/><path d="M54.109 74.202l2.564 1.348v.629l-2.564-1.346v-.631z" fill="#D0D1D1"/><path d="M56.831 73.616c-.719 0-1.302.244-1.302.545 0 .3.583.543 1.302.543.719 0 1.302-.243 1.302-.543 0-.3-.588-.545-1.302-.545z" fill="#6D77B5"/><path d="M56.831 73.922c-.318 0-.576.108-.576.241s.258.24.576.24c.318 0 .577-.113.577-.24 0-.126-.264-.241-.577-.241z" fill="#EFEFF0"/><path d="M58.96 72.485c-.719 0-1.302.244-1.302.543 0 .3.583.545 1.302.545.719 0 1.302-.244 1.302-.545 0-.3-.58-.543-1.302-.543z" fill="#6D77B5"/><path d="M58.96 72.788c-.318 0-.576.114-.576.24 0 .127.258.242.576.242.318 0 .576-.108.576-.242 0-.133-.255-.24-.576-.24z" fill="#EFEFF0"/><path d="M60.028 77.317l4.877-2.583v.63l-4.877 2.582v-.63z" fill="#DDE2E2"/><path d="M62.342 73.387l2.563 1.347-4.877 2.583-2.564-1.348 4.878-2.582z" fill="#EFEFF0"/><path d="M57.464 75.969l2.564 1.348v.629L57.464 76.6v-.631z" fill="#D0D1D1"/><path d="M60.18 75.383c-.72 0-1.301.244-1.301.545 0 .3.582.543 1.302.543.72 0 1.302-.242 1.302-.543 0-.3-.583-.545-1.302-.545z" fill="#6D77B5"/><path d="M60.18 75.688c-.317 0-.576.107-.576.24s.259.24.577.24c.318 0 .576-.107.576-.24s-.258-.24-.576-.24z" fill="#EFEFF0"/><path d="M62.317 74.252c-.719 0-1.302.244-1.302.543 0 .3.583.545 1.302.545.719 0 1.302-.244 1.302-.545 0-.3-.582-.543-1.302-.543z" fill="#6D77B5"/><path d="M62.317 74.555c-.318 0-.576.114-.576.24 0 .127.258.242.576.242.318 0 .577-.108.577-.242 0-.133-.259-.24-.577-.24z" fill="#EFEFF0"/><path d="M40.208 106.131L0 84.728v11.273l40.222 21.156-.014-11.026z" fill="#A7AF3F"/><path d="M17.533 100.168l.028-.029.538.626a.088.088 0 00-.007-.048l-.804-2.05a.116.116 0 00-.058-.068l-1.753-.911a.116.116 0 00-.03-.01c.186.214.362.419.544.627l-.032.04c-.157.2-.316.399-.476.596-.097.123-.102.295-.008.524l.951 2.331.033.075a.857.857 0 01.189-.621l.885-1.082z" fill="#F5F6F7"/><path d="M19.14 103.176l.556-.651-.772-.42-1.788-.979a.047.047 0 00-.026-.004.042.042 0 00-.024.011 8.55 8.55 0 00-.275.356.747.747 0 00-.135.4c-.03.503.358 1.15.846 1.419l.81.442 1.328.722-.52-1.214c-.01-.035-.018-.056 0-.082z" fill="#F5F6F7"/><path d="M22.32 103.97l-.866-.472-.867-.472-.056-.033c0-.228.01-.443.014-.661l-.01-.011-.021.023-.92 1.077c-.02.023-.013.048 0 .082l.847 2.027a.17.17 0 00.035.058c0-.218.009-.436.014-.659l.059.033.602.329.3.164c.197.107.346.1.449-.029.34-.426.68-.851 1.023-1.275a.42.42 0 00.025-.035 1.003 1.003 0 01-.629-.146zM17.552 98.312c.161.414.323.827.486 1.24.144-.177.448-.55.5-.621.265-.325.53-.648.791-.974a.072.072 0 00.01-.06c-.1-.243-.197-.486-.306-.728a1.725 1.725 0 00-.73-.837 1.303 1.303 0 00-.177-.082c-.26-.098-.45-.044-.585.12-.25.298-.803.986-1.085 1.331l1.037.545c.029.014.05.038.06.066z" fill="#F5F6F7"/><path d="M23.113 102.71c-.215-.525-.751-1.851-.987-2.419l-.507.658c-.015.019-.029.025-.061.008l-1.057-.592c.317.782.94 2.312 1.241 3.048.01.021.026.039.046.052l.337.186c.088.048.174.095.262.138.332.165.588.141.751-.082.051-.083.093-.171.125-.262v-.228a2.369 2.369 0 00-.15-.507z" fill="#F5F6F7"/><path d="M19.791 98.579l.323.797-.56.03a.223.223 0 00.028.02l1.743.976c.031.017.045.01.06-.009l.863-1.12c.007-.008.014-.02.021-.031a.095.095 0 01-.009-.011l-.534.04-.033-.074c-.152-.369-.303-.737-.453-1.106a.938.938 0 00-.287-.387l-.047-.039-2.13-1.159c.245.27.429.579.543.912.154.385.322.771.472 1.16z" fill="#F5F6F7"/><path d="M147.295 71.748a.295.295 0 01.025-.026l.476.552a.102.102 0 00-.007-.042l-.71-1.81a.105.105 0 00-.05-.059l-1.542-.81a.153.153 0 00-.026-.009l.479.555-.027.035-.42.527c-.087.114-.091.26-.008.462.282.684.562 1.37.84 2.06.009.017.016.036.03.066v-.026a.748.748 0 01.166-.522c.257-.319.516-.635.774-.953z" fill="#A7AF3F"/><path d="M148.716 74.405c.167-.192.331-.382.491-.57l-.681-.371-1.588-.864a.035.035 0 00-.021-.007.035.035 0 00-.021.007c-.083.104-.166.206-.251.314a.652.652 0 00-.125.352c-.026.446.316 1.018.751 1.254l.715.39 1.172.639-.448-1.074c-.004-.03-.011-.051.006-.07z" fill="#A7AF3F"/><path d="M151.524 75.105l-.765-.416-.765-.416-.05-.03c0-.197.008-.39.012-.585l-.01-.008-.019.02-.812.951c-.018.02-.01.041 0 .073l.751 1.79a.177.177 0 00.03.051c0-.192.009-.385.013-.58l.052.028.532.289.266.145c.173.094.304.088.396-.025.3-.376.602-.75.904-1.126l.021-.03a.874.874 0 01-.556-.13zM147.312 70.107c.142.366.285.731.429 1.096l.446-.548.699-.861a.076.076 0 00.01-.026.062.062 0 00-.003-.027c-.088-.214-.173-.43-.269-.642a1.52 1.52 0 00-.645-.74 1.252 1.252 0 00-.157-.072c-.23-.087-.398-.04-.517.105l-.958 1.176.917.481c.023.013.04.034.048.058z" fill="#A7AF3F"/><path d="M152.224 73.993c-.19-.465-.667-1.636-.877-2.137l-.448.581c-.012.017-.025.023-.054.007l-.933-.523 1.096 2.692a.117.117 0 00.04.047l.298.164c.078.042.154.083.232.122.293.146.519.125.665-.073.042-.073.078-.15.106-.228v-.205a2.004 2.004 0 00-.125-.447z" fill="#A7AF3F"/><path d="M149.29 70.344c.094.228.188.466.286.705l-.501.026.025.018c.513.287 1.025.57 1.54.862.027.015.04.01.052-.008l.763-.988a.193.193 0 00.018-.03v-.008l-.476.038-.028-.066-.401-.977a.84.84 0 00-.25-.342l-.041-.034-1.879-1.026c.215.236.377.507.479.798.131.346.274.69.413 1.032z" fill="#A7AF3F"/><path d="M28.24 65.004v1.091l1.34-.701v-1.092l-1.34.702z" fill="#9ACA7A"/><path d="M29.58 64.302l-1.34.702-1.349-.707 1.341-.703 1.349.708z" fill="#DCEB2A"/><path d="M28.24 65.003v1.091l-1.349-.707v-1.092l1.349.708z" fill="#BBDA52"/><path d="M41.624 62.105v1.091l1.342-.703v-1.09l-1.342.702z" fill="#9ACA7A"/><path d="M42.965 61.403l-1.34.702-1.35-.708 1.342-.703 1.349.709z" fill="#DCEB2A"/><path d="M41.624 62.103v1.092l-1.348-.708v-1.091l1.348.707z" fill="#BBDA52"/><path d="M29.75 58.353v.679l.834-.438v-.679l-.834.438z" fill="#9ACA7A"/><path d="M30.584 57.915l-.834.438-.84-.441.835-.438.839.441z" fill="#DCEB2A"/><path d="M29.75 58.352v.679l-.84-.44v-.68l.84.44z" fill="#BBDA52"/><path d="M34.692 65.562v.68l.836-.437v-.679l-.836.436z" fill="#9ACA7A"/><path d="M35.528 65.126l-.836.436-.839-.44.835-.437.84.441z" fill="#DCEB2A"/><path d="M34.692 65.562v.68l-.839-.442v-.679l.84.441z" fill="#BBDA52"/><path d="M27.402 54.388v.679l.834-.438v-.679l-.834.438z" fill="#9ACA7A"/><path d="M28.236 53.95l-.834.438-.84-.441.835-.438.839.441z" fill="#DCEB2A"/><path d="M27.402 54.387v.679l-.84-.44v-.68l.84.44z" fill="#BBDA52"/><path d="M11.365 62.943v.68l.835-.437v-.68l-.835.437z" fill="#9ACA7A"/><path d="M12.2 62.507l-.835.436-.839-.44.835-.437.84.44z" fill="#DCEB2A"/><path d="M11.365 62.943v.68l-.839-.442v-.679l.839.441z" fill="#BBDA52"/><path d="M39.99 63.402l-2.449 1.282-2.463-1.293 2.45-1.282 2.462 1.293z" fill="#009345" opacity=".1"/><path d="M37.537 60.944v2.801l.9-.472v-2.8l-.9.47z" fill="#74462E"/><path d="M37.537 60.944v2.8l-.905-.475v-2.8l.905.474z" fill="#8A553A"/><path d="M37.54 54.45v7.66l1.903-.998v-7.66l-1.903.997z" fill="#9ACA7A"/><path d="M39.443 53.453l-1.903.996-1.915-1.005 1.905-.996 1.913 1.005z" fill="#DCEB2A"/><path d="M37.54 54.448v7.66l-1.915-1.005v-7.66l1.915 1.005z" fill="#BBDA52"/><path d="M19.212 63.24l-2.449 1.283L14.3 63.23l2.45-1.283 2.462 1.293z" fill="#009345" opacity=".1"/><path d="M16.76 60.783v2.8l.9-.47V60.31l-.9.472z" fill="#74462E"/><path d="M16.76 60.783v2.8l-.906-.475v-2.8l.905.475z" fill="#8A553A"/><path d="M16.762 54.289v7.658l1.903-.997v-7.658l-1.903.997z" fill="#9ACA7A"/><path d="M18.665 53.292l-1.903.997-1.915-1.005 1.905-.997 1.913 1.005z" fill="#DCEB2A"/><path d="M16.762 54.288v7.658l-1.915-1.005v-7.658l1.915 1.005z" fill="#BBDA52"/><path d="M25.82 68.783l-2.45 1.283-2.463-1.293 2.45-1.283 2.462 1.293z" fill="#009345" opacity=".1"/><path d="M23.366 66.326v2.8l.9-.47v-2.802l-.9.472z" fill="#74462E"/><path d="M23.366 66.326v2.8l-.905-.475v-2.8l.905.475z" fill="#8A553A"/><path d="M23.369 59.831v7.66l1.903-.998v-7.658l-1.903.996z" fill="#9ACA7A"/><path d="M25.272 58.835l-1.903.996-1.914-1.004 1.904-.997 1.913 1.005z" fill="#DCEB2A"/><path d="M23.369 59.83v7.66l-1.914-1.006v-7.658l1.914 1.004z" fill="#BBDA52"/><path d="M168.665 67.31l.923-.46v1.857l-.923.458V67.31z" fill="#56616E"/><path d="M168.738 66.427l.851.423-.924.46-.854-.424.927-.459z" fill="#637080"/><path d="M167.811 66.886l.854.424v1.855l-.854-.422v-1.857z" fill="#4D5561"/><path d="M176.875 68.577h-9.431v10.857a.999.999 0 00-.035.17v.035a.966.966 0 00.038.342c.125.443.578.872 1.352 1.213 1.857.818 4.858.818 6.702 0 .761-.342 1.202-.762 1.331-1.201h.045l-.002-11.416z" fill="#D2D2D2"/><path d="M176.542 71.448a2.997 2.997 0 01-1.05.713c-1.848.82-4.856.82-6.715 0-.777-.341-1.225-.771-1.358-1.216v6.792c.133.446.581.875 1.358 1.217 1.859.82 4.867.82 6.715 0 .763-.342 1.204-.763 1.334-1.204a.93.93 0 00.036-.367h.012v-6.477c0 .22-.329.542-.329.542h-.003z" fill="#17AFD9"/><path d="M172.136 68.577h-4.692v10.857a.999.999 0 00-.035.17v.035a.966.966 0 00.038.342c.125.443.578.872 1.352 1.213.924.408 2.129.612 3.34.614l-.003-13.231z" fill="#1B75BB" opacity=".2"/><path d="M175.476 67.192c1.856.818 1.866 2.144.023 2.962-1.844.818-4.845.818-6.702 0-1.857-.818-1.865-2.143-.02-2.962 1.844-.82 4.842-.817 6.699 0z" fill="#33ADB9"/><path d="M168.778 67.736c1.843-.817 4.842-.818 6.699 0 .774.342 1.222.77 1.354 1.215.184-.625-.264-1.28-1.354-1.76-1.857-.816-4.856-.816-6.699 0-1.076.478-1.516 1.127-1.332 1.747.127-.44.568-.865 1.332-1.202z" fill="#D5CFAA"/><path d="M175.476 67.192c-.929-.408-2.142-.613-3.355-.613-1.212 0-2.423.205-3.344.613-1.845.818-1.836 2.143.02 2.962.928.409 2.142.613 3.356.613 1.213 0 2.424-.204 3.346-.613 1.843-.818 1.833-2.144-.023-2.962zm-.104 2.753c-.854.379-2.003.587-3.219.587-1.216 0-2.371-.208-3.23-.587-.805-.355-1.252-.809-1.252-1.278 0-.47.437-.912 1.23-1.267.854-.378 2.003-.587 3.219-.587 1.222 0 2.369.209 3.228.587.807.354 1.253.809 1.253 1.278 0 .47-.435.914-1.229 1.267z" fill="#E7E6E7"/><path d="M171.271 68.213l.923-.46v.465l-.923.457v-.462z" fill="#56616E"/><path d="M168.738 66.036l3.456 1.717-.923.46-3.458-1.719.925-.458z" fill="#637080"/><path d="M167.813 66.494l3.458 1.72v.461l-3.458-1.715v-.466z" fill="#4D5561"/><path d="M161.553 70.392l.923-.46v1.858l-.923.457v-1.855z" fill="#56616E"/><path d="M161.625 69.509l.852.423-.924.46-.854-.424.926-.459z" fill="#637080"/><path d="M160.699 69.968l.854.424v1.855l-.854-.422v-1.857z" fill="#4D5561"/><path d="M169.762 71.66h-9.43v10.857a.898.898 0 00-.035.17v.035a.989.989 0 00.037.342c.126.444.579.872 1.353 1.214 1.857.817 4.857.817 6.702 0 .761-.342 1.2-.763 1.331-1.202h.045l-.003-11.416z" fill="#D2D2D2"/><path d="M169.433 74.53a3.007 3.007 0 01-1.049.713c-1.849.82-4.856.82-6.716 0-.776-.342-1.225-.771-1.357-1.217v6.793c.132.445.581.875 1.357 1.217 1.86.819 4.867.819 6.716 0 .762-.342 1.203-.764 1.333-1.204a.942.942 0 00.037-.342v-.02h.011v-6.482c0 .22-.328.542-.328.542h-.004z" fill="#17AFD9"/><path d="M165.021 71.66h-4.692v10.857a.898.898 0 00-.035.17v.035a.99.99 0 00.038.342c.125.444.578.872 1.352 1.214.924.407 2.129.61 3.34.613l-.003-13.231z" fill="#1B75BB" opacity=".2"/><path d="M168.364 70.276c1.855.818 1.865 2.144.022 2.962-1.843.818-4.845.818-6.702 0-1.857-.818-1.864-2.143-.02-2.962 1.845-.82 4.843-.82 6.7 0z" fill="#33ADB9"/><path d="M161.664 70.818c1.844-.817 4.843-.818 6.7 0 .773.342 1.222.771 1.353 1.215.184-.625-.264-1.279-1.353-1.76-1.857-.816-4.856-.816-6.7 0-1.075.478-1.516 1.127-1.333 1.748.13-.44.571-.865 1.333-1.203z" fill="#D5CFAA"/><path d="M168.364 70.276c-.93-.408-2.143-.613-3.355-.613-1.212 0-2.423.205-3.345.613-1.844.818-1.835 2.144.02 2.962.928.409 2.143.613 3.356.613 1.214 0 2.423-.204 3.346-.613 1.843-.82 1.833-2.147-.022-2.962zm-.104 2.754c-.854.378-1.998.586-3.22.586-1.222 0-2.37-.208-3.229-.587-.807-.355-1.252-.808-1.252-1.278s.437-.911 1.229-1.267c.854-.378 2.004-.587 3.22-.587 1.222 0 2.369.209 3.228.587.806.355 1.252.81 1.252 1.279 0 .469-.436.912-1.228 1.264v.002z" fill="#E7E6E7"/><path d="M164.159 71.295l.923-.46v.465l-.923.457v-.462z" fill="#56616E"/><path d="M161.625 69.118l3.457 1.717-.923.46-3.459-1.719.925-.458z" fill="#637080"/><path d="M160.7 69.576l3.459 1.72v.46l-3.459-1.714v-.466z" fill="#4D5561"/></svg>
