<svg width="28" height="32" fill="none" xmlns="http://www.w3.org/2000/svg"><path d="M0 0h28v32H0z"/><path d="M0 0v14.29C0 25.89 12.405 31.949 13.996 32 15.588 31.948 28 25.89 28 14.29V0H0z" fill="#004785" fill-opacity=".2"/><path d="M1.405 1.538v12.857c0 10.435 11.16 15.886 12.592 15.932 1.433-.046 12.598-5.497 12.598-15.933V1.539H1.405z" fill="#fff"/><path d="M1.385 9.381v-7.84l25.217-.003v7.843H1.384z" fill="#A90533"/><path d="M25.261 20.36L14.026 9.403 2.759 20.404c.99 2.14 2.41 3.941 3.932 5.395l7.335-7.722 7.3 7.704c1.525-1.46 2.949-3.27 3.935-5.421z" fill="#004785"/><path d="M5.615 19.759c0-1.397 1.107-2.531 2.48-2.531 1.368 0 2.48 1.134 2.48 2.53 0 1.405-1.112 2.535-2.48 2.535-1.373 0-2.48-1.13-2.48-2.534zM11.56 14.377c0-1.395 1.11-2.53 2.479-2.53 1.368 0 2.48 1.135 2.48 2.53 0 1.398-1.112 2.534-2.48 2.534-1.369 0-2.48-1.136-2.48-2.534zM20.08 22.293c-1.371 0-2.479-1.13-2.479-2.534 0-1.397 1.108-2.531 2.48-2.531 1.368 0 2.48 1.134 2.48 2.53 0 1.405-1.112 2.535-2.48 2.535z" fill="#fff"/></svg>
